<?xml version="1.0" standalone="no"?>
<!DOCTYPE svg PUBLIC "-//W3C//DTD SVG 1.1//EN" "http://www.w3.org/Graphics/SVG/1.1/DTD/svg11.dtd">
<!--Generator: Xara Designer (www.xara.com), SVG filter version: 6.5.0.22-->
<svg fill="none" fill-rule="evenodd" stroke="black" stroke-width="0.501" stroke-linejoin="bevel" stroke-miterlimit="10" font-family="Times New Roman" font-size="16" style="font-variant-ligatures:none" xmlns:xlink="http://www.w3.org/1999/xlink" xmlns="http://www.w3.org/2000/svg" version="1.1" overflow="visible" width="834.499pt" height="277.158pt" viewBox="-847.222 -579.032 834.499 277.158">
 <defs>
	</defs>
 <g id="Layer 1" transform="scale(1 -1)">
  <path d="M -468.681,309.428 C -481.273,314.856 -487.751,322.576 -487.76,330.346 L -487.762,330.346 L -487.762,448.827 L -487.747,448.827 C -487.813,455.175 -483.561,461.566 -474.796,466.775 C -455.368,478.321 -421.088,479.709 -398.28,469.873 C -385.623,464.414 -379.145,456.639 -379.207,448.827 L -379.197,448.827 L -379.197,330.346 L -379.187,330.346 C -379.18,324.038 -383.436,317.699 -392.143,312.526 C -411.577,300.98 -445.867,299.592 -468.681,309.428 Z" stroke="#0b5567" fill="#15a9ce" stroke-linejoin="miter" stroke-width="2" marker-start="none" marker-end="none"/>
  <ellipse rx="44.997" ry="33.146" transform="translate(-433.477 448.955) rotate(156.67) skewX(35.947)" stroke="#0b5567" stroke-linejoin="miter" stroke-width="2"/>
  <rect x="-847.221" y="478.119" width="87.187" height="66.562" rx="9.4134" ry="9.4134" fill="#ffa94b" stroke="none" stroke-linejoin="miter"/>
  <rect x="-99.909" y="478.119" width="87.187" height="66.562" rx="9.4134" ry="9.4134" fill="#0c323b" stroke="none" stroke-linejoin="miter"/>
  <g id="Group" fill-rule="nonzero" stroke-linejoin="round" stroke-linecap="round" stroke="none" stroke-width="0.25" fill="#0c323b">
   <g id="Group_1">
    <path d="M -575.876,507.972 L -575.876,518.468 L -569.828,518.468 L -569.828,517.348 L -574.548,517.348 L -574.548,514.052 L -570.564,514.052 L -570.564,512.916 L -574.548,512.916 L -574.548,509.108 L -569.668,509.108 L -569.668,507.972 L -575.876,507.972 Z" marker-start="none" marker-end="none"/>
    <path d="M -566.053,507.972 L -568.853,515.748 L -567.493,515.748 L -566.021,511.332 C -565.904,510.948 -565.784,510.564 -565.661,510.18 C -565.538,509.796 -565.418,509.417 -565.301,509.044 L -565.237,509.044 C -565.12,509.417 -565.002,509.796 -564.885,510.18 C -564.768,510.564 -564.65,510.948 -564.533,511.332 L -563.061,515.748 L -561.765,515.748 L -564.517,507.972 L -566.053,507.972 Z" marker-start="none" marker-end="none"/>
    <path d="M -557.175,507.78 C -557.698,507.78 -558.186,507.873 -558.639,508.06 C -559.092,508.247 -559.487,508.513 -559.823,508.86 C -560.159,509.207 -560.423,509.631 -560.615,510.132 C -560.807,510.633 -560.903,511.204 -560.903,511.844 C -560.903,512.484 -560.804,513.057 -560.607,513.564 C -560.41,514.071 -560.148,514.5 -559.823,514.852 C -559.498,515.204 -559.127,515.474 -558.711,515.66 C -558.295,515.847 -557.863,515.94 -557.415,515.94 C -556.924,515.94 -556.484,515.855 -556.095,515.684 C -555.705,515.514 -555.38,515.268 -555.119,514.948 C -554.857,514.628 -554.657,514.244 -554.519,513.796 C -554.38,513.348 -554.311,512.847 -554.311,512.292 C -554.311,512.153 -554.313,512.017 -554.319,511.884 C -554.324,511.751 -554.337,511.636 -554.359,511.54 L -559.607,511.54 C -559.554,510.708 -559.295,510.049 -558.831,509.564 C -558.367,509.079 -557.762,508.836 -557.015,508.836 C -556.642,508.836 -556.298,508.892 -555.983,509.004 C -555.668,509.116 -555.367,509.263 -555.079,509.444 L -554.615,508.58 C -554.956,508.367 -555.335,508.18 -555.751,508.02 C -556.167,507.86 -556.642,507.78 -557.175,507.78 Z M -559.623,512.484 L -555.463,512.484 C -555.463,513.273 -555.631,513.874 -555.967,514.284 C -556.303,514.695 -556.775,514.9 -557.383,514.9 C -557.66,514.9 -557.924,514.847 -558.175,514.74 C -558.426,514.634 -558.652,514.476 -558.855,514.268 C -559.058,514.06 -559.226,513.807 -559.359,513.508 C -559.492,513.209 -559.58,512.868 -559.623,512.484 Z" marker-start="none" marker-end="none"/>
    <path d="M -552.389,507.972 L -552.389,515.748 L -551.301,515.748 L -551.189,514.628 L -551.141,514.628 C -550.768,515.002 -550.376,515.314 -549.965,515.564 C -549.554,515.815 -549.077,515.94 -548.533,515.94 C -547.711,515.94 -547.111,515.684 -546.733,515.172 C -546.354,514.66 -546.165,513.903 -546.165,512.9 L -546.165,507.972 L -547.477,507.972 L -547.477,512.724 C -547.477,513.46 -547.594,513.991 -547.829,514.316 C -548.063,514.642 -548.437,514.804 -548.949,514.804 C -549.354,514.804 -549.712,514.703 -550.021,514.5 C -550.33,514.298 -550.682,513.999 -551.077,513.604 L -551.077,507.972 L -552.389,507.972 Z" marker-start="none" marker-end="none"/>
    <path d="M -541.191,507.78 C -541.607,507.78 -541.956,507.844 -542.239,507.972 C -542.522,508.1 -542.751,508.276 -542.927,508.5 C -543.103,508.724 -543.228,508.996 -543.303,509.316 C -543.378,509.636 -543.415,509.988 -543.415,510.372 L -543.415,514.676 L -544.567,514.676 L -544.567,515.668 L -543.351,515.748 L -543.191,517.924 L -542.087,517.924 L -542.087,515.748 L -539.991,515.748 L -539.991,514.676 L -542.087,514.676 L -542.087,510.356 C -542.087,509.876 -541.999,509.505 -541.823,509.244 C -541.647,508.983 -541.335,508.852 -540.887,508.852 C -540.748,508.852 -540.599,508.873 -540.439,508.916 C -540.279,508.959 -540.135,509.007 -540.007,509.06 L -539.751,508.068 C -539.964,507.993 -540.196,507.927 -540.447,507.868 C -540.698,507.809 -540.946,507.78 -541.191,507.78 Z" marker-start="none" marker-end="none"/>
    <path d="M -535.078,507.972 L -535.078,509.06 L -532.742,509.06 L -532.742,516.58 L -534.598,516.58 L -534.598,517.428 C -534.129,517.514 -533.721,517.618 -533.374,517.74 C -533.027,517.863 -532.715,518.01 -532.438,518.18 L -531.43,518.18 L -531.43,509.06 L -529.318,509.06 L -529.318,507.972 L -535.078,507.972 Z" marker-start="none" marker-end="none"/>
   </g>
  </g>
  <g id="Group_2" fill-rule="nonzero" stroke-linejoin="round" stroke-linecap="round" stroke="none" stroke-width="0.25" fill="#0c323b">
   <g id="Group_3">
    <path d="M -656.876,507.972 L -656.876,518.468 L -650.828,518.468 L -650.828,517.348 L -655.548,517.348 L -655.548,514.052 L -651.564,514.052 L -651.564,512.916 L -655.548,512.916 L -655.548,509.108 L -650.668,509.108 L -650.668,507.972 L -656.876,507.972 Z" marker-start="none" marker-end="none"/>
    <path d="M -647.053,507.972 L -649.853,515.748 L -648.493,515.748 L -647.021,511.332 C -646.904,510.948 -646.784,510.564 -646.661,510.18 C -646.538,509.796 -646.418,509.417 -646.301,509.044 L -646.237,509.044 C -646.12,509.417 -646.002,509.796 -645.885,510.18 C -645.768,510.564 -645.65,510.948 -645.533,511.332 L -644.061,515.748 L -642.765,515.748 L -645.517,507.972 L -647.053,507.972 Z" marker-start="none" marker-end="none"/>
    <path d="M -638.175,507.78 C -638.698,507.78 -639.186,507.873 -639.639,508.06 C -640.092,508.247 -640.487,508.513 -640.823,508.86 C -641.159,509.207 -641.423,509.631 -641.615,510.132 C -641.807,510.633 -641.903,511.204 -641.903,511.844 C -641.903,512.484 -641.804,513.057 -641.607,513.564 C -641.41,514.071 -641.148,514.5 -640.823,514.852 C -640.498,515.204 -640.127,515.474 -639.711,515.66 C -639.295,515.847 -638.863,515.94 -638.415,515.94 C -637.924,515.94 -637.484,515.855 -637.095,515.684 C -636.705,515.514 -636.38,515.268 -636.119,514.948 C -635.857,514.628 -635.657,514.244 -635.519,513.796 C -635.38,513.348 -635.311,512.847 -635.311,512.292 C -635.311,512.153 -635.313,512.017 -635.319,511.884 C -635.324,511.751 -635.337,511.636 -635.359,511.54 L -640.607,511.54 C -640.554,510.708 -640.295,510.049 -639.831,509.564 C -639.367,509.079 -638.762,508.836 -638.015,508.836 C -637.642,508.836 -637.298,508.892 -636.983,509.004 C -636.668,509.116 -636.367,509.263 -636.079,509.444 L -635.615,508.58 C -635.956,508.367 -636.335,508.18 -636.751,508.02 C -637.167,507.86 -637.642,507.78 -638.175,507.78 Z M -640.623,512.484 L -636.463,512.484 C -636.463,513.273 -636.631,513.874 -636.967,514.284 C -637.303,514.695 -637.775,514.9 -638.383,514.9 C -638.66,514.9 -638.924,514.847 -639.175,514.74 C -639.426,514.634 -639.652,514.476 -639.855,514.268 C -640.058,514.06 -640.226,513.807 -640.359,513.508 C -640.492,513.209 -640.58,512.868 -640.623,512.484 Z" marker-start="none" marker-end="none"/>
    <path d="M -633.389,507.972 L -633.389,515.748 L -632.301,515.748 L -632.189,514.628 L -632.141,514.628 C -631.768,515.002 -631.376,515.314 -630.965,515.564 C -630.554,515.815 -630.077,515.94 -629.533,515.94 C -628.711,515.94 -628.111,515.684 -627.733,515.172 C -627.354,514.66 -627.165,513.903 -627.165,512.9 L -627.165,507.972 L -628.477,507.972 L -628.477,512.724 C -628.477,513.46 -628.594,513.991 -628.829,514.316 C -629.063,514.642 -629.437,514.804 -629.949,514.804 C -630.354,514.804 -630.712,514.703 -631.021,514.5 C -631.33,514.298 -631.682,513.999 -632.077,513.604 L -632.077,507.972 L -633.389,507.972 Z" marker-start="none" marker-end="none"/>
    <path d="M -622.191,507.78 C -622.607,507.78 -622.956,507.844 -623.239,507.972 C -623.522,508.1 -623.751,508.276 -623.927,508.5 C -624.103,508.724 -624.228,508.996 -624.303,509.316 C -624.378,509.636 -624.415,509.988 -624.415,510.372 L -624.415,514.676 L -625.567,514.676 L -625.567,515.668 L -624.351,515.748 L -624.191,517.924 L -623.087,517.924 L -623.087,515.748 L -620.991,515.748 L -620.991,514.676 L -623.087,514.676 L -623.087,510.356 C -623.087,509.876 -622.999,509.505 -622.823,509.244 C -622.647,508.983 -622.335,508.852 -621.887,508.852 C -621.748,508.852 -621.599,508.873 -621.439,508.916 C -621.279,508.959 -621.135,509.007 -621.007,509.06 L -620.751,508.068 C -620.964,507.993 -621.196,507.927 -621.447,507.868 C -621.698,507.809 -621.946,507.78 -622.191,507.78 Z" marker-start="none" marker-end="none"/>
    <path d="M -616.702,507.972 L -616.702,508.756 C -615.934,509.524 -615.251,510.217 -614.654,510.836 C -614.057,511.455 -613.555,512.028 -613.15,512.556 C -612.745,513.084 -612.435,513.57 -612.222,514.012 C -612.009,514.455 -611.902,514.884 -611.902,515.3 C -611.902,515.887 -612.062,516.367 -612.382,516.74 C -612.702,517.114 -613.187,517.3 -613.838,517.3 C -614.265,517.3 -614.659,517.18 -615.022,516.94 C -615.385,516.7 -615.715,516.41 -616.014,516.068 L -616.766,516.82 C -616.339,517.29 -615.886,517.666 -615.406,517.948 C -614.926,518.231 -614.35,518.372 -613.678,518.372 C -612.729,518.372 -611.982,518.098 -611.438,517.548 C -610.894,516.999 -610.622,516.271 -610.622,515.364 C -610.622,514.884 -610.726,514.402 -610.934,513.916 C -611.142,513.431 -611.43,512.929 -611.798,512.412 C -612.166,511.895 -612.603,511.356 -613.11,510.796 C -613.617,510.236 -614.174,509.641 -614.782,509.012 C -614.505,509.033 -614.217,509.055 -613.918,509.076 C -613.619,509.097 -613.337,509.108 -613.07,509.108 L -610.11,509.108 L -610.11,507.972 L -616.702,507.972 Z" marker-start="none" marker-end="none"/>
   </g>
  </g>
  <g id="Group_4" fill-rule="nonzero" stroke-linejoin="round" stroke-linecap="round" stroke="none" stroke-width="0.25" fill="#0c323b">
   <g id="Group_5">
    <path d="M -740.387,507.972 L -740.387,518.468 L -734.339,518.468 L -734.339,517.348 L -739.059,517.348 L -739.059,514.052 L -735.075,514.052 L -735.075,512.916 L -739.059,512.916 L -739.059,509.108 L -734.179,509.108 L -734.179,507.972 L -740.387,507.972 Z" marker-start="none" marker-end="none"/>
    <path d="M -730.564,507.972 L -733.364,515.748 L -732.004,515.748 L -730.532,511.332 C -730.415,510.948 -730.295,510.564 -730.172,510.18 C -730.049,509.796 -729.929,509.417 -729.812,509.044 L -729.748,509.044 C -729.631,509.417 -729.513,509.796 -729.396,510.18 C -729.279,510.564 -729.161,510.948 -729.044,511.332 L -727.572,515.748 L -726.276,515.748 L -729.028,507.972 L -730.564,507.972 Z" marker-start="none" marker-end="none"/>
    <path d="M -721.686,507.78 C -722.209,507.78 -722.697,507.873 -723.15,508.06 C -723.603,508.247 -723.998,508.513 -724.334,508.86 C -724.67,509.207 -724.934,509.631 -725.126,510.132 C -725.318,510.633 -725.414,511.204 -725.414,511.844 C -725.414,512.484 -725.315,513.057 -725.118,513.564 C -724.921,514.071 -724.659,514.5 -724.334,514.852 C -724.009,515.204 -723.638,515.474 -723.222,515.66 C -722.806,515.847 -722.374,515.94 -721.926,515.94 C -721.435,515.94 -720.995,515.855 -720.606,515.684 C -720.216,515.514 -719.891,515.268 -719.63,514.948 C -719.368,514.628 -719.168,514.244 -719.03,513.796 C -718.891,513.348 -718.822,512.847 -718.822,512.292 C -718.822,512.153 -718.824,512.017 -718.83,511.884 C -718.835,511.751 -718.848,511.636 -718.87,511.54 L -724.118,511.54 C -724.065,510.708 -723.806,510.049 -723.342,509.564 C -722.878,509.079 -722.273,508.836 -721.526,508.836 C -721.153,508.836 -720.809,508.892 -720.494,509.004 C -720.179,509.116 -719.878,509.263 -719.59,509.444 L -719.126,508.58 C -719.467,508.367 -719.846,508.18 -720.262,508.02 C -720.678,507.86 -721.153,507.78 -721.686,507.78 Z M -724.134,512.484 L -719.974,512.484 C -719.974,513.273 -720.142,513.874 -720.478,514.284 C -720.814,514.695 -721.286,514.9 -721.894,514.9 C -722.171,514.9 -722.435,514.847 -722.686,514.74 C -722.937,514.634 -723.163,514.476 -723.366,514.268 C -723.569,514.06 -723.737,513.807 -723.87,513.508 C -724.003,513.209 -724.091,512.868 -724.134,512.484 Z" marker-start="none" marker-end="none"/>
    <path d="M -716.9,507.972 L -716.9,515.748 L -715.812,515.748 L -715.7,514.628 L -715.652,514.628 C -715.279,515.002 -714.887,515.314 -714.476,515.564 C -714.065,515.815 -713.588,515.94 -713.044,515.94 C -712.222,515.94 -711.622,515.684 -711.244,515.172 C -710.865,514.66 -710.676,513.903 -710.676,512.9 L -710.676,507.972 L -711.988,507.972 L -711.988,512.724 C -711.988,513.46 -712.105,513.991 -712.34,514.316 C -712.574,514.642 -712.948,514.804 -713.46,514.804 C -713.865,514.804 -714.223,514.703 -714.532,514.5 C -714.841,514.298 -715.193,513.999 -715.588,513.604 L -715.588,507.972 L -716.9,507.972 Z" marker-start="none" marker-end="none"/>
    <path d="M -705.702,507.78 C -706.118,507.78 -706.467,507.844 -706.75,507.972 C -707.033,508.1 -707.262,508.276 -707.438,508.5 C -707.614,508.724 -707.739,508.996 -707.814,509.316 C -707.889,509.636 -707.926,509.988 -707.926,510.372 L -707.926,514.676 L -709.078,514.676 L -709.078,515.668 L -707.862,515.748 L -707.702,517.924 L -706.598,517.924 L -706.598,515.748 L -704.502,515.748 L -704.502,514.676 L -706.598,514.676 L -706.598,510.356 C -706.598,509.876 -706.51,509.505 -706.334,509.244 C -706.158,508.983 -705.846,508.852 -705.398,508.852 C -705.259,508.852 -705.11,508.873 -704.95,508.916 C -704.79,508.959 -704.646,509.007 -704.518,509.06 L -704.262,508.068 C -704.475,507.993 -704.707,507.927 -704.958,507.868 C -705.209,507.809 -705.457,507.78 -705.702,507.78 Z" marker-start="none" marker-end="none"/>
    <path d="M -697.077,507.78 C -697.482,507.78 -697.853,507.82 -698.189,507.9 C -698.525,507.98 -698.832,508.087 -699.109,508.22 C -699.386,508.353 -699.634,508.505 -699.853,508.676 C -700.072,508.847 -700.266,509.028 -700.437,509.22 L -699.765,510.084 C -699.456,509.764 -699.096,509.481 -698.685,509.236 C -698.274,508.991 -697.765,508.868 -697.157,508.868 C -696.538,508.868 -696.032,509.036 -695.637,509.372 C -695.242,509.708 -695.045,510.164 -695.045,510.74 C -695.045,511.039 -695.101,511.313 -695.213,511.564 C -695.325,511.815 -695.509,512.031 -695.765,512.212 C -696.021,512.393 -696.357,512.532 -696.773,512.628 C -697.189,512.724 -697.701,512.772 -698.309,512.772 L -698.309,513.78 C -697.765,513.78 -697.309,513.828 -696.941,513.924 C -696.573,514.02 -696.274,514.154 -696.045,514.324 C -695.816,514.495 -695.653,514.698 -695.557,514.932 C -695.461,515.167 -695.413,515.418 -695.413,515.684 C -695.413,516.186 -695.57,516.58 -695.885,516.868 C -696.2,517.156 -696.629,517.3 -697.173,517.3 C -697.6,517.3 -697.992,517.204 -698.349,517.012 C -698.706,516.82 -699.04,516.57 -699.349,516.26 L -700.053,517.092 C -699.658,517.466 -699.224,517.772 -698.749,518.012 C -698.274,518.252 -697.733,518.372 -697.125,518.372 C -696.677,518.372 -696.266,518.314 -695.893,518.196 C -695.52,518.079 -695.197,517.911 -694.925,517.692 C -694.653,517.474 -694.442,517.204 -694.293,516.884 C -694.143,516.564 -694.069,516.196 -694.069,515.78 C -694.069,515.162 -694.239,514.655 -694.581,514.26 C -694.922,513.866 -695.37,513.562 -695.925,513.348 L -695.925,513.284 C -695.616,513.209 -695.327,513.1 -695.061,512.956 C -694.794,512.812 -694.559,512.631 -694.357,512.412 C -694.154,512.193 -693.997,511.94 -693.885,511.652 C -693.773,511.364 -693.717,511.044 -693.717,510.692 C -693.717,510.244 -693.805,509.839 -693.981,509.476 C -694.157,509.113 -694.397,508.807 -694.701,508.556 C -695.005,508.305 -695.359,508.113 -695.765,507.98 C -696.17,507.847 -696.608,507.78 -697.077,507.78 Z" marker-start="none" marker-end="none"/>
   </g>
  </g>
  <g id="Group_6" fill-rule="nonzero" stroke-linejoin="round" stroke-linecap="round" stroke="none" stroke-width="0.25" fill="#15a9ce">
   <g id="Group_7">
    <path d="M -492.151,521.62 C -492.887,521.62 -493.57,521.759 -494.199,522.036 C -494.828,522.313 -495.372,522.692 -495.831,523.172 L -495.031,524.1 C -494.658,523.705 -494.218,523.388 -493.711,523.148 C -493.204,522.908 -492.679,522.788 -492.135,522.788 C -491.442,522.788 -490.903,522.945 -490.519,523.26 C -490.135,523.575 -489.943,523.988 -489.943,524.5 C -489.943,524.767 -489.988,524.993 -490.079,525.18 C -490.169,525.367 -490.292,525.527 -490.447,525.66 C -490.601,525.793 -490.785,525.913 -490.999,526.02 C -491.212,526.127 -491.442,526.239 -491.687,526.356 L -493.191,527.012 C -493.436,527.119 -493.687,527.247 -493.943,527.396 C -494.199,527.546 -494.428,527.727 -494.631,527.94 C -494.834,528.154 -494.999,528.407 -495.127,528.7 C -495.255,528.994 -495.319,529.332 -495.319,529.716 C -495.319,530.111 -495.236,530.479 -495.071,530.82 C -494.906,531.162 -494.676,531.458 -494.383,531.708 C -494.09,531.959 -493.743,532.154 -493.343,532.292 C -492.943,532.431 -492.503,532.5 -492.023,532.5 C -491.394,532.5 -490.812,532.38 -490.279,532.14 C -489.745,531.9 -489.292,531.588 -488.919,531.204 L -489.639,530.34 C -489.959,530.65 -490.313,530.892 -490.703,531.068 C -491.092,531.244 -491.532,531.332 -492.023,531.332 C -492.61,531.332 -493.082,531.196 -493.439,530.924 C -493.796,530.652 -493.975,530.276 -493.975,529.796 C -493.975,529.54 -493.924,529.324 -493.823,529.148 C -493.722,528.972 -493.586,528.818 -493.415,528.684 C -493.244,528.551 -493.058,528.434 -492.855,528.332 C -492.652,528.231 -492.444,528.138 -492.231,528.052 L -490.743,527.412 C -490.444,527.284 -490.161,527.137 -489.895,526.972 C -489.628,526.807 -489.399,526.615 -489.207,526.396 C -489.015,526.177 -488.863,525.921 -488.751,525.628 C -488.639,525.335 -488.583,524.996 -488.583,524.612 C -488.583,524.196 -488.665,523.807 -488.831,523.444 C -488.996,523.081 -489.233,522.764 -489.543,522.492 C -489.852,522.22 -490.225,522.007 -490.663,521.852 C -491.1,521.697 -491.596,521.62 -492.151,521.62 Z" marker-start="none" marker-end="none"/>
    <path d="M -484.579,521.62 C -484.995,521.62 -485.344,521.684 -485.627,521.812 C -485.91,521.94 -486.139,522.116 -486.315,522.34 C -486.491,522.564 -486.616,522.836 -486.691,523.156 C -486.766,523.476 -486.803,523.828 -486.803,524.212 L -486.803,528.516 L -487.955,528.516 L -487.955,529.508 L -486.739,529.588 L -486.579,531.764 L -485.475,531.764 L -485.475,529.588 L -483.379,529.588 L -483.379,528.516 L -485.475,528.516 L -485.475,524.196 C -485.475,523.716 -485.387,523.345 -485.211,523.084 C -485.035,522.823 -484.723,522.692 -484.275,522.692 C -484.136,522.692 -483.987,522.713 -483.827,522.756 C -483.667,522.799 -483.523,522.847 -483.395,522.9 L -483.139,521.908 C -483.352,521.833 -483.584,521.767 -483.835,521.708 C -484.086,521.649 -484.334,521.62 -484.579,521.62 Z" marker-start="none" marker-end="none"/>
    <path d="M -478.82,521.62 C -479.3,521.62 -479.756,521.711 -480.188,521.892 C -480.62,522.073 -481.001,522.337 -481.332,522.684 C -481.663,523.031 -481.927,523.457 -482.124,523.964 C -482.321,524.471 -482.42,525.044 -482.42,525.684 C -482.42,526.335 -482.321,526.913 -482.124,527.42 C -481.927,527.927 -481.663,528.356 -481.332,528.708 C -481.001,529.06 -480.62,529.327 -480.188,529.508 C -479.756,529.69 -479.3,529.78 -478.82,529.78 C -478.34,529.78 -477.884,529.69 -477.452,529.508 C -477.02,529.327 -476.638,529.06 -476.308,528.708 C -475.977,528.356 -475.713,527.927 -475.516,527.42 C -475.318,526.913 -475.22,526.335 -475.22,525.684 C -475.22,525.044 -475.318,524.471 -475.516,523.964 C -475.713,523.457 -475.977,523.031 -476.308,522.684 C -476.638,522.337 -477.02,522.073 -477.452,521.892 C -477.884,521.711 -478.34,521.62 -478.82,521.62 Z M -478.82,522.708 C -478.489,522.708 -478.185,522.78 -477.908,522.924 C -477.63,523.068 -477.393,523.271 -477.196,523.532 C -476.998,523.793 -476.846,524.105 -476.74,524.468 C -476.633,524.831 -476.58,525.236 -476.58,525.684 C -476.58,526.132 -476.633,526.54 -476.74,526.908 C -476.846,527.276 -476.998,527.594 -477.196,527.86 C -477.393,528.127 -477.63,528.332 -477.908,528.476 C -478.185,528.62 -478.489,528.692 -478.82,528.692 C -479.151,528.692 -479.455,528.62 -479.732,528.476 C -480.009,528.332 -480.247,528.127 -480.444,527.86 C -480.641,527.594 -480.793,527.276 -480.9,526.908 C -481.007,526.54 -481.06,526.132 -481.06,525.684 C -481.06,525.236 -481.007,524.831 -480.9,524.468 C -480.793,524.105 -480.641,523.793 -480.444,523.532 C -480.247,523.271 -480.009,523.068 -479.732,522.924 C -479.455,522.78 -479.151,522.708 -478.82,522.708 Z" marker-start="none" marker-end="none"/>
    <path d="M -473.172,521.812 L -473.172,529.588 L -472.084,529.588 L -471.972,528.18 L -471.924,528.18 C -471.657,528.671 -471.335,529.06 -470.956,529.348 C -470.577,529.636 -470.164,529.78 -469.716,529.78 C -469.407,529.78 -469.129,529.727 -468.884,529.62 L -469.14,528.468 C -469.268,528.511 -469.385,528.543 -469.492,528.564 C -469.599,528.586 -469.732,528.596 -469.892,528.596 C -470.223,528.596 -470.567,528.463 -470.924,528.196 C -471.281,527.93 -471.593,527.466 -471.86,526.804 L -471.86,521.812 L -473.172,521.812 Z" marker-start="none" marker-end="none"/>
    <path d="M -464.624,521.62 C -465.147,521.62 -465.635,521.713 -466.088,521.9 C -466.541,522.087 -466.936,522.353 -467.272,522.7 C -467.608,523.047 -467.872,523.471 -468.064,523.972 C -468.256,524.473 -468.352,525.044 -468.352,525.684 C -468.352,526.324 -468.253,526.897 -468.056,527.404 C -467.859,527.911 -467.597,528.34 -467.272,528.692 C -466.947,529.044 -466.576,529.314 -466.16,529.5 C -465.744,529.687 -465.312,529.78 -464.864,529.78 C -464.373,529.78 -463.933,529.695 -463.544,529.524 C -463.154,529.354 -462.829,529.108 -462.568,528.788 C -462.306,528.468 -462.106,528.084 -461.968,527.636 C -461.829,527.188 -461.76,526.687 -461.76,526.132 C -461.76,525.993 -461.762,525.857 -461.768,525.724 C -461.773,525.591 -461.786,525.476 -461.808,525.38 L -467.056,525.38 C -467.003,524.548 -466.744,523.889 -466.28,523.404 C -465.816,522.919 -465.211,522.676 -464.464,522.676 C -464.091,522.676 -463.747,522.732 -463.432,522.844 C -463.117,522.956 -462.816,523.103 -462.528,523.284 L -462.064,522.42 C -462.405,522.207 -462.784,522.02 -463.2,521.86 C -463.616,521.7 -464.091,521.62 -464.624,521.62 Z M -467.072,526.324 L -462.912,526.324 C -462.912,527.113 -463.08,527.714 -463.416,528.124 C -463.752,528.535 -464.224,528.74 -464.832,528.74 C -465.109,528.74 -465.373,528.687 -465.624,528.58 C -465.875,528.474 -466.101,528.316 -466.304,528.108 C -466.507,527.9 -466.675,527.647 -466.808,527.348 C -466.941,527.049 -467.029,526.708 -467.072,526.324 Z" marker-start="none" marker-end="none"/>
   </g>
  </g>
  <g id="Group_8" fill-rule="nonzero" stroke-linejoin="round" stroke-linecap="round" stroke="none" stroke-width="0.25" fill="#15a9ce">
   <g id="Group_9">
    <path d="M -411.878,521.812 L -411.878,532.308 L -408.598,532.308 C -408.065,532.308 -407.571,532.258 -407.118,532.156 C -406.664,532.055 -406.275,531.887 -405.95,531.652 C -405.624,531.418 -405.371,531.114 -405.19,530.74 C -405.008,530.367 -404.918,529.908 -404.918,529.364 C -404.918,528.543 -405.131,527.887 -405.558,527.396 C -405.984,526.905 -406.56,526.569 -407.286,526.388 L -404.614,521.812 L -406.118,521.812 L -408.646,526.244 L -410.55,526.244 L -410.55,521.812 L -411.878,521.812 Z M -410.55,527.332 L -408.79,527.332 C -407.969,527.332 -407.339,527.5 -406.902,527.836 C -406.464,528.172 -406.246,528.682 -406.246,529.364 C -406.246,530.058 -406.464,530.543 -406.902,530.82 C -407.339,531.098 -407.969,531.236 -408.79,531.236 L -410.55,531.236 L -410.55,527.332 Z" marker-start="none" marker-end="none"/>
    <path d="M -399.911,521.62 C -400.434,521.62 -400.922,521.713 -401.375,521.9 C -401.828,522.087 -402.223,522.353 -402.559,522.7 C -402.895,523.047 -403.159,523.471 -403.351,523.972 C -403.543,524.473 -403.639,525.044 -403.639,525.684 C -403.639,526.324 -403.54,526.897 -403.343,527.404 C -403.146,527.911 -402.884,528.34 -402.559,528.692 C -402.234,529.044 -401.863,529.314 -401.447,529.5 C -401.031,529.687 -400.599,529.78 -400.151,529.78 C -399.66,529.78 -399.22,529.695 -398.831,529.524 C -398.441,529.354 -398.116,529.108 -397.855,528.788 C -397.593,528.468 -397.393,528.084 -397.255,527.636 C -397.116,527.188 -397.047,526.687 -397.047,526.132 C -397.047,525.993 -397.049,525.857 -397.055,525.724 C -397.06,525.591 -397.073,525.476 -397.095,525.38 L -402.343,525.38 C -402.29,524.548 -402.031,523.889 -401.567,523.404 C -401.103,522.919 -400.498,522.676 -399.751,522.676 C -399.378,522.676 -399.034,522.732 -398.719,522.844 C -398.404,522.956 -398.103,523.103 -397.815,523.284 L -397.351,522.42 C -397.692,522.207 -398.071,522.02 -398.487,521.86 C -398.903,521.7 -399.378,521.62 -399.911,521.62 Z M -402.359,526.324 L -398.199,526.324 C -398.199,527.113 -398.367,527.714 -398.703,528.124 C -399.039,528.535 -399.511,528.74 -400.119,528.74 C -400.396,528.74 -400.66,528.687 -400.911,528.58 C -401.162,528.474 -401.388,528.316 -401.591,528.108 C -401.794,527.9 -401.962,527.647 -402.095,527.348 C -402.228,527.049 -402.316,526.708 -402.359,526.324 Z" marker-start="none" marker-end="none"/>
    <path d="M -395.125,518.532 L -395.125,529.588 L -394.037,529.588 L -393.925,528.692 L -393.877,528.692 C -393.525,528.991 -393.138,529.247 -392.717,529.46 C -392.296,529.674 -391.856,529.78 -391.397,529.78 C -390.895,529.78 -390.453,529.687 -390.069,529.5 C -389.685,529.314 -389.365,529.047 -389.109,528.7 C -388.853,528.354 -388.658,527.938 -388.525,527.452 C -388.391,526.967 -388.325,526.42 -388.325,525.812 C -388.325,525.151 -388.415,524.561 -388.597,524.044 C -388.778,523.527 -389.023,523.087 -389.333,522.724 C -389.642,522.361 -389.999,522.087 -390.405,521.9 C -390.81,521.713 -391.237,521.62 -391.685,521.62 C -392.048,521.62 -392.408,521.7 -392.765,521.86 C -393.122,522.02 -393.482,522.239 -393.845,522.516 L -393.813,521.156 L -393.813,518.532 L -395.125,518.532 Z M -391.909,522.724 C -391.589,522.724 -391.293,522.796 -391.021,522.94 C -390.749,523.084 -390.514,523.287 -390.317,523.548 C -390.119,523.809 -389.965,524.132 -389.853,524.516 C -389.741,524.9 -389.685,525.332 -389.685,525.812 C -389.685,526.239 -389.722,526.628 -389.797,526.98 C -389.871,527.332 -389.991,527.634 -390.157,527.884 C -390.322,528.135 -390.535,528.33 -390.797,528.468 C -391.058,528.607 -391.37,528.676 -391.733,528.676 C -392.064,528.676 -392.397,528.586 -392.733,528.404 C -393.069,528.223 -393.429,527.962 -393.813,527.62 L -393.813,523.54 C -393.461,523.241 -393.12,523.031 -392.789,522.908 C -392.458,522.785 -392.165,522.724 -391.909,522.724 Z" marker-start="none" marker-end="none"/>
    <path d="M -384.85,521.62 C -385.351,521.62 -385.709,521.769 -385.922,522.068 C -386.135,522.367 -386.242,522.804 -386.242,523.38 L -386.242,533.204 L -384.93,533.204 L -384.93,523.284 C -384.93,523.071 -384.893,522.921 -384.818,522.836 C -384.743,522.751 -384.658,522.708 -384.562,522.708 C -384.519,522.708 -384.479,522.708 -384.442,522.708 C -384.405,522.708 -384.349,522.719 -384.274,522.74 L -384.098,521.748 C -384.183,521.705 -384.285,521.673 -384.402,521.652 C -384.519,521.631 -384.669,521.62 -384.85,521.62 Z" marker-start="none" marker-end="none"/>
    <path d="M -380.372,521.62 C -381.023,521.62 -381.564,521.812 -381.996,522.196 C -382.428,522.58 -382.644,523.124 -382.644,523.828 C -382.644,524.681 -382.265,525.335 -381.508,525.788 C -380.751,526.241 -379.54,526.559 -377.876,526.74 C -377.876,526.985 -377.9,527.225 -377.948,527.46 C -377.996,527.695 -378.079,527.903 -378.196,528.084 C -378.313,528.266 -378.476,528.412 -378.684,528.524 C -378.892,528.636 -379.156,528.692 -379.476,528.692 C -379.924,528.692 -380.345,528.607 -380.74,528.436 C -381.135,528.266 -381.487,528.074 -381.796,527.86 L -382.308,528.772 C -381.945,529.007 -381.503,529.234 -380.98,529.452 C -380.457,529.671 -379.881,529.78 -379.252,529.78 C -378.303,529.78 -377.614,529.49 -377.188,528.908 C -376.761,528.327 -376.548,527.551 -376.548,526.58 L -376.548,521.812 L -377.636,521.812 L -377.748,522.74 L -377.796,522.74 C -378.169,522.431 -378.569,522.167 -378.996,521.948 C -379.423,521.729 -379.881,521.62 -380.372,521.62 Z M -379.988,522.676 C -379.615,522.676 -379.263,522.764 -378.932,522.94 C -378.601,523.116 -378.249,523.375 -377.876,523.716 L -377.876,525.876 C -378.527,525.791 -379.073,525.689 -379.516,525.572 C -379.959,525.455 -380.316,525.316 -380.588,525.156 C -380.86,524.996 -381.057,524.812 -381.18,524.604 C -381.303,524.396 -381.364,524.169 -381.364,523.924 C -381.364,523.476 -381.231,523.156 -380.964,522.964 C -380.697,522.772 -380.372,522.676 -379.988,522.676 Z" marker-start="none" marker-end="none"/>
    <path d="M -373.974,518.468 C -374.155,518.468 -374.321,518.481 -374.47,518.508 C -374.619,518.535 -374.758,518.575 -374.886,518.628 L -374.63,519.668 C -374.545,519.647 -374.449,519.623 -374.342,519.596 C -374.235,519.569 -374.134,519.556 -374.038,519.556 C -373.59,519.556 -373.225,519.713 -372.942,520.028 C -372.659,520.343 -372.438,520.74 -372.278,521.22 L -372.102,521.796 L -375.222,529.588 L -373.862,529.588 L -372.278,525.284 C -372.161,524.943 -372.035,524.583 -371.902,524.204 C -371.769,523.825 -371.643,523.455 -371.526,523.092 L -371.462,523.092 C -371.345,523.444 -371.233,523.812 -371.126,524.196 C -371.019,524.58 -370.913,524.943 -370.806,525.284 L -369.414,529.588 L -368.134,529.588 L -371.062,521.172 C -371.201,520.788 -371.355,520.431 -371.526,520.1 C -371.697,519.769 -371.899,519.484 -372.134,519.244 C -372.369,519.004 -372.635,518.815 -372.934,518.676 C -373.233,518.537 -373.579,518.468 -373.974,518.468 Z" marker-start="none" marker-end="none"/>
   </g>
  </g>
  <path d="M -667.6,510.124 L -667.6,512.124 L -689.287,512.124 C -689.838,512.124 -690.287,512.572 -690.287,513.124 C -690.287,513.675 -689.838,514.124 -689.287,514.124 L -667.6,514.124 L -667.6,516.124 L -660.6,513.124 L -667.6,510.124 Z" stroke-width="0.5" stroke="none" fill="#000000" fill-rule="evenodd" marker-start="none" marker-end="none"/>
  <path d="M -585.609,510.124 L -585.609,512.124 L -607.296,512.124 C -607.847,512.124 -608.296,512.572 -608.296,513.124 C -608.296,513.675 -607.847,514.124 -607.296,514.124 L -585.609,514.124 L -585.609,516.124 L -578.609,513.124 L -585.609,510.124 Z" stroke-width="0.5" stroke="none" fill="#000000" fill-rule="evenodd" marker-start="none" marker-end="none"/>
  <path d="M -460.146,455.072 L -463.103,462.091 L -461.103,462.078 L -460.801,510.972 L -521.455,510.972 C -522.007,510.972 -522.455,511.42 -522.455,511.972 C -522.455,512.523 -522.007,512.972 -521.455,512.972 L -459.794,512.972 C -459.24,512.972 -458.791,512.52 -458.795,511.965 L -459.104,462.065 L -457.103,462.053 L -460.146,455.072 Z" stroke-width="0.5" stroke="none" fill="#000000" fill-rule="evenodd" marker-start="none" marker-end="none"/>
  <g id="Group_10" fill-rule="nonzero" stroke-linejoin="round" stroke-linecap="round" stroke="none" stroke-width="0.25" fill="#0c323b">
   <g id="Group_11">
    <path d="M -472.938,391.327 L -472.938,401.823 L -466.89,401.823 L -466.89,400.703 L -471.61,400.703 L -471.61,397.407 L -467.626,397.407 L -467.626,396.271 L -471.61,396.271 L -471.61,392.463 L -466.73,392.463 L -466.73,391.327 L -472.938,391.327 Z" marker-start="none" marker-end="none"/>
    <path d="M -463.115,391.327 L -465.915,399.103 L -464.555,399.103 L -463.083,394.687 C -462.966,394.303 -462.846,393.919 -462.723,393.535 C -462.6,393.151 -462.48,392.772 -462.363,392.399 L -462.299,392.399 C -462.182,392.772 -462.064,393.151 -461.947,393.535 C -461.83,393.919 -461.712,394.303 -461.595,394.687 L -460.123,399.103 L -458.827,399.103 L -461.579,391.327 L -463.115,391.327 Z" marker-start="none" marker-end="none"/>
    <path d="M -454.237,391.135 C -454.76,391.135 -455.248,391.228 -455.701,391.415 C -456.154,391.602 -456.549,391.868 -456.885,392.215 C -457.221,392.562 -457.485,392.986 -457.677,393.487 C -457.869,393.988 -457.965,394.559 -457.965,395.199 C -457.965,395.839 -457.866,396.412 -457.669,396.919 C -457.472,397.426 -457.21,397.855 -456.885,398.207 C -456.56,398.559 -456.189,398.829 -455.773,399.015 C -455.357,399.202 -454.925,399.295 -454.477,399.295 C -453.986,399.295 -453.546,399.21 -453.157,399.039 C -452.768,398.869 -452.442,398.623 -452.181,398.303 C -451.919,397.983 -451.719,397.599 -451.581,397.151 C -451.442,396.703 -451.373,396.202 -451.373,395.647 C -451.373,395.508 -451.375,395.372 -451.381,395.239 C -451.386,395.106 -451.399,394.991 -451.421,394.895 L -456.669,394.895 C -456.616,394.063 -456.357,393.404 -455.893,392.919 C -455.429,392.434 -454.824,392.191 -454.077,392.191 C -453.704,392.191 -453.36,392.247 -453.045,392.359 C -452.73,392.471 -452.429,392.618 -452.141,392.799 L -451.677,391.935 C -452.018,391.722 -452.397,391.535 -452.813,391.375 C -453.229,391.215 -453.704,391.135 -454.237,391.135 Z M -456.685,395.839 L -452.525,395.839 C -452.525,396.628 -452.693,397.229 -453.029,397.639 C -453.365,398.05 -453.837,398.255 -454.445,398.255 C -454.722,398.255 -454.986,398.202 -455.237,398.095 C -455.488,397.989 -455.714,397.831 -455.917,397.623 C -456.12,397.415 -456.288,397.162 -456.421,396.863 C -456.554,396.564 -456.642,396.223 -456.685,395.839 Z" marker-start="none" marker-end="none"/>
    <path d="M -449.451,391.327 L -449.451,399.103 L -448.363,399.103 L -448.251,397.983 L -448.203,397.983 C -447.83,398.357 -447.438,398.669 -447.027,398.919 C -446.616,399.17 -446.139,399.295 -445.595,399.295 C -444.774,399.295 -444.173,399.039 -443.795,398.527 C -443.416,398.015 -443.227,397.258 -443.227,396.255 L -443.227,391.327 L -444.539,391.327 L -444.539,396.079 C -444.539,396.815 -444.656,397.346 -444.891,397.671 C -445.126,397.997 -445.499,398.159 -446.011,398.159 C -446.416,398.159 -446.774,398.058 -447.083,397.855 C -447.392,397.653 -447.744,397.354 -448.139,396.959 L -448.139,391.327 L -449.451,391.327 Z" marker-start="none" marker-end="none"/>
    <path d="M -438.253,391.135 C -438.669,391.135 -439.018,391.199 -439.301,391.327 C -439.584,391.455 -439.813,391.631 -439.989,391.855 C -440.165,392.079 -440.29,392.351 -440.365,392.671 C -440.44,392.991 -440.477,393.343 -440.477,393.727 L -440.477,398.031 L -441.629,398.031 L -441.629,399.023 L -440.413,399.103 L -440.253,401.279 L -439.149,401.279 L -439.149,399.103 L -437.053,399.103 L -437.053,398.031 L -439.149,398.031 L -439.149,393.711 C -439.149,393.231 -439.061,392.86 -438.885,392.599 C -438.709,392.338 -438.397,392.207 -437.949,392.207 C -437.81,392.207 -437.661,392.228 -437.501,392.271 C -437.341,392.314 -437.197,392.362 -437.069,392.415 L -436.813,391.423 C -437.026,391.348 -437.258,391.282 -437.509,391.223 C -437.76,391.164 -438.008,391.135 -438.253,391.135 Z" marker-start="none" marker-end="none"/>
    <path d="M -429.628,391.135 C -430.033,391.135 -430.404,391.175 -430.74,391.255 C -431.076,391.335 -431.383,391.442 -431.66,391.575 C -431.937,391.708 -432.185,391.86 -432.404,392.031 C -432.623,392.202 -432.817,392.383 -432.988,392.575 L -432.316,393.439 C -432.007,393.119 -431.647,392.836 -431.236,392.591 C -430.825,392.346 -430.316,392.223 -429.708,392.223 C -429.089,392.223 -428.583,392.391 -428.188,392.727 C -427.793,393.063 -427.596,393.519 -427.596,394.095 C -427.596,394.394 -427.652,394.668 -427.764,394.919 C -427.876,395.17 -428.06,395.386 -428.316,395.567 C -428.572,395.748 -428.908,395.887 -429.324,395.983 C -429.74,396.079 -430.252,396.127 -430.86,396.127 L -430.86,397.135 C -430.316,397.135 -429.86,397.183 -429.492,397.279 C -429.124,397.375 -428.825,397.509 -428.596,397.679 C -428.367,397.85 -428.204,398.053 -428.108,398.287 C -428.012,398.522 -427.964,398.773 -427.964,399.039 C -427.964,399.541 -428.121,399.935 -428.436,400.223 C -428.751,400.511 -429.18,400.655 -429.724,400.655 C -430.151,400.655 -430.543,400.559 -430.9,400.367 C -431.257,400.175 -431.591,399.925 -431.9,399.615 L -432.604,400.447 C -432.209,400.821 -431.775,401.127 -431.3,401.367 C -430.825,401.607 -430.284,401.727 -429.676,401.727 C -429.228,401.727 -428.817,401.669 -428.444,401.551 C -428.071,401.434 -427.748,401.266 -427.476,401.047 C -427.204,400.829 -426.993,400.559 -426.844,400.239 C -426.694,399.919 -426.62,399.551 -426.62,399.135 C -426.62,398.517 -426.79,398.01 -427.132,397.615 C -427.473,397.221 -427.921,396.916 -428.476,396.703 L -428.476,396.639 C -428.167,396.564 -427.879,396.455 -427.612,396.311 C -427.345,396.167 -427.11,395.986 -426.908,395.767 C -426.705,395.548 -426.548,395.295 -426.436,395.007 C -426.324,394.719 -426.268,394.399 -426.268,394.047 C -426.268,393.599 -426.356,393.194 -426.532,392.831 C -426.708,392.468 -426.948,392.162 -427.252,391.911 C -427.556,391.66 -427.911,391.468 -428.316,391.335 C -428.721,391.202 -429.159,391.135 -429.628,391.135 Z" marker-start="none" marker-end="none"/>
   </g>
  </g>
  <g id="Group_12" fill-rule="nonzero" stroke-linejoin="round" stroke-linecap="round" stroke="none" stroke-width="0.25" fill="#0c323b">
   <g id="Group_13">
    <path d="M -473.034,370.497 L -473.034,380.993 L -466.986,380.993 L -466.986,379.873 L -471.706,379.873 L -471.706,376.577 L -467.722,376.577 L -467.722,375.441 L -471.706,375.441 L -471.706,371.633 L -466.826,371.633 L -466.826,370.497 L -473.034,370.497 Z" marker-start="none" marker-end="none"/>
    <path d="M -463.211,370.497 L -466.011,378.273 L -464.651,378.273 L -463.179,373.857 C -463.062,373.473 -462.942,373.089 -462.819,372.705 C -462.696,372.321 -462.576,371.942 -462.459,371.569 L -462.395,371.569 C -462.278,371.942 -462.16,372.321 -462.043,372.705 C -461.926,373.089 -461.808,373.473 -461.691,373.857 L -460.219,378.273 L -458.923,378.273 L -461.675,370.497 L -463.211,370.497 Z" marker-start="none" marker-end="none"/>
    <path d="M -454.333,370.305 C -454.856,370.305 -455.344,370.398 -455.797,370.585 C -456.25,370.772 -456.645,371.038 -456.981,371.385 C -457.317,371.732 -457.581,372.156 -457.773,372.657 C -457.965,373.158 -458.061,373.729 -458.061,374.369 C -458.061,375.009 -457.962,375.582 -457.765,376.089 C -457.568,376.596 -457.306,377.025 -456.981,377.377 C -456.656,377.729 -456.285,377.999 -455.869,378.185 C -455.453,378.372 -455.021,378.465 -454.573,378.465 C -454.082,378.465 -453.642,378.38 -453.253,378.209 C -452.863,378.039 -452.538,377.793 -452.277,377.473 C -452.015,377.153 -451.815,376.769 -451.677,376.321 C -451.538,375.873 -451.469,375.372 -451.469,374.817 C -451.469,374.678 -451.471,374.542 -451.477,374.409 C -451.482,374.276 -451.495,374.161 -451.517,374.065 L -456.765,374.065 C -456.712,373.233 -456.453,372.574 -455.989,372.089 C -455.525,371.604 -454.92,371.361 -454.173,371.361 C -453.8,371.361 -453.456,371.417 -453.141,371.529 C -452.826,371.641 -452.525,371.788 -452.237,371.969 L -451.773,371.105 C -452.114,370.892 -452.493,370.705 -452.909,370.545 C -453.325,370.385 -453.8,370.305 -454.333,370.305 Z M -456.781,375.009 L -452.621,375.009 C -452.621,375.798 -452.789,376.399 -453.125,376.809 C -453.461,377.22 -453.933,377.425 -454.541,377.425 C -454.818,377.425 -455.082,377.372 -455.333,377.265 C -455.584,377.159 -455.81,377.001 -456.013,376.793 C -456.216,376.585 -456.384,376.332 -456.517,376.033 C -456.65,375.734 -456.738,375.393 -456.781,375.009 Z" marker-start="none" marker-end="none"/>
    <path d="M -449.547,370.497 L -449.547,378.273 L -448.459,378.273 L -448.347,377.153 L -448.299,377.153 C -447.926,377.527 -447.534,377.839 -447.123,378.089 C -446.712,378.34 -446.235,378.465 -445.691,378.465 C -444.869,378.465 -444.269,378.209 -443.891,377.697 C -443.512,377.185 -443.323,376.428 -443.323,375.425 L -443.323,370.497 L -444.635,370.497 L -444.635,375.249 C -444.635,375.985 -444.752,376.516 -444.987,376.841 C -445.221,377.167 -445.595,377.329 -446.107,377.329 C -446.512,377.329 -446.87,377.228 -447.179,377.025 C -447.488,376.823 -447.84,376.524 -448.235,376.129 L -448.235,370.497 L -449.547,370.497 Z" marker-start="none" marker-end="none"/>
    <path d="M -438.349,370.305 C -438.765,370.305 -439.114,370.369 -439.397,370.497 C -439.68,370.625 -439.909,370.801 -440.085,371.025 C -440.261,371.249 -440.386,371.521 -440.461,371.841 C -440.536,372.161 -440.573,372.513 -440.573,372.897 L -440.573,377.201 L -441.725,377.201 L -441.725,378.193 L -440.509,378.273 L -440.349,380.449 L -439.245,380.449 L -439.245,378.273 L -437.149,378.273 L -437.149,377.201 L -439.245,377.201 L -439.245,372.881 C -439.245,372.401 -439.157,372.03 -438.981,371.769 C -438.805,371.508 -438.493,371.377 -438.045,371.377 C -437.906,371.377 -437.757,371.398 -437.597,371.441 C -437.437,371.484 -437.293,371.532 -437.165,371.585 L -436.909,370.593 C -437.122,370.518 -437.354,370.452 -437.605,370.393 C -437.856,370.334 -438.104,370.305 -438.349,370.305 Z" marker-start="none" marker-end="none"/>
    <path d="M -432.86,370.497 L -432.86,371.281 C -432.092,372.049 -431.409,372.742 -430.812,373.361 C -430.215,373.98 -429.713,374.553 -429.308,375.081 C -428.903,375.609 -428.593,376.095 -428.38,376.537 C -428.167,376.98 -428.06,377.409 -428.06,377.825 C -428.06,378.412 -428.22,378.892 -428.54,379.265 C -428.86,379.639 -429.345,379.825 -429.996,379.825 C -430.423,379.825 -430.817,379.705 -431.18,379.465 C -431.543,379.225 -431.873,378.935 -432.172,378.593 L -432.924,379.345 C -432.497,379.815 -432.044,380.191 -431.564,380.473 C -431.084,380.756 -430.508,380.897 -429.836,380.897 C -428.887,380.897 -428.14,380.623 -427.596,380.073 C -427.052,379.524 -426.78,378.796 -426.78,377.889 C -426.78,377.409 -426.884,376.927 -427.092,376.441 C -427.3,375.956 -427.588,375.454 -427.956,374.937 C -428.324,374.42 -428.761,373.881 -429.268,373.321 C -429.775,372.761 -430.332,372.166 -430.94,371.537 C -430.663,371.558 -430.375,371.58 -430.076,371.601 C -429.777,371.622 -429.495,371.633 -429.228,371.633 L -426.268,371.633 L -426.268,370.497 L -432.86,370.497 Z" marker-start="none" marker-end="none"/>
   </g>
  </g>
  <g id="Group_14" fill-rule="nonzero" stroke-linejoin="round" stroke-linecap="round" stroke="none" stroke-width="0.25" fill="#0c323b">
   <g id="Group_15">
    <path d="M -473.034,349.667 L -473.034,360.163 L -466.986,360.163 L -466.986,359.043 L -471.706,359.043 L -471.706,355.747 L -467.722,355.747 L -467.722,354.611 L -471.706,354.611 L -471.706,350.803 L -466.826,350.803 L -466.826,349.667 L -473.034,349.667 Z" marker-start="none" marker-end="none"/>
    <path d="M -463.211,349.667 L -466.011,357.443 L -464.651,357.443 L -463.179,353.027 C -463.062,352.643 -462.942,352.259 -462.819,351.875 C -462.696,351.491 -462.576,351.112 -462.459,350.739 L -462.395,350.739 C -462.278,351.112 -462.16,351.491 -462.043,351.875 C -461.926,352.259 -461.808,352.643 -461.691,353.027 L -460.219,357.443 L -458.923,357.443 L -461.675,349.667 L -463.211,349.667 Z" marker-start="none" marker-end="none"/>
    <path d="M -454.333,349.475 C -454.856,349.475 -455.344,349.568 -455.797,349.755 C -456.25,349.942 -456.645,350.208 -456.981,350.555 C -457.317,350.902 -457.581,351.326 -457.773,351.827 C -457.965,352.328 -458.061,352.899 -458.061,353.539 C -458.061,354.179 -457.962,354.752 -457.765,355.259 C -457.568,355.766 -457.306,356.195 -456.981,356.547 C -456.656,356.899 -456.285,357.169 -455.869,357.355 C -455.453,357.542 -455.021,357.635 -454.573,357.635 C -454.082,357.635 -453.642,357.55 -453.253,357.379 C -452.863,357.209 -452.538,356.963 -452.277,356.643 C -452.015,356.323 -451.815,355.939 -451.677,355.491 C -451.538,355.043 -451.469,354.542 -451.469,353.987 C -451.469,353.848 -451.471,353.712 -451.477,353.579 C -451.482,353.446 -451.495,353.331 -451.517,353.235 L -456.765,353.235 C -456.712,352.403 -456.453,351.744 -455.989,351.259 C -455.525,350.774 -454.92,350.531 -454.173,350.531 C -453.8,350.531 -453.456,350.587 -453.141,350.699 C -452.826,350.811 -452.525,350.958 -452.237,351.139 L -451.773,350.275 C -452.114,350.062 -452.493,349.875 -452.909,349.715 C -453.325,349.555 -453.8,349.475 -454.333,349.475 Z M -456.781,354.179 L -452.621,354.179 C -452.621,354.968 -452.789,355.569 -453.125,355.979 C -453.461,356.39 -453.933,356.595 -454.541,356.595 C -454.818,356.595 -455.082,356.542 -455.333,356.435 C -455.584,356.329 -455.81,356.171 -456.013,355.963 C -456.216,355.755 -456.384,355.502 -456.517,355.203 C -456.65,354.904 -456.738,354.563 -456.781,354.179 Z" marker-start="none" marker-end="none"/>
    <path d="M -449.547,349.667 L -449.547,357.443 L -448.459,357.443 L -448.347,356.323 L -448.299,356.323 C -447.926,356.697 -447.534,357.009 -447.123,357.259 C -446.712,357.51 -446.235,357.635 -445.691,357.635 C -444.869,357.635 -444.269,357.379 -443.891,356.867 C -443.512,356.355 -443.323,355.598 -443.323,354.595 L -443.323,349.667 L -444.635,349.667 L -444.635,354.419 C -444.635,355.155 -444.752,355.686 -444.987,356.011 C -445.221,356.337 -445.595,356.499 -446.107,356.499 C -446.512,356.499 -446.87,356.398 -447.179,356.195 C -447.488,355.993 -447.84,355.694 -448.235,355.299 L -448.235,349.667 L -449.547,349.667 Z" marker-start="none" marker-end="none"/>
    <path d="M -438.349,349.475 C -438.765,349.475 -439.114,349.539 -439.397,349.667 C -439.68,349.795 -439.909,349.971 -440.085,350.195 C -440.261,350.419 -440.386,350.691 -440.461,351.011 C -440.536,351.331 -440.573,351.683 -440.573,352.067 L -440.573,356.371 L -441.725,356.371 L -441.725,357.363 L -440.509,357.443 L -440.349,359.619 L -439.245,359.619 L -439.245,357.443 L -437.149,357.443 L -437.149,356.371 L -439.245,356.371 L -439.245,352.051 C -439.245,351.571 -439.157,351.2 -438.981,350.939 C -438.805,350.678 -438.493,350.547 -438.045,350.547 C -437.906,350.547 -437.757,350.568 -437.597,350.611 C -437.437,350.654 -437.293,350.702 -437.165,350.755 L -436.909,349.763 C -437.122,349.688 -437.354,349.622 -437.605,349.563 C -437.856,349.504 -438.104,349.475 -438.349,349.475 Z" marker-start="none" marker-end="none"/>
    <path d="M -432.236,349.667 L -432.236,350.755 L -429.9,350.755 L -429.9,358.275 L -431.756,358.275 L -431.756,359.123 C -431.287,359.209 -430.879,359.313 -430.532,359.435 C -430.185,359.558 -429.873,359.705 -429.596,359.875 L -428.588,359.875 L -428.588,350.755 L -426.476,350.755 L -426.476,349.667 L -432.236,349.667 Z" marker-start="none" marker-end="none"/>
   </g>
  </g>
  <path d="M -452.99,337.822 C -453.013,338.374 -452.584,338.84 -452.033,338.864 C -451.481,338.887 -451.015,338.458 -450.991,337.907 C -450.595,328.534 -439.378,321.715 -433.775,321.881 C -416.721,322.386 -409.817,339.778 -407.81,364.718 C -406.071,386.34 -408.086,412.838 -409.741,436.629 L -410.382,446.14 L -412.379,446.012 L -409.833,453.19 L -406.391,446.396 L -408.386,446.268 L -407.762,437.127 C -404.251,387.657 -398.387,320.927 -433.716,319.882 C -440.194,319.69 -452.537,327.107 -452.99,337.822 Z" stroke-width="0.5" stroke="none" fill="#ffffff" fill-rule="evenodd" marker-start="none" marker-end="none"/>
  <g id="Group_16" fill-rule="nonzero" stroke-linejoin="round" stroke-linecap="round" stroke="none" stroke-width="0.25" fill="#000000">
   <g id="Group_17">
    <path d="M -823.542,514.913 L -823.542,525.377 L -817.238,525.377 L -817.238,523.809 L -821.686,523.809 L -821.686,521.137 L -817.926,521.137 L -817.926,519.569 L -821.686,519.569 L -821.686,516.481 L -817.078,516.481 L -817.078,514.913 L -823.542,514.913 Z" marker-start="none" marker-end="none"/>
    <path d="M -815.093,514.913 L -815.093,522.769 L -813.573,522.769 L -813.445,521.713 L -813.381,521.713 C -813.029,522.055 -812.648,522.348 -812.237,522.593 C -811.826,522.839 -811.349,522.961 -810.805,522.961 C -809.962,522.961 -809.349,522.692 -808.965,522.153 C -808.581,521.615 -808.389,520.844 -808.389,519.841 L -808.389,514.913 L -810.229,514.913 L -810.229,519.601 C -810.229,520.252 -810.325,520.711 -810.517,520.977 C -810.709,521.244 -811.024,521.377 -811.461,521.377 C -811.802,521.377 -812.104,521.295 -812.365,521.129 C -812.626,520.964 -812.922,520.721 -813.253,520.401 L -813.253,514.913 L -815.093,514.913 Z" marker-start="none" marker-end="none"/>
    <path d="M -803.364,514.721 C -803.823,514.721 -804.209,514.79 -804.524,514.929 C -804.839,515.068 -805.095,515.262 -805.292,515.513 C -805.489,515.764 -805.633,516.062 -805.724,516.409 C -805.815,516.756 -805.86,517.142 -805.86,517.569 L -805.86,521.313 L -806.98,521.313 L -806.98,522.689 L -805.764,522.769 L -805.54,524.913 L -804.004,524.913 L -804.004,522.769 L -802.004,522.769 L -802.004,521.313 L -804.004,521.313 L -804.004,517.569 C -804.004,516.652 -803.636,516.193 -802.9,516.193 C -802.761,516.193 -802.62,516.209 -802.476,516.241 C -802.332,516.273 -802.201,516.316 -802.084,516.369 L -801.764,515.009 C -801.977,514.934 -802.22,514.868 -802.492,514.809 C -802.764,514.75 -803.055,514.721 -803.364,514.721 Z" marker-start="none" marker-end="none"/>
    <path d="M -800.359,514.913 L -800.359,522.769 L -798.519,522.769 L -798.519,514.913 L -800.359,514.913 Z M -799.431,524.145 C -799.762,524.145 -800.034,524.241 -800.247,524.433 C -800.46,524.625 -800.567,524.876 -800.567,525.185 C -800.567,525.495 -800.46,525.748 -800.247,525.945 C -800.034,526.143 -799.762,526.241 -799.431,526.241 C -799.1,526.241 -798.828,526.143 -798.615,525.945 C -798.402,525.748 -798.295,525.495 -798.295,525.185 C -798.295,524.876 -798.402,524.625 -798.615,524.433 C -798.828,524.241 -799.1,524.145 -799.431,524.145 Z" marker-start="none" marker-end="none"/>
    <path d="M -793.396,514.721 C -793.855,514.721 -794.241,514.79 -794.556,514.929 C -794.871,515.068 -795.127,515.262 -795.324,515.513 C -795.521,515.764 -795.665,516.062 -795.756,516.409 C -795.847,516.756 -795.892,517.142 -795.892,517.569 L -795.892,521.313 L -797.012,521.313 L -797.012,522.689 L -795.796,522.769 L -795.572,524.913 L -794.036,524.913 L -794.036,522.769 L -792.036,522.769 L -792.036,521.313 L -794.036,521.313 L -794.036,517.569 C -794.036,516.652 -793.668,516.193 -792.932,516.193 C -792.793,516.193 -792.652,516.209 -792.508,516.241 C -792.364,516.273 -792.233,516.316 -792.116,516.369 L -791.796,515.009 C -792.009,514.934 -792.252,514.868 -792.524,514.809 C -792.796,514.75 -793.087,514.721 -793.396,514.721 Z" marker-start="none" marker-end="none"/>
    <path d="M -789.863,511.681 C -790.076,511.681 -790.263,511.694 -790.423,511.721 C -790.583,511.748 -790.738,511.788 -790.887,511.841 L -790.551,513.281 C -790.476,513.26 -790.388,513.236 -790.287,513.209 C -790.186,513.182 -790.087,513.169 -789.991,513.169 C -789.575,513.169 -789.242,513.294 -788.991,513.545 C -788.74,513.796 -788.551,514.118 -788.423,514.513 L -788.279,515.009 L -791.367,522.769 L -789.495,522.769 L -788.135,518.913 C -788.018,518.572 -787.903,518.212 -787.791,517.833 C -787.679,517.454 -787.564,517.078 -787.447,516.705 L -787.383,516.705 C -787.287,517.068 -787.188,517.438 -787.087,517.817 C -786.986,518.196 -786.887,518.561 -786.791,518.913 L -785.607,522.769 L -783.831,522.769 L -786.679,514.561 C -786.839,514.113 -787.015,513.713 -787.207,513.361 C -787.399,513.009 -787.62,512.708 -787.871,512.457 C -788.122,512.206 -788.41,512.014 -788.735,511.881 C -789.06,511.748 -789.436,511.681 -789.863,511.681 Z" marker-start="none" marker-end="none"/>
   </g>
   <g id="Group_18">
    <path d="M -805.247,502.384 L -805.615,501.104 L -802.943,501.104 L -803.311,502.384 C -803.482,502.939 -803.644,503.51 -803.799,504.096 C -803.954,504.683 -804.106,505.264 -804.255,505.84 L -804.319,505.84 C -804.468,505.254 -804.618,504.67 -804.767,504.088 C -804.916,503.507 -805.076,502.939 -805.247,502.384 Z M -808.751,496.816 L -805.343,507.28 L -803.167,507.28 L -799.759,496.816 L -801.711,496.816 L -802.527,499.648 L -806.047,499.648 L -806.863,496.816 L -808.751,496.816 Z" marker-start="none" marker-end="none"/>
   </g>
  </g>
  <g id="Group_19" fill-rule="nonzero" stroke-linejoin="round" stroke-linecap="round" stroke="none" stroke-width="0.25" fill="#ffa94b">
   <g id="Group_20">
    <path d="M -76.148,516.637 L -76.148,527.101 L -69.844,527.101 L -69.844,525.533 L -74.292,525.533 L -74.292,522.861 L -70.532,522.861 L -70.532,521.293 L -74.292,521.293 L -74.292,518.205 L -69.684,518.205 L -69.684,516.637 L -76.148,516.637 Z" marker-start="none" marker-end="none"/>
    <path d="M -67.699,516.637 L -67.699,524.493 L -66.179,524.493 L -66.051,523.437 L -65.987,523.437 C -65.635,523.779 -65.254,524.072 -64.843,524.317 C -64.432,524.563 -63.955,524.685 -63.411,524.685 C -62.568,524.685 -61.955,524.416 -61.571,523.877 C -61.187,523.339 -60.995,522.568 -60.995,521.565 L -60.995,516.637 L -62.835,516.637 L -62.835,521.325 C -62.835,521.976 -62.931,522.435 -63.123,522.701 C -63.315,522.968 -63.63,523.101 -64.067,523.101 C -64.408,523.101 -64.71,523.019 -64.971,522.853 C -65.232,522.688 -65.528,522.445 -65.859,522.125 L -65.859,516.637 L -67.699,516.637 Z" marker-start="none" marker-end="none"/>
    <path d="M -55.97,516.445 C -56.429,516.445 -56.815,516.514 -57.13,516.653 C -57.445,516.792 -57.701,516.986 -57.898,517.237 C -58.095,517.488 -58.239,517.786 -58.33,518.133 C -58.421,518.48 -58.466,518.866 -58.466,519.293 L -58.466,523.037 L -59.586,523.037 L -59.586,524.413 L -58.37,524.493 L -58.146,526.637 L -56.61,526.637 L -56.61,524.493 L -54.61,524.493 L -54.61,523.037 L -56.61,523.037 L -56.61,519.293 C -56.61,518.376 -56.242,517.917 -55.506,517.917 C -55.367,517.917 -55.226,517.933 -55.082,517.965 C -54.938,517.997 -54.807,518.04 -54.69,518.093 L -54.37,516.733 C -54.583,516.658 -54.826,516.592 -55.098,516.533 C -55.37,516.474 -55.661,516.445 -55.97,516.445 Z" marker-start="none" marker-end="none"/>
    <path d="M -52.965,516.637 L -52.965,524.493 L -51.125,524.493 L -51.125,516.637 L -52.965,516.637 Z M -52.037,525.869 C -52.368,525.869 -52.64,525.965 -52.853,526.157 C -53.066,526.349 -53.173,526.6 -53.173,526.909 C -53.173,527.219 -53.066,527.472 -52.853,527.669 C -52.64,527.867 -52.368,527.965 -52.037,527.965 C -51.706,527.965 -51.434,527.867 -51.221,527.669 C -51.008,527.472 -50.901,527.219 -50.901,526.909 C -50.901,526.6 -51.008,526.349 -51.221,526.157 C -51.434,525.965 -51.706,525.869 -52.037,525.869 Z" marker-start="none" marker-end="none"/>
    <path d="M -46.002,516.445 C -46.461,516.445 -46.847,516.514 -47.162,516.653 C -47.477,516.792 -47.733,516.986 -47.93,517.237 C -48.127,517.488 -48.271,517.786 -48.362,518.133 C -48.453,518.48 -48.498,518.866 -48.498,519.293 L -48.498,523.037 L -49.618,523.037 L -49.618,524.413 L -48.402,524.493 L -48.178,526.637 L -46.642,526.637 L -46.642,524.493 L -44.642,524.493 L -44.642,523.037 L -46.642,523.037 L -46.642,519.293 C -46.642,518.376 -46.274,517.917 -45.538,517.917 C -45.399,517.917 -45.258,517.933 -45.114,517.965 C -44.97,517.997 -44.839,518.04 -44.722,518.093 L -44.402,516.733 C -44.615,516.658 -44.858,516.592 -45.13,516.533 C -45.402,516.474 -45.693,516.445 -46.002,516.445 Z" marker-start="none" marker-end="none"/>
    <path d="M -42.469,513.405 C -42.682,513.405 -42.869,513.418 -43.029,513.445 C -43.189,513.472 -43.344,513.512 -43.493,513.565 L -43.157,515.005 C -43.082,514.984 -42.994,514.96 -42.893,514.933 C -42.792,514.906 -42.693,514.893 -42.597,514.893 C -42.181,514.893 -41.848,515.018 -41.597,515.269 C -41.346,515.52 -41.157,515.842 -41.029,516.237 L -40.885,516.733 L -43.973,524.493 L -42.101,524.493 L -40.741,520.637 C -40.624,520.296 -40.509,519.936 -40.397,519.557 C -40.285,519.178 -40.17,518.802 -40.053,518.429 L -39.989,518.429 C -39.893,518.792 -39.794,519.162 -39.693,519.541 C -39.592,519.92 -39.493,520.285 -39.397,520.637 L -38.213,524.493 L -36.437,524.493 L -39.285,516.285 C -39.445,515.837 -39.621,515.437 -39.813,515.085 C -40.005,514.733 -40.226,514.432 -40.477,514.181 C -40.728,513.93 -41.016,513.738 -41.341,513.605 C -41.666,513.472 -42.042,513.405 -42.469,513.405 Z" marker-start="none" marker-end="none"/>
   </g>
   <g id="Group_21">
    <path d="M -60.309,498.54 L -60.309,509.004 L -56.965,509.004 C -56.421,509.004 -55.922,508.959 -55.469,508.868 C -55.015,508.778 -54.621,508.634 -54.285,508.436 C -53.949,508.239 -53.687,507.975 -53.501,507.644 C -53.314,507.314 -53.221,506.908 -53.221,506.428 C -53.221,505.927 -53.349,505.463 -53.605,505.036 C -53.861,504.61 -54.218,504.316 -54.677,504.156 L -54.677,504.092 C -54.101,503.964 -53.623,503.695 -53.245,503.284 C -52.866,502.873 -52.677,502.316 -52.677,501.612 C -52.677,501.089 -52.778,500.636 -52.981,500.252 C -53.183,499.868 -53.463,499.548 -53.821,499.292 C -54.178,499.036 -54.602,498.847 -55.093,498.724 C -55.583,498.601 -56.117,498.54 -56.693,498.54 L -60.309,498.54 Z M -58.453,504.684 L -57.125,504.684 C -56.389,504.684 -55.858,504.818 -55.533,505.084 C -55.207,505.351 -55.045,505.708 -55.045,506.156 C -55.045,506.668 -55.215,507.031 -55.557,507.244 C -55.898,507.458 -56.41,507.564 -57.093,507.564 L -58.453,507.564 L -58.453,504.684 Z M -58.453,499.98 L -56.885,499.98 C -56.117,499.98 -55.525,500.121 -55.109,500.404 C -54.693,500.687 -54.485,501.121 -54.485,501.708 C -54.485,502.263 -54.687,502.665 -55.093,502.916 C -55.498,503.167 -56.095,503.292 -56.885,503.292 L -58.453,503.292 L -58.453,499.98 Z" marker-start="none" marker-end="none"/>
   </g>
  </g>
  <path d="M -411.566,461.766 L -411.878,512.166 C -411.882,512.721 -411.433,513.173 -410.878,513.173 L -349.717,513.173 L -349.717,515.173 L -342.717,512.173 L -349.717,509.173 L -349.717,511.173 L -409.872,511.173 L -409.567,461.779 C -409.563,461.227 -410.008,460.776 -410.56,460.773 C -411.112,460.769 -411.563,461.214 -411.566,461.766 Z" stroke-width="0.5" stroke="none" fill="#000000" fill-rule="evenodd" marker-start="none" marker-end="none"/>
  <g id="Group_22" fill-rule="nonzero" stroke-linejoin="round" stroke-linecap="round" stroke="none" stroke-width="0.25" fill="#0c323b">
   <g id="Group_23">
    <path d="M -173.335,507.972 L -173.335,518.468 L -167.287,518.468 L -167.287,517.348 L -172.007,517.348 L -172.007,514.052 L -168.023,514.052 L -168.023,512.916 L -172.007,512.916 L -172.007,509.108 L -167.127,509.108 L -167.127,507.972 L -173.335,507.972 Z" marker-start="none" marker-end="none"/>
    <path d="M -163.512,507.972 L -166.312,515.748 L -164.952,515.748 L -163.48,511.332 C -163.363,510.948 -163.243,510.564 -163.12,510.18 C -162.997,509.796 -162.877,509.417 -162.76,509.044 L -162.696,509.044 C -162.579,509.417 -162.461,509.796 -162.344,510.18 C -162.227,510.564 -162.109,510.948 -161.992,511.332 L -160.52,515.748 L -159.224,515.748 L -161.976,507.972 L -163.512,507.972 Z" marker-start="none" marker-end="none"/>
    <path d="M -154.634,507.78 C -155.157,507.78 -155.645,507.873 -156.098,508.06 C -156.551,508.247 -156.946,508.513 -157.282,508.86 C -157.618,509.207 -157.882,509.631 -158.074,510.132 C -158.266,510.633 -158.362,511.204 -158.362,511.844 C -158.362,512.484 -158.263,513.057 -158.066,513.564 C -157.869,514.071 -157.607,514.5 -157.282,514.852 C -156.957,515.204 -156.586,515.474 -156.17,515.66 C -155.754,515.847 -155.322,515.94 -154.874,515.94 C -154.383,515.94 -153.943,515.855 -153.554,515.684 C -153.164,515.514 -152.839,515.268 -152.578,514.948 C -152.316,514.628 -152.116,514.244 -151.978,513.796 C -151.839,513.348 -151.77,512.847 -151.77,512.292 C -151.77,512.153 -151.772,512.017 -151.778,511.884 C -151.783,511.751 -151.796,511.636 -151.818,511.54 L -157.066,511.54 C -157.013,510.708 -156.754,510.049 -156.29,509.564 C -155.826,509.079 -155.221,508.836 -154.474,508.836 C -154.101,508.836 -153.757,508.892 -153.442,509.004 C -153.127,509.116 -152.826,509.263 -152.538,509.444 L -152.074,508.58 C -152.415,508.367 -152.794,508.18 -153.21,508.02 C -153.626,507.86 -154.101,507.78 -154.634,507.78 Z M -157.082,512.484 L -152.922,512.484 C -152.922,513.273 -153.09,513.874 -153.426,514.284 C -153.762,514.695 -154.234,514.9 -154.842,514.9 C -155.119,514.9 -155.383,514.847 -155.634,514.74 C -155.885,514.634 -156.111,514.476 -156.314,514.268 C -156.517,514.06 -156.685,513.807 -156.818,513.508 C -156.951,513.209 -157.039,512.868 -157.082,512.484 Z" marker-start="none" marker-end="none"/>
    <path d="M -149.848,507.972 L -149.848,515.748 L -148.76,515.748 L -148.648,514.628 L -148.6,514.628 C -148.227,515.002 -147.835,515.314 -147.424,515.564 C -147.013,515.815 -146.536,515.94 -145.992,515.94 C -145.17,515.94 -144.57,515.684 -144.192,515.172 C -143.813,514.66 -143.624,513.903 -143.624,512.9 L -143.624,507.972 L -144.936,507.972 L -144.936,512.724 C -144.936,513.46 -145.053,513.991 -145.288,514.316 C -145.522,514.642 -145.896,514.804 -146.408,514.804 C -146.813,514.804 -147.171,514.703 -147.48,514.5 C -147.789,514.298 -148.141,513.999 -148.536,513.604 L -148.536,507.972 L -149.848,507.972 Z" marker-start="none" marker-end="none"/>
    <path d="M -138.65,507.78 C -139.066,507.78 -139.415,507.844 -139.698,507.972 C -139.981,508.1 -140.21,508.276 -140.386,508.5 C -140.562,508.724 -140.687,508.996 -140.762,509.316 C -140.837,509.636 -140.874,509.988 -140.874,510.372 L -140.874,514.676 L -142.026,514.676 L -142.026,515.668 L -140.81,515.748 L -140.65,517.924 L -139.546,517.924 L -139.546,515.748 L -137.45,515.748 L -137.45,514.676 L -139.546,514.676 L -139.546,510.356 C -139.546,509.876 -139.458,509.505 -139.282,509.244 C -139.106,508.983 -138.794,508.852 -138.346,508.852 C -138.207,508.852 -138.058,508.873 -137.898,508.916 C -137.738,508.959 -137.594,509.007 -137.466,509.06 L -137.21,508.068 C -137.423,507.993 -137.655,507.927 -137.906,507.868 C -138.157,507.809 -138.405,507.78 -138.65,507.78 Z" marker-start="none" marker-end="none"/>
    <path d="M -132.537,507.972 L -132.537,509.06 L -130.201,509.06 L -130.201,516.58 L -132.057,516.58 L -132.057,517.428 C -131.588,517.514 -131.18,517.618 -130.833,517.74 C -130.486,517.863 -130.174,518.01 -129.897,518.18 L -128.889,518.18 L -128.889,509.06 L -126.777,509.06 L -126.777,507.972 L -132.537,507.972 Z" marker-start="none" marker-end="none"/>
   </g>
  </g>
  <g id="Group_24" fill-rule="nonzero" stroke-linejoin="round" stroke-linecap="round" stroke="none" stroke-width="0.25" fill="#0c323b">
   <g id="Group_25">
    <path d="M -254.335,507.972 L -254.335,518.468 L -248.287,518.468 L -248.287,517.348 L -253.007,517.348 L -253.007,514.052 L -249.023,514.052 L -249.023,512.916 L -253.007,512.916 L -253.007,509.108 L -248.127,509.108 L -248.127,507.972 L -254.335,507.972 Z" marker-start="none" marker-end="none"/>
    <path d="M -244.512,507.972 L -247.312,515.748 L -245.952,515.748 L -244.48,511.332 C -244.363,510.948 -244.243,510.564 -244.12,510.18 C -243.997,509.796 -243.877,509.417 -243.76,509.044 L -243.696,509.044 C -243.579,509.417 -243.461,509.796 -243.344,510.18 C -243.227,510.564 -243.109,510.948 -242.992,511.332 L -241.52,515.748 L -240.224,515.748 L -242.976,507.972 L -244.512,507.972 Z" marker-start="none" marker-end="none"/>
    <path d="M -235.634,507.78 C -236.157,507.78 -236.645,507.873 -237.098,508.06 C -237.551,508.247 -237.946,508.513 -238.282,508.86 C -238.618,509.207 -238.882,509.631 -239.074,510.132 C -239.266,510.633 -239.362,511.204 -239.362,511.844 C -239.362,512.484 -239.263,513.057 -239.066,513.564 C -238.869,514.071 -238.607,514.5 -238.282,514.852 C -237.957,515.204 -237.586,515.474 -237.17,515.66 C -236.754,515.847 -236.322,515.94 -235.874,515.94 C -235.383,515.94 -234.943,515.855 -234.554,515.684 C -234.164,515.514 -233.839,515.268 -233.578,514.948 C -233.316,514.628 -233.116,514.244 -232.978,513.796 C -232.839,513.348 -232.77,512.847 -232.77,512.292 C -232.77,512.153 -232.772,512.017 -232.778,511.884 C -232.783,511.751 -232.796,511.636 -232.818,511.54 L -238.066,511.54 C -238.013,510.708 -237.754,510.049 -237.29,509.564 C -236.826,509.079 -236.221,508.836 -235.474,508.836 C -235.101,508.836 -234.757,508.892 -234.442,509.004 C -234.127,509.116 -233.826,509.263 -233.538,509.444 L -233.074,508.58 C -233.415,508.367 -233.794,508.18 -234.21,508.02 C -234.626,507.86 -235.101,507.78 -235.634,507.78 Z M -238.082,512.484 L -233.922,512.484 C -233.922,513.273 -234.09,513.874 -234.426,514.284 C -234.762,514.695 -235.234,514.9 -235.842,514.9 C -236.119,514.9 -236.383,514.847 -236.634,514.74 C -236.885,514.634 -237.111,514.476 -237.314,514.268 C -237.517,514.06 -237.685,513.807 -237.818,513.508 C -237.951,513.209 -238.039,512.868 -238.082,512.484 Z" marker-start="none" marker-end="none"/>
    <path d="M -230.848,507.972 L -230.848,515.748 L -229.76,515.748 L -229.648,514.628 L -229.6,514.628 C -229.227,515.002 -228.835,515.314 -228.424,515.564 C -228.013,515.815 -227.536,515.94 -226.992,515.94 C -226.17,515.94 -225.57,515.684 -225.192,515.172 C -224.813,514.66 -224.624,513.903 -224.624,512.9 L -224.624,507.972 L -225.936,507.972 L -225.936,512.724 C -225.936,513.46 -226.053,513.991 -226.288,514.316 C -226.522,514.642 -226.896,514.804 -227.408,514.804 C -227.813,514.804 -228.171,514.703 -228.48,514.5 C -228.789,514.298 -229.141,513.999 -229.536,513.604 L -229.536,507.972 L -230.848,507.972 Z" marker-start="none" marker-end="none"/>
    <path d="M -219.65,507.78 C -220.066,507.78 -220.415,507.844 -220.698,507.972 C -220.981,508.1 -221.21,508.276 -221.386,508.5 C -221.562,508.724 -221.687,508.996 -221.762,509.316 C -221.837,509.636 -221.874,509.988 -221.874,510.372 L -221.874,514.676 L -223.026,514.676 L -223.026,515.668 L -221.81,515.748 L -221.65,517.924 L -220.546,517.924 L -220.546,515.748 L -218.45,515.748 L -218.45,514.676 L -220.546,514.676 L -220.546,510.356 C -220.546,509.876 -220.458,509.505 -220.282,509.244 C -220.106,508.983 -219.794,508.852 -219.346,508.852 C -219.207,508.852 -219.058,508.873 -218.898,508.916 C -218.738,508.959 -218.594,509.007 -218.466,509.06 L -218.21,508.068 C -218.423,507.993 -218.655,507.927 -218.906,507.868 C -219.157,507.809 -219.405,507.78 -219.65,507.78 Z" marker-start="none" marker-end="none"/>
    <path d="M -214.161,507.972 L -214.161,508.756 C -213.393,509.524 -212.71,510.217 -212.113,510.836 C -211.516,511.455 -211.014,512.028 -210.609,512.556 C -210.204,513.084 -209.894,513.57 -209.681,514.012 C -209.468,514.455 -209.361,514.884 -209.361,515.3 C -209.361,515.887 -209.521,516.367 -209.841,516.74 C -210.161,517.114 -210.646,517.3 -211.297,517.3 C -211.724,517.3 -212.118,517.18 -212.481,516.94 C -212.844,516.7 -213.174,516.41 -213.473,516.068 L -214.225,516.82 C -213.798,517.29 -213.345,517.666 -212.865,517.948 C -212.385,518.231 -211.809,518.372 -211.137,518.372 C -210.188,518.372 -209.441,518.098 -208.897,517.548 C -208.353,516.999 -208.081,516.271 -208.081,515.364 C -208.081,514.884 -208.185,514.402 -208.393,513.916 C -208.601,513.431 -208.889,512.929 -209.257,512.412 C -209.625,511.895 -210.062,511.356 -210.569,510.796 C -211.076,510.236 -211.633,509.641 -212.241,509.012 C -211.964,509.033 -211.676,509.055 -211.377,509.076 C -211.078,509.097 -210.796,509.108 -210.529,509.108 L -207.569,509.108 L -207.569,507.972 L -214.161,507.972 Z" marker-start="none" marker-end="none"/>
   </g>
  </g>
  <g id="Group_26" fill-rule="nonzero" stroke-linejoin="round" stroke-linecap="round" stroke="none" stroke-width="0.25" fill="#0c323b">
   <g id="Group_27">
    <path d="M -337.846,507.972 L -337.846,518.468 L -331.798,518.468 L -331.798,517.348 L -336.518,517.348 L -336.518,514.052 L -332.534,514.052 L -332.534,512.916 L -336.518,512.916 L -336.518,509.108 L -331.638,509.108 L -331.638,507.972 L -337.846,507.972 Z" marker-start="none" marker-end="none"/>
    <path d="M -328.023,507.972 L -330.823,515.748 L -329.463,515.748 L -327.991,511.332 C -327.874,510.948 -327.754,510.564 -327.631,510.18 C -327.508,509.796 -327.388,509.417 -327.271,509.044 L -327.207,509.044 C -327.09,509.417 -326.972,509.796 -326.855,510.18 C -326.738,510.564 -326.62,510.948 -326.503,511.332 L -325.031,515.748 L -323.735,515.748 L -326.487,507.972 L -328.023,507.972 Z" marker-start="none" marker-end="none"/>
    <path d="M -319.145,507.78 C -319.668,507.78 -320.156,507.873 -320.609,508.06 C -321.062,508.247 -321.457,508.513 -321.793,508.86 C -322.129,509.207 -322.393,509.631 -322.585,510.132 C -322.777,510.633 -322.873,511.204 -322.873,511.844 C -322.873,512.484 -322.774,513.057 -322.577,513.564 C -322.38,514.071 -322.118,514.5 -321.793,514.852 C -321.468,515.204 -321.097,515.474 -320.681,515.66 C -320.265,515.847 -319.833,515.94 -319.385,515.94 C -318.894,515.94 -318.454,515.855 -318.065,515.684 C -317.675,515.514 -317.35,515.268 -317.089,514.948 C -316.827,514.628 -316.627,514.244 -316.489,513.796 C -316.35,513.348 -316.281,512.847 -316.281,512.292 C -316.281,512.153 -316.283,512.017 -316.289,511.884 C -316.294,511.751 -316.307,511.636 -316.329,511.54 L -321.577,511.54 C -321.524,510.708 -321.265,510.049 -320.801,509.564 C -320.337,509.079 -319.732,508.836 -318.985,508.836 C -318.612,508.836 -318.268,508.892 -317.953,509.004 C -317.638,509.116 -317.337,509.263 -317.049,509.444 L -316.585,508.58 C -316.926,508.367 -317.305,508.18 -317.721,508.02 C -318.137,507.86 -318.612,507.78 -319.145,507.78 Z M -321.593,512.484 L -317.433,512.484 C -317.433,513.273 -317.601,513.874 -317.937,514.284 C -318.273,514.695 -318.745,514.9 -319.353,514.9 C -319.63,514.9 -319.894,514.847 -320.145,514.74 C -320.396,514.634 -320.622,514.476 -320.825,514.268 C -321.028,514.06 -321.196,513.807 -321.329,513.508 C -321.462,513.209 -321.55,512.868 -321.593,512.484 Z" marker-start="none" marker-end="none"/>
    <path d="M -314.359,507.972 L -314.359,515.748 L -313.271,515.748 L -313.159,514.628 L -313.111,514.628 C -312.738,515.002 -312.346,515.314 -311.935,515.564 C -311.524,515.815 -311.047,515.94 -310.503,515.94 C -309.681,515.94 -309.081,515.684 -308.703,515.172 C -308.324,514.66 -308.135,513.903 -308.135,512.9 L -308.135,507.972 L -309.447,507.972 L -309.447,512.724 C -309.447,513.46 -309.564,513.991 -309.799,514.316 C -310.033,514.642 -310.407,514.804 -310.919,514.804 C -311.324,514.804 -311.682,514.703 -311.991,514.5 C -312.3,514.298 -312.652,513.999 -313.047,513.604 L -313.047,507.972 L -314.359,507.972 Z" marker-start="none" marker-end="none"/>
    <path d="M -303.161,507.78 C -303.577,507.78 -303.926,507.844 -304.209,507.972 C -304.492,508.1 -304.721,508.276 -304.897,508.5 C -305.073,508.724 -305.198,508.996 -305.273,509.316 C -305.348,509.636 -305.385,509.988 -305.385,510.372 L -305.385,514.676 L -306.537,514.676 L -306.537,515.668 L -305.321,515.748 L -305.161,517.924 L -304.057,517.924 L -304.057,515.748 L -301.961,515.748 L -301.961,514.676 L -304.057,514.676 L -304.057,510.356 C -304.057,509.876 -303.969,509.505 -303.793,509.244 C -303.617,508.983 -303.305,508.852 -302.857,508.852 C -302.718,508.852 -302.569,508.873 -302.409,508.916 C -302.249,508.959 -302.105,509.007 -301.977,509.06 L -301.721,508.068 C -301.934,507.993 -302.166,507.927 -302.417,507.868 C -302.668,507.809 -302.916,507.78 -303.161,507.78 Z" marker-start="none" marker-end="none"/>
    <path d="M -294.536,507.78 C -294.941,507.78 -295.312,507.82 -295.648,507.9 C -295.984,507.98 -296.291,508.087 -296.568,508.22 C -296.845,508.353 -297.093,508.505 -297.312,508.676 C -297.531,508.847 -297.725,509.028 -297.896,509.22 L -297.224,510.084 C -296.915,509.764 -296.555,509.481 -296.144,509.236 C -295.733,508.991 -295.224,508.868 -294.616,508.868 C -293.997,508.868 -293.491,509.036 -293.096,509.372 C -292.701,509.708 -292.504,510.164 -292.504,510.74 C -292.504,511.039 -292.56,511.313 -292.672,511.564 C -292.784,511.815 -292.968,512.031 -293.224,512.212 C -293.48,512.393 -293.816,512.532 -294.232,512.628 C -294.648,512.724 -295.16,512.772 -295.768,512.772 L -295.768,513.78 C -295.224,513.78 -294.768,513.828 -294.4,513.924 C -294.032,514.02 -293.733,514.154 -293.504,514.324 C -293.275,514.495 -293.112,514.698 -293.016,514.932 C -292.92,515.167 -292.872,515.418 -292.872,515.684 C -292.872,516.186 -293.029,516.58 -293.344,516.868 C -293.659,517.156 -294.088,517.3 -294.632,517.3 C -295.059,517.3 -295.451,517.204 -295.808,517.012 C -296.165,516.82 -296.499,516.57 -296.808,516.26 L -297.512,517.092 C -297.117,517.466 -296.683,517.772 -296.208,518.012 C -295.733,518.252 -295.192,518.372 -294.584,518.372 C -294.136,518.372 -293.725,518.314 -293.352,518.196 C -292.979,518.079 -292.656,517.911 -292.384,517.692 C -292.112,517.474 -291.901,517.204 -291.752,516.884 C -291.602,516.564 -291.528,516.196 -291.528,515.78 C -291.528,515.162 -291.698,514.655 -292.04,514.26 C -292.381,513.866 -292.829,513.562 -293.384,513.348 L -293.384,513.284 C -293.075,513.209 -292.786,513.1 -292.52,512.956 C -292.253,512.812 -292.018,512.631 -291.816,512.412 C -291.613,512.193 -291.456,511.94 -291.344,511.652 C -291.232,511.364 -291.176,511.044 -291.176,510.692 C -291.176,510.244 -291.264,509.839 -291.44,509.476 C -291.616,509.113 -291.856,508.807 -292.16,508.556 C -292.464,508.305 -292.818,508.113 -293.224,507.98 C -293.629,507.847 -294.067,507.78 -294.536,507.78 Z" marker-start="none" marker-end="none"/>
   </g>
  </g>
  <path d="M -265.059,510.124 L -265.059,512.124 L -286.746,512.124 C -287.298,512.124 -287.746,512.572 -287.746,513.124 C -287.746,513.675 -287.298,514.124 -286.746,514.124 L -265.059,514.124 L -265.059,516.124 L -258.059,513.124 L -265.059,510.124 Z" stroke-width="0.5" stroke="none" fill="#000000" fill-rule="evenodd" marker-start="none" marker-end="none"/>
  <path d="M -183.068,510.124 L -183.068,512.124 L -204.755,512.124 C -205.307,512.124 -205.755,512.572 -205.755,513.124 C -205.755,513.675 -205.307,514.124 -204.755,514.124 L -183.068,514.124 L -183.068,516.124 L -176.068,513.124 L -183.068,510.124 Z" stroke-width="0.5" stroke="none" fill="#000000" fill-rule="evenodd" marker-start="none" marker-end="none"/>
  <g id="Group_28" fill-rule="nonzero" stroke-linejoin="round" stroke-linecap="round" stroke="none" stroke-width="0.25" fill="#000000">
   <g id="Group_29">
    <path d="M -488.762,566.288 L -488.762,578.06 L -481.67,578.06 L -481.67,576.296 L -486.674,576.296 L -486.674,573.29 L -482.444,573.29 L -482.444,571.526 L -486.674,571.526 L -486.674,568.052 L -481.49,568.052 L -481.49,566.288 L -488.762,566.288 Z" marker-start="none" marker-end="none"/>
    <path d="M -477.455,566.288 L -480.533,575.126 L -478.427,575.126 L -477.023,570.536 C -476.903,570.104 -476.78,569.666 -476.654,569.222 C -476.528,568.778 -476.405,568.328 -476.285,567.872 L -476.213,567.872 C -476.081,568.328 -475.955,568.778 -475.835,569.222 C -475.715,569.666 -475.589,570.104 -475.457,570.536 L -474.053,575.126 L -472.055,575.126 L -475.061,566.288 L -477.455,566.288 Z" marker-start="none" marker-end="none"/>
    <path d="M -466.85,566.072 C -467.462,566.072 -468.032,566.177 -468.56,566.387 C -469.088,566.597 -469.55,566.9 -469.946,567.296 C -470.342,567.692 -470.651,568.175 -470.873,568.745 C -471.095,569.315 -471.206,569.966 -471.206,570.698 C -471.206,571.418 -471.092,572.066 -470.864,572.642 C -470.636,573.218 -470.333,573.704 -469.955,574.1 C -469.577,574.496 -469.142,574.802 -468.65,575.018 C -468.158,575.234 -467.654,575.342 -467.138,575.342 C -466.538,575.342 -466.01,575.24 -465.554,575.036 C -465.098,574.832 -464.717,574.544 -464.411,574.172 C -464.105,573.8 -463.874,573.356 -463.718,572.84 C -463.562,572.324 -463.484,571.76 -463.484,571.148 C -463.484,570.944 -463.493,570.752 -463.511,570.572 C -463.529,570.392 -463.55,570.248 -463.574,570.14 L -469.19,570.14 C -469.094,569.348 -468.815,568.739 -468.353,568.313 C -467.891,567.887 -467.3,567.674 -466.58,567.674 C -466.196,567.674 -465.839,567.731 -465.509,567.845 C -465.179,567.959 -464.852,568.118 -464.528,568.322 L -463.826,567.026 C -464.246,566.75 -464.714,566.522 -465.23,566.342 C -465.746,566.162 -466.286,566.072 -466.85,566.072 Z M -469.208,571.544 L -465.284,571.544 C -465.284,572.228 -465.431,572.765 -465.725,573.155 C -466.019,573.545 -466.472,573.74 -467.084,573.74 C -467.612,573.74 -468.074,573.554 -468.47,573.182 C -468.866,572.81 -469.112,572.264 -469.208,571.544 Z" marker-start="none" marker-end="none"/>
    <path d="M -461.507,566.288 L -461.507,575.126 L -459.797,575.126 L -459.653,573.938 L -459.581,573.938 C -459.185,574.322 -458.756,574.652 -458.294,574.928 C -457.832,575.204 -457.295,575.342 -456.683,575.342 C -455.735,575.342 -455.045,575.039 -454.613,574.433 C -454.181,573.827 -453.965,572.96 -453.965,571.832 L -453.965,566.288 L -456.035,566.288 L -456.035,571.562 C -456.035,572.294 -456.143,572.81 -456.359,573.11 C -456.575,573.41 -456.929,573.56 -457.421,573.56 C -457.805,573.56 -458.144,573.467 -458.438,573.281 C -458.732,573.095 -459.065,572.822 -459.437,572.462 L -459.437,566.288 L -461.507,566.288 Z" marker-start="none" marker-end="none"/>
    <path d="M -448.312,566.072 C -448.828,566.072 -449.263,566.15 -449.617,566.306 C -449.971,566.462 -450.259,566.681 -450.481,566.963 C -450.703,567.245 -450.865,567.581 -450.967,567.971 C -451.069,568.361 -451.12,568.796 -451.12,569.276 L -451.12,573.488 L -452.38,573.488 L -452.38,575.036 L -451.012,575.126 L -450.76,577.538 L -449.032,577.538 L -449.032,575.126 L -446.782,575.126 L -446.782,573.488 L -449.032,573.488 L -449.032,569.276 C -449.032,568.244 -448.618,567.728 -447.79,567.728 C -447.634,567.728 -447.475,567.746 -447.313,567.782 C -447.151,567.818 -447.004,567.866 -446.872,567.926 L -446.512,566.396 C -446.752,566.312 -447.025,566.237 -447.331,566.171 C -447.637,566.105 -447.964,566.072 -448.312,566.072 Z" marker-start="none" marker-end="none"/>
    <path d="M -437.709,566.072 C -438.501,566.072 -439.266,566.222 -440.004,566.522 C -440.742,566.822 -441.393,567.248 -441.957,567.8 L -440.733,569.222 C -440.313,568.826 -439.833,568.505 -439.293,568.259 C -438.753,568.013 -438.213,567.89 -437.673,567.89 C -437.001,567.89 -436.491,568.028 -436.143,568.304 C -435.795,568.58 -435.621,568.946 -435.621,569.402 C -435.621,569.642 -435.666,569.846 -435.756,570.014 C -435.846,570.182 -435.972,570.329 -436.134,570.455 C -436.296,570.581 -436.488,570.698 -436.71,570.806 C -436.932,570.914 -437.175,571.022 -437.439,571.13 L -439.059,571.832 C -439.347,571.952 -439.632,572.102 -439.914,572.282 C -440.196,572.462 -440.451,572.678 -440.679,572.93 C -440.907,573.182 -441.09,573.476 -441.228,573.812 C -441.366,574.148 -441.435,574.532 -441.435,574.964 C -441.435,575.432 -441.336,575.867 -441.138,576.269 C -440.94,576.671 -440.667,577.022 -440.319,577.322 C -439.971,577.622 -439.554,577.856 -439.068,578.024 C -438.582,578.192 -438.051,578.276 -437.475,578.276 C -436.791,578.276 -436.131,578.141 -435.495,577.871 C -434.859,577.601 -434.313,577.238 -433.857,576.782 L -434.919,575.45 C -435.303,575.762 -435.699,576.008 -436.107,576.188 C -436.515,576.368 -436.971,576.458 -437.475,576.458 C -438.039,576.458 -438.489,576.335 -438.825,576.089 C -439.161,575.843 -439.329,575.504 -439.329,575.072 C -439.329,574.844 -439.278,574.649 -439.176,574.487 C -439.074,574.325 -438.936,574.181 -438.762,574.055 C -438.588,573.929 -438.387,573.815 -438.159,573.713 C -437.931,573.611 -437.697,573.512 -437.457,573.416 L -435.855,572.75 C -435.507,572.606 -435.189,572.438 -434.901,572.246 C -434.613,572.054 -434.364,571.832 -434.154,571.58 C -433.944,571.328 -433.779,571.037 -433.659,570.707 C -433.539,570.377 -433.479,569.996 -433.479,569.564 C -433.479,569.084 -433.575,568.634 -433.767,568.214 C -433.959,567.794 -434.238,567.425 -434.604,567.107 C -434.97,566.789 -435.414,566.537 -435.936,566.351 C -436.458,566.165 -437.049,566.072 -437.709,566.072 Z" marker-start="none" marker-end="none"/>
    <path d="M -427.9,566.072 C -428.452,566.072 -428.98,566.174 -429.484,566.378 C -429.988,566.582 -430.435,566.882 -430.825,567.278 C -431.215,567.674 -431.524,568.16 -431.752,568.736 C -431.98,569.312 -432.094,569.966 -432.094,570.698 C -432.094,571.43 -431.98,572.084 -431.752,572.66 C -431.524,573.236 -431.215,573.722 -430.825,574.118 C -430.435,574.514 -429.988,574.817 -429.484,575.027 C -428.98,575.237 -428.452,575.342 -427.9,575.342 C -427.348,575.342 -426.817,575.237 -426.307,575.027 C -425.797,574.817 -425.35,574.514 -424.966,574.118 C -424.582,573.722 -424.273,573.236 -424.039,572.66 C -423.805,572.084 -423.688,571.43 -423.688,570.698 C -423.688,569.966 -423.805,569.312 -424.039,568.736 C -424.273,568.16 -424.582,567.674 -424.966,567.278 C -425.35,566.882 -425.797,566.582 -426.307,566.378 C -426.817,566.174 -427.348,566.072 -427.9,566.072 Z M -427.9,567.764 C -427.252,567.764 -426.742,568.031 -426.37,568.565 C -425.998,569.099 -425.812,569.81 -425.812,570.698 C -425.812,571.598 -425.998,572.315 -426.37,572.849 C -426.742,573.383 -427.252,573.65 -427.9,573.65 C -428.548,573.65 -429.055,573.383 -429.421,572.849 C -429.787,572.315 -429.97,571.598 -429.97,570.698 C -429.97,569.81 -429.787,569.099 -429.421,568.565 C -429.055,568.031 -428.548,567.764 -427.9,567.764 Z" marker-start="none" marker-end="none"/>
    <path d="M -419.011,566.072 C -419.959,566.072 -420.649,566.375 -421.081,566.981 C -421.513,567.587 -421.729,568.454 -421.729,569.582 L -421.729,575.126 L -419.659,575.126 L -419.659,569.852 C -419.659,569.12 -419.551,568.604 -419.335,568.304 C -419.119,568.004 -418.771,567.854 -418.291,567.854 C -417.907,567.854 -417.568,567.95 -417.274,568.142 C -416.98,568.334 -416.665,568.646 -416.329,569.078 L -416.329,575.126 L -414.259,575.126 L -414.259,566.288 L -415.951,566.288 L -416.113,567.584 L -416.167,567.584 C -416.551,567.128 -416.968,566.762 -417.418,566.486 C -417.868,566.21 -418.399,566.072 -419.011,566.072 Z" marker-start="none" marker-end="none"/>
    <path d="M -411.628,566.288 L -411.628,575.126 L -409.918,575.126 L -409.774,573.56 L -409.702,573.56 C -409.39,574.136 -409.012,574.577 -408.568,574.883 C -408.124,575.189 -407.668,575.342 -407.2,575.342 C -406.78,575.342 -406.444,575.282 -406.192,575.162 L -406.552,573.362 C -406.708,573.41 -406.852,573.446 -406.984,573.47 C -407.116,573.494 -407.278,573.506 -407.47,573.506 C -407.818,573.506 -408.184,573.371 -408.568,573.101 C -408.952,572.831 -409.282,572.36 -409.558,571.688 L -409.558,566.288 L -411.628,566.288 Z" marker-start="none" marker-end="none"/>
    <path d="M -401.402,566.072 C -402.002,566.072 -402.563,566.174 -403.085,566.378 C -403.607,566.582 -404.06,566.882 -404.444,567.278 C -404.828,567.674 -405.128,568.16 -405.344,568.736 C -405.56,569.312 -405.668,569.966 -405.668,570.698 C -405.668,571.43 -405.548,572.084 -405.308,572.66 C -405.068,573.236 -404.744,573.722 -404.336,574.118 C -403.928,574.514 -403.457,574.817 -402.923,575.027 C -402.389,575.237 -401.828,575.342 -401.24,575.342 C -400.664,575.342 -400.169,575.246 -399.755,575.054 C -399.341,574.862 -398.972,574.628 -398.648,574.352 L -399.656,573.002 C -399.896,573.206 -400.133,573.365 -400.367,573.479 C -400.601,573.593 -400.856,573.65 -401.132,573.65 C -401.852,573.65 -402.434,573.383 -402.878,572.849 C -403.322,572.315 -403.544,571.598 -403.544,570.698 C -403.544,569.81 -403.325,569.099 -402.887,568.565 C -402.449,568.031 -401.882,567.764 -401.186,567.764 C -400.838,567.764 -400.511,567.839 -400.205,567.989 C -399.899,568.139 -399.62,568.316 -399.368,568.52 L -398.522,567.152 C -398.942,566.792 -399.401,566.522 -399.899,566.342 C -400.397,566.162 -400.898,566.072 -401.402,566.072 Z" marker-start="none" marker-end="none"/>
    <path d="M -396.777,566.288 L -396.777,575.126 L -394.707,575.126 L -394.707,566.288 L -396.777,566.288 Z M -395.733,576.674 C -396.105,576.674 -396.411,576.782 -396.651,576.998 C -396.891,577.214 -397.011,577.496 -397.011,577.844 C -397.011,578.192 -396.891,578.477 -396.651,578.699 C -396.411,578.921 -396.105,579.032 -395.733,579.032 C -395.361,579.032 -395.055,578.921 -394.815,578.699 C -394.575,578.477 -394.455,578.192 -394.455,577.844 C -394.455,577.496 -394.575,577.214 -394.815,576.998 C -395.055,576.782 -395.361,576.674 -395.733,576.674 Z" marker-start="none" marker-end="none"/>
    <path d="M -392.057,566.288 L -392.057,575.126 L -390.347,575.126 L -390.203,573.938 L -390.131,573.938 C -389.735,574.322 -389.306,574.652 -388.844,574.928 C -388.382,575.204 -387.845,575.342 -387.233,575.342 C -386.285,575.342 -385.595,575.039 -385.163,574.433 C -384.731,573.827 -384.515,572.96 -384.515,571.832 L -384.515,566.288 L -386.585,566.288 L -386.585,571.562 C -386.585,572.294 -386.693,572.81 -386.909,573.11 C -387.125,573.41 -387.479,573.56 -387.971,573.56 C -388.355,573.56 -388.694,573.467 -388.988,573.281 C -389.282,573.095 -389.615,572.822 -389.987,572.462 L -389.987,566.288 L -392.057,566.288 Z" marker-start="none" marker-end="none"/>
    <path d="M -378.898,562.382 C -379.426,562.382 -379.915,562.43 -380.365,562.526 C -380.815,562.622 -381.202,562.766 -381.526,562.958 C -381.85,563.15 -382.105,563.39 -382.291,563.678 C -382.477,563.966 -382.57,564.302 -382.57,564.686 C -382.57,565.058 -382.462,565.403 -382.246,565.721 C -382.03,566.039 -381.718,566.324 -381.31,566.576 L -381.31,566.648 C -381.538,566.792 -381.727,566.984 -381.877,567.224 C -382.027,567.464 -382.102,567.764 -382.102,568.124 C -382.102,568.472 -382.003,568.787 -381.805,569.069 C -381.607,569.351 -381.382,569.582 -381.13,569.762 L -381.13,569.834 C -381.43,570.062 -381.697,570.377 -381.931,570.779 C -382.165,571.181 -382.282,571.646 -382.282,572.174 C -382.282,572.678 -382.186,573.128 -381.994,573.524 C -381.802,573.92 -381.547,574.253 -381.229,574.523 C -380.911,574.793 -380.542,574.997 -380.122,575.135 C -379.702,575.273 -379.258,575.342 -378.79,575.342 C -378.55,575.342 -378.319,575.321 -378.097,575.279 C -377.875,575.237 -377.674,575.186 -377.494,575.126 L -374.326,575.126 L -374.326,573.596 L -375.946,573.596 C -375.802,573.428 -375.682,573.215 -375.586,572.957 C -375.49,572.699 -375.442,572.414 -375.442,572.102 C -375.442,571.61 -375.529,571.178 -375.703,570.806 C -375.877,570.434 -376.114,570.122 -376.414,569.87 C -376.714,569.618 -377.068,569.426 -377.476,569.294 C -377.884,569.162 -378.322,569.096 -378.79,569.096 C -378.982,569.096 -379.18,569.114 -379.384,569.15 C -379.588,569.186 -379.792,569.246 -379.996,569.33 C -380.128,569.21 -380.233,569.09 -380.311,568.97 C -380.389,568.85 -380.428,568.688 -380.428,568.484 C -380.428,568.232 -380.323,568.034 -380.113,567.89 C -379.903,567.746 -379.528,567.674 -378.988,567.674 L -377.422,567.674 C -376.354,567.674 -375.547,567.503 -375.001,567.161 C -374.455,566.819 -374.182,566.264 -374.182,565.496 C -374.182,565.064 -374.293,564.656 -374.515,564.272 C -374.737,563.888 -375.052,563.558 -375.46,563.282 C -375.868,563.006 -376.363,562.787 -376.945,562.625 C -377.527,562.463 -378.178,562.382 -378.898,562.382 Z M -378.79,570.392 C -378.37,570.392 -378.01,570.545 -377.71,570.851 C -377.41,571.157 -377.26,571.598 -377.26,572.174 C -377.26,572.726 -377.407,573.155 -377.701,573.461 C -377.995,573.767 -378.358,573.92 -378.79,573.92 C -379.222,573.92 -379.588,573.77 -379.888,573.47 C -380.188,573.17 -380.338,572.738 -380.338,572.174 C -380.338,571.598 -380.188,571.157 -379.888,570.851 C -379.588,570.545 -379.222,570.392 -378.79,570.392 Z M -378.574,563.732 C -377.854,563.732 -377.275,563.873 -376.837,564.155 C -376.399,564.437 -376.18,564.77 -376.18,565.154 C -376.18,565.502 -376.315,565.736 -376.585,565.856 C -376.855,565.976 -377.242,566.036 -377.746,566.036 L -378.952,566.036 C -379.432,566.036 -379.834,566.078 -380.158,566.162 C -380.614,565.814 -380.842,565.424 -380.842,564.992 C -380.842,564.596 -380.641,564.287 -380.239,564.065 C -379.837,563.843 -379.282,563.732 -378.574,563.732 Z" marker-start="none" marker-end="none"/>
   </g>
  </g>
 </g>
</svg>
