<?xml version="1.0" standalone="no"?>
<!DOCTYPE svg PUBLIC "-//W3C//DTD SVG 1.1//EN" "http://www.w3.org/Graphics/SVG/1.1/DTD/svg11.dtd">
<!--Generator: Xara Designer (www.xara.com), SVG filter version: 6.5.0.22-->
<svg fill="none" fill-rule="evenodd" stroke="black" stroke-width="0.501" stroke-linejoin="bevel" stroke-miterlimit="10" font-family="Times New Roman" font-size="16" style="font-variant-ligatures:none" xmlns:xlink="http://www.w3.org/1999/xlink" xmlns="http://www.w3.org/2000/svg" version="1.1" overflow="visible" width="899.368pt" height="178.362pt" viewBox="774.195 -689.815 899.368 178.362">
 <defs>
	</defs>
 <g id="Layer 1" transform="scale(1 -1)">
  <rect x="-67.105" y="-65.491" width="134.21" height="130.983" transform="translate(866.651 575.671) rotate(73.1291) skewX(-16.8709)" fill="#4c4c4c" stroke="none" stroke-linejoin="miter"/>
  <rect x="-67.105" y="-65.491" width="134.21" height="130.983" transform="translate(1046.4 575.671) rotate(73.1291) skewX(-16.8709)" fill="#4c4c4c" stroke="none" stroke-linejoin="miter"/>
  <rect x="-67.105" y="-65.491" width="134.21" height="130.983" transform="translate(1226.15 575.671) rotate(73.1291) skewX(-16.8709)" fill="#4c4c4c" stroke="none" stroke-linejoin="miter"/>
  <rect x="-67.105" y="-65.491" width="134.21" height="130.983" transform="translate(862.108 582.727) rotate(73.1291) skewX(-16.8709)" fill="#15a9ce" stroke="none" stroke-linejoin="miter"/>
  <rect x="-67.105" y="-65.491" width="134.21" height="130.983" transform="translate(1405.9 575.671) rotate(73.1291) skewX(-16.8709)" fill="#4c4c4c" stroke="none" stroke-linejoin="miter"/>
  <rect x="-67.105" y="-65.491" width="134.21" height="130.983" transform="translate(1585.65 575.671) rotate(73.1291) skewX(-16.8709)" fill="#4c4c4c" stroke="none" stroke-linejoin="miter"/>
  <rect x="-67.105" y="-65.491" width="134.21" height="130.983" transform="translate(1041.86 582.727) rotate(73.1291) skewX(-16.8709)" fill="#2fc9a2" stroke="none" stroke-linejoin="miter"/>
  <rect x="-67.105" y="-65.491" width="134.21" height="130.983" transform="translate(1221.61 582.727) rotate(73.1291) skewX(-16.8709)" fill="#c6b357" stroke="none" stroke-linejoin="miter"/>
  <rect x="-67.105" y="-65.491" width="134.21" height="130.983" transform="translate(1401.36 582.727) rotate(73.1291) skewX(-16.8709)" fill="#c17545" stroke="none" stroke-linejoin="miter"/>
  <rect x="-67.105" y="-65.491" width="134.21" height="130.983" transform="translate(1581.11 582.727) rotate(73.1291) skewX(-16.8709)" fill="#ba4c58" stroke="none" stroke-linejoin="miter"/>
  <g id="Group" fill-rule="nonzero" stroke-linejoin="round" stroke-linecap="round" stroke="none" stroke-width="0.25" fill="#000000">
   <g id="Group_1">
    <path d="M 853.147,604.077 L 856.725,615.885 L 858.219,615.885 L 854.641,604.077 L 853.147,604.077 Z" marker-start="none" marker-end="none"/>
    <path d="M 860.429,603.861 C 859.961,603.861 859.59,603.933 859.315,604.077 C 859.041,604.221 858.843,604.419 858.721,604.671 C 858.6,604.923 858.551,605.229 858.576,605.589 C 858.601,605.949 858.679,606.345 858.81,606.777 L 860.278,611.619 L 858.982,611.619 L 859.32,612.735 L 860.715,612.825 L 861.637,615.273 L 862.879,615.273 L 862.137,612.825 L 864.495,612.825 L 864.13,611.619 L 861.772,611.619 L 860.299,606.759 C 860.135,606.219 860.108,605.802 860.217,605.508 C 860.326,605.214 860.632,605.067 861.136,605.067 C 861.292,605.067 861.467,605.091 861.662,605.139 C 861.857,605.187 862.035,605.241 862.197,605.301 L 862.147,604.185 C 861.881,604.101 861.598,604.026 861.296,603.96 C 860.994,603.894 860.705,603.861 860.429,603.861 Z" marker-start="none" marker-end="none"/>
    <path d="M 867.052,603.861 C 866.464,603.861 865.947,603.966 865.5,604.176 C 865.054,604.386 864.701,604.686 864.441,605.076 C 864.181,605.466 864.029,605.943 863.984,606.507 C 863.938,607.071 864.025,607.713 864.243,608.433 C 864.461,609.153 864.768,609.798 865.163,610.368 C 865.557,610.938 865.998,611.421 866.484,611.817 C 866.97,612.213 867.478,612.516 868.01,612.726 C 868.542,612.936 869.059,613.041 869.563,613.041 C 870.115,613.041 870.581,612.945 870.961,612.753 C 871.341,612.561 871.623,612.285 871.808,611.925 C 871.993,611.565 872.087,611.133 872.091,610.629 C 872.094,610.125 872.001,609.561 871.812,608.937 C 871.765,608.781 871.715,608.628 871.664,608.478 C 871.612,608.328 871.558,608.199 871.502,608.091 L 865.598,608.091 C 865.374,607.155 865.44,606.414 865.797,605.868 C 866.153,605.322 866.752,605.049 867.592,605.049 C 868.012,605.049 868.418,605.112 868.81,605.238 C 869.202,605.364 869.591,605.529 869.977,605.733 L 870.204,604.761 C 869.748,604.521 869.258,604.311 868.736,604.131 C 868.213,603.951 867.652,603.861 867.052,603.861 Z M 865.901,609.153 L 870.581,609.153 C 870.85,610.041 870.866,610.716 870.628,611.178 C 870.39,611.64 869.929,611.871 869.245,611.871 C 868.933,611.871 868.618,611.811 868.299,611.691 C 867.981,611.571 867.672,611.394 867.374,611.16 C 867.075,610.926 866.799,610.641 866.547,610.305 C 866.296,609.969 866.08,609.585 865.901,609.153 Z" marker-start="none" marker-end="none"/>
    <path d="M 872.501,604.077 L 875.152,612.825 L 876.376,612.825 L 876.12,611.565 L 876.174,611.565 C 876.685,611.985 877.209,612.336 877.744,612.618 C 878.28,612.9 878.811,613.041 879.339,613.041 C 880.011,613.041 880.492,612.894 880.781,612.6 C 881.07,612.306 881.224,611.895 881.244,611.367 C 881.853,611.871 882.435,612.276 882.989,612.582 C 883.544,612.888 884.091,613.041 884.631,613.041 C 885.531,613.041 886.113,612.753 886.377,612.177 C 886.64,611.601 886.601,610.749 886.259,609.621 L 884.579,604.077 L 883.103,604.077 L 884.723,609.423 C 884.974,610.251 885.023,610.848 884.87,611.214 C 884.717,611.58 884.364,611.763 883.812,611.763 C 883.152,611.763 882.284,611.313 881.207,610.413 L 879.287,604.077 L 877.811,604.077 L 879.431,609.423 C 879.682,610.251 879.731,610.848 879.578,611.214 C 879.425,611.58 879.066,611.763 878.502,611.763 C 877.842,611.763 876.974,611.313 875.897,610.413 L 873.977,604.077 L 872.501,604.077 Z" marker-start="none" marker-end="none"/>
   </g>
   <g id="Group_2">
    <path d="M 827.893,576.931 L 831.471,588.739 L 834.837,588.739 C 835.497,588.739 836.082,588.679 836.592,588.559 C 837.101,588.439 837.507,588.244 837.81,587.974 C 838.112,587.704 838.304,587.347 838.385,586.903 C 838.467,586.459 838.409,585.913 838.213,585.265 C 838.024,584.641 837.755,584.101 837.407,583.645 C 837.059,583.189 836.647,582.811 836.172,582.511 C 835.697,582.211 835.17,581.986 834.591,581.836 C 834.011,581.686 833.397,581.611 832.749,581.611 L 830.805,581.611 L 829.387,576.931 L 827.893,576.931 Z M 831.176,582.835 L 832.94,582.835 C 833.972,582.835 834.796,583.03 835.413,583.42 C 836.029,583.81 836.464,584.425 836.719,585.265 C 836.977,586.117 836.895,586.708 836.473,587.038 C 836.051,587.368 835.324,587.533 834.292,587.533 L 832.6,587.533 L 831.176,582.835 Z" marker-start="none" marker-end="none"/>
    <path d="M 839.437,576.715 C 838.873,576.715 838.522,576.883 838.384,577.219 C 838.245,577.555 838.274,578.047 838.471,578.695 L 841.82,589.747 L 843.296,589.747 L 839.914,578.587 C 839.841,578.347 839.832,578.179 839.887,578.083 C 839.942,577.987 840.024,577.939 840.132,577.939 C 840.18,577.939 840.225,577.939 840.267,577.939 C 840.309,577.939 840.375,577.951 840.467,577.975 L 840.326,576.859 C 840.216,576.811 840.091,576.775 839.952,576.751 C 839.812,576.727 839.641,576.715 839.437,576.715 Z" marker-start="none" marker-end="none"/>
    <path d="M 844.475,576.715 C 843.743,576.715 843.199,576.931 842.844,577.363 C 842.489,577.795 842.432,578.407 842.672,579.199 C 842.962,580.159 843.611,580.894 844.618,581.404 C 845.624,581.914 847.094,582.271 849.028,582.475 C 849.112,582.751 849.167,583.021 849.193,583.285 C 849.219,583.549 849.197,583.783 849.126,583.987 C 849.056,584.191 848.923,584.356 848.727,584.482 C 848.532,584.608 848.254,584.671 847.894,584.671 C 847.39,584.671 846.887,584.575 846.384,584.383 C 845.882,584.191 845.421,583.975 845,583.735 L 844.735,584.761 C 845.223,585.025 845.798,585.28 846.461,585.526 C 847.123,585.772 847.809,585.895 848.517,585.895 C 849.585,585.895 850.26,585.568 850.541,584.914 C 850.823,584.26 850.799,583.387 850.468,582.295 L 848.842,576.931 L 847.618,576.931 L 847.809,577.975 L 847.755,577.975 C 847.229,577.627 846.689,577.33 846.135,577.084 C 845.58,576.838 845.027,576.715 844.475,576.715 Z M 845.267,577.903 C 845.687,577.903 846.113,578.002 846.545,578.2 C 846.977,578.398 847.461,578.689 847.997,579.073 L 848.734,581.503 C 847.973,581.407 847.323,581.293 846.785,581.161 C 846.247,581.029 845.798,580.873 845.437,580.693 C 845.077,580.513 844.792,580.306 844.583,580.072 C 844.374,579.838 844.228,579.583 844.144,579.307 C 843.992,578.803 844.032,578.443 844.267,578.227 C 844.502,578.011 844.835,577.903 845.267,577.903 Z" marker-start="none" marker-end="none"/>
    <path d="M 854.985,576.715 C 854.409,576.715 853.9,576.817 853.458,577.021 C 853.015,577.225 852.67,577.522 852.423,577.912 C 852.175,578.302 852.032,578.782 851.995,579.352 C 851.958,579.922 852.048,580.567 852.266,581.287 C 852.488,582.019 852.799,582.67 853.2,583.24 C 853.601,583.81 854.053,584.293 854.557,584.689 C 855.061,585.085 855.599,585.385 856.171,585.589 C 856.743,585.793 857.311,585.895 857.875,585.895 C 858.451,585.895 858.912,585.793 859.258,585.589 C 859.604,585.385 859.891,585.145 860.12,584.869 L 859.069,583.897 C 858.886,584.125 858.676,584.311 858.437,584.455 C 858.199,584.599 857.906,584.671 857.558,584.671 C 857.162,584.671 856.771,584.59 856.386,584.428 C 856.001,584.266 855.643,584.035 855.312,583.735 C 854.981,583.435 854.684,583.078 854.421,582.664 C 854.157,582.25 853.949,581.791 853.796,581.287 C 853.644,580.783 853.571,580.327 853.58,579.919 C 853.588,579.511 853.665,579.16 853.81,578.866 C 853.955,578.572 854.17,578.344 854.457,578.182 C 854.744,578.02 855.086,577.939 855.482,577.939 C 855.89,577.939 856.291,578.026 856.686,578.2 C 857.081,578.374 857.452,578.581 857.801,578.821 L 858.149,577.831 C 857.648,577.483 857.127,577.21 856.587,577.012 C 856.047,576.814 855.513,576.715 854.985,576.715 Z" marker-start="none" marker-end="none"/>
    <path d="M 862.907,576.715 C 862.319,576.715 861.802,576.82 861.355,577.03 C 860.909,577.24 860.556,577.54 860.296,577.93 C 860.036,578.32 859.884,578.797 859.839,579.361 C 859.794,579.925 859.88,580.567 860.098,581.287 C 860.316,582.007 860.623,582.652 861.018,583.222 C 861.412,583.792 861.853,584.275 862.339,584.671 C 862.825,585.067 863.334,585.37 863.865,585.58 C 864.397,585.79 864.915,585.895 865.419,585.895 C 865.971,585.895 866.437,585.799 866.816,585.607 C 867.196,585.415 867.479,585.139 867.663,584.779 C 867.848,584.419 867.942,583.987 867.946,583.483 C 867.949,582.979 867.856,582.415 867.667,581.791 C 867.62,581.635 867.57,581.482 867.519,581.332 C 867.467,581.182 867.413,581.053 867.357,580.945 L 861.453,580.945 C 861.229,580.009 861.295,579.268 861.652,578.722 C 862.009,578.176 862.607,577.903 863.447,577.903 C 863.867,577.903 864.273,577.966 864.665,578.092 C 865.057,578.218 865.446,578.383 865.832,578.587 L 866.06,577.615 C 865.603,577.375 865.113,577.165 864.591,576.985 C 864.068,576.805 863.507,576.715 862.907,576.715 Z M 861.756,582.007 L 866.436,582.007 C 866.706,582.895 866.721,583.57 866.483,584.032 C 866.245,584.494 865.784,584.725 865.1,584.725 C 864.788,584.725 864.473,584.665 864.155,584.545 C 863.836,584.425 863.528,584.248 863.229,584.014 C 862.93,583.78 862.654,583.495 862.403,583.159 C 862.151,582.823 861.935,582.439 861.756,582.007 Z" marker-start="none" marker-end="none"/>
    <path d="M 871.279,576.715 C 870.175,576.715 869.416,577.111 869.002,577.903 C 868.588,578.695 868.603,579.823 869.046,581.287 C 869.261,581.995 869.559,582.634 869.942,583.204 C 870.325,583.774 870.75,584.257 871.218,584.653 C 871.686,585.049 872.181,585.355 872.702,585.571 C 873.224,585.787 873.737,585.895 874.241,585.895 C 874.745,585.895 875.155,585.805 875.473,585.625 C 875.79,585.445 876.094,585.199 876.383,584.887 L 876.764,586.381 L 877.784,589.747 L 879.278,589.747 L 875.394,576.931 L 874.17,576.931 L 874.355,577.957 L 874.301,577.957 C 873.851,577.621 873.364,577.33 872.84,577.084 C 872.315,576.838 871.795,576.715 871.279,576.715 Z M 871.979,577.957 C 872.387,577.957 872.801,578.056 873.221,578.254 C 873.641,578.452 874.093,578.755 874.577,579.163 L 875.962,583.735 C 875.692,584.071 875.407,584.308 875.107,584.446 C 874.806,584.584 874.476,584.653 874.116,584.653 C 873.768,584.653 873.417,584.572 873.062,584.41 C 872.707,584.248 872.37,584.02 872.053,583.726 C 871.736,583.432 871.45,583.081 871.194,582.673 C 870.939,582.265 870.734,581.809 870.582,581.305 C 870.262,580.249 870.223,579.427 870.464,578.839 C 870.706,578.251 871.211,577.957 871.979,577.957 Z" marker-start="none" marker-end="none"/>
    <path d="M 881.953,576.931 L 884.604,585.679 L 886.08,585.679 L 883.429,576.931 L 881.953,576.931 Z M 885.906,587.479 C 885.618,587.479 885.402,587.569 885.258,587.749 C 885.115,587.929 885.085,588.157 885.169,588.433 C 885.256,588.721 885.425,588.952 885.676,589.126 C 885.926,589.3 886.196,589.387 886.484,589.387 C 886.772,589.387 886.988,589.3 887.134,589.126 C 887.279,588.952 887.308,588.721 887.221,588.433 C 887.137,588.157 886.969,587.929 886.716,587.749 C 886.464,587.569 886.194,587.479 885.906,587.479 Z" marker-start="none" marker-end="none"/>
    <path d="M 886.383,576.931 L 889.034,585.679 L 890.258,585.679 L 890.002,584.419 L 890.056,584.419 C 890.604,584.839 891.151,585.19 891.698,585.472 C 892.246,585.754 892.826,585.895 893.438,585.895 C 894.362,585.895 894.949,585.607 895.201,585.031 C 895.452,584.455 895.407,583.603 895.065,582.475 L 893.385,576.931 L 891.909,576.931 L 893.529,582.277 C 893.78,583.105 893.829,583.702 893.676,584.068 C 893.523,584.434 893.158,584.617 892.582,584.617 C 892.126,584.617 891.69,584.503 891.273,584.275 C 890.856,584.047 890.358,583.711 889.779,583.267 L 887.859,576.931 L 886.383,576.931 Z" marker-start="none" marker-end="none"/>
   </g>
   <g id="Group_3">
    <path d="M 842.467,549.569 C 841.723,549.569 841.081,549.707 840.54,549.983 C 840,550.259 839.578,550.658 839.274,551.18 C 838.97,551.702 838.805,552.344 838.778,553.106 C 838.751,553.868 838.883,554.729 839.173,555.689 C 839.461,556.637 839.851,557.489 840.344,558.245 C 840.837,559.001 841.398,559.643 842.026,560.171 C 842.654,560.699 843.328,561.104 844.05,561.386 C 844.771,561.668 845.51,561.809 846.266,561.809 C 846.986,561.809 847.574,561.662 848.031,561.368 C 848.488,561.074 848.833,560.735 849.064,560.351 L 847.96,559.379 C 847.749,559.715 847.477,559.985 847.143,560.189 C 846.809,560.393 846.39,560.495 845.886,560.495 C 845.322,560.495 844.778,560.384 844.255,560.162 C 843.732,559.94 843.245,559.622 842.796,559.208 C 842.346,558.794 841.946,558.293 841.593,557.705 C 841.241,557.117 840.954,556.457 840.732,555.725 C 840.507,554.981 840.391,554.312 840.385,553.718 C 840.379,553.124 840.469,552.617 840.653,552.197 C 840.838,551.777 841.121,551.453 841.502,551.225 C 841.883,550.997 842.355,550.883 842.919,550.883 C 843.495,550.883 844.035,551 844.537,551.234 C 845.04,551.468 845.547,551.795 846.059,552.215 L 846.603,551.279 C 845.971,550.739 845.316,550.319 844.637,550.019 C 843.958,549.719 843.235,549.569 842.467,549.569 Z" marker-start="none" marker-end="none"/>
    <path d="M 850.15,549.569 C 849.418,549.569 848.874,549.785 848.519,550.217 C 848.164,550.649 848.107,551.261 848.347,552.053 C 848.638,553.013 849.286,553.748 850.293,554.258 C 851.299,554.768 852.77,555.125 854.703,555.329 C 854.787,555.605 854.842,555.875 854.868,556.139 C 854.894,556.403 854.872,556.637 854.802,556.841 C 854.731,557.045 854.598,557.21 854.403,557.336 C 854.207,557.462 853.929,557.525 853.569,557.525 C 853.065,557.525 852.562,557.429 852.06,557.237 C 851.557,557.045 851.096,556.829 850.675,556.589 L 850.41,557.615 C 850.898,557.879 851.473,558.134 852.136,558.38 C 852.798,558.626 853.484,558.749 854.192,558.749 C 855.26,558.749 855.935,558.422 856.216,557.768 C 856.498,557.114 856.474,556.241 856.143,555.149 L 854.517,549.785 L 853.293,549.785 L 853.484,550.829 L 853.43,550.829 C 852.904,550.481 852.364,550.184 851.81,549.938 C 851.255,549.692 850.702,549.569 850.15,549.569 Z M 850.942,550.757 C 851.362,550.757 851.788,550.856 852.22,551.054 C 852.652,551.252 853.136,551.543 853.672,551.927 L 854.409,554.357 C 853.648,554.261 852.998,554.147 852.46,554.015 C 851.922,553.883 851.473,553.727 851.112,553.547 C 850.752,553.367 850.467,553.16 850.258,552.926 C 850.049,552.692 849.903,552.437 849.819,552.161 C 849.667,551.657 849.708,551.297 849.942,551.081 C 850.177,550.865 850.51,550.757 850.942,550.757 Z" marker-start="none" marker-end="none"/>
    <path d="M 857.269,549.785 L 859.92,558.533 L 861.144,558.533 L 860.79,556.949 L 860.844,556.949 C 861.312,557.501 861.807,557.939 862.331,558.263 C 862.856,558.587 863.37,558.749 863.874,558.749 C 864.222,558.749 864.516,558.689 864.755,558.569 L 864.074,557.273 C 863.945,557.321 863.824,557.357 863.711,557.381 C 863.598,557.405 863.452,557.417 863.272,557.417 C 862.9,557.417 862.468,557.267 861.975,556.967 C 861.482,556.667 860.973,556.145 860.447,555.401 L 858.745,549.785 L 857.269,549.785 Z" marker-start="none" marker-end="none"/>
    <path d="M 866.207,549.569 C 865.739,549.569 865.368,549.641 865.093,549.785 C 864.819,549.929 864.621,550.127 864.499,550.379 C 864.378,550.631 864.329,550.937 864.355,551.297 C 864.38,551.657 864.458,552.053 864.589,552.485 L 866.056,557.327 L 864.76,557.327 L 865.098,558.443 L 866.493,558.533 L 867.415,560.981 L 868.657,560.981 L 867.915,558.533 L 870.273,558.533 L 869.908,557.327 L 867.55,557.327 L 866.077,552.467 C 865.913,551.927 865.886,551.51 865.995,551.216 C 866.104,550.922 866.41,550.775 866.914,550.775 C 867.07,550.775 867.246,550.799 867.44,550.847 C 867.635,550.895 867.813,550.949 867.975,551.009 L 867.925,549.893 C 867.66,549.809 867.376,549.734 867.074,549.668 C 866.772,549.602 866.483,549.569 866.207,549.569 Z" marker-start="none" marker-end="none"/>
   </g>
  </g>
  <g id="Group_4" fill-rule="nonzero" stroke-linejoin="round" stroke-linecap="round" stroke="none" stroke-width="0.25" fill="#000000">
   <g id="Group_5">
    <path d="M 1028.82,590.54 L 1032.4,602.348 L 1033.89,602.348 L 1030.31,590.54 L 1028.82,590.54 Z" marker-start="none" marker-end="none"/>
    <path d="M 1036.1,590.324 C 1035.63,590.324 1035.26,590.396 1034.99,590.54 C 1034.71,590.684 1034.52,590.882 1034.39,591.134 C 1034.27,591.386 1034.22,591.692 1034.25,592.052 C 1034.27,592.412 1034.35,592.808 1034.48,593.24 L 1035.95,598.082 L 1034.65,598.082 L 1034.99,599.198 L 1036.39,599.288 L 1037.31,601.736 L 1038.55,601.736 L 1037.81,599.288 L 1040.17,599.288 L 1039.8,598.082 L 1037.44,598.082 L 1035.97,593.222 C 1035.81,592.682 1035.78,592.265 1035.89,591.971 C 1036,591.677 1036.3,591.53 1036.81,591.53 C 1036.96,591.53 1037.14,591.554 1037.33,591.602 C 1037.53,591.65 1037.71,591.704 1037.87,591.764 L 1037.82,590.648 C 1037.55,590.564 1037.27,590.489 1036.97,590.423 C 1036.67,590.357 1036.38,590.324 1036.1,590.324 Z" marker-start="none" marker-end="none"/>
    <path d="M 1042.72,590.324 C 1042.14,590.324 1041.62,590.429 1041.17,590.639 C 1040.73,590.849 1040.37,591.149 1040.11,591.539 C 1039.85,591.929 1039.7,592.406 1039.66,592.97 C 1039.61,593.534 1039.7,594.176 1039.92,594.896 C 1040.13,595.616 1040.44,596.261 1040.84,596.831 C 1041.23,597.401 1041.67,597.884 1042.16,598.28 C 1042.64,598.676 1043.15,598.979 1043.68,599.189 C 1044.21,599.399 1044.73,599.504 1045.24,599.504 C 1045.79,599.504 1046.25,599.408 1046.63,599.216 C 1047.01,599.024 1047.3,598.748 1047.48,598.388 C 1047.67,598.028 1047.76,597.596 1047.76,597.092 C 1047.77,596.588 1047.67,596.024 1047.48,595.4 C 1047.44,595.244 1047.39,595.091 1047.34,594.941 C 1047.29,594.791 1047.23,594.662 1047.17,594.554 L 1041.27,594.554 C 1041.05,593.618 1041.11,592.877 1041.47,592.331 C 1041.83,591.785 1042.42,591.512 1043.26,591.512 C 1043.68,591.512 1044.09,591.575 1044.48,591.701 C 1044.87,591.827 1045.26,591.992 1045.65,592.196 L 1045.88,591.224 C 1045.42,590.984 1044.93,590.774 1044.41,590.594 C 1043.89,590.414 1043.32,590.324 1042.72,590.324 Z M 1041.57,595.616 L 1046.25,595.616 C 1046.52,596.504 1046.54,597.179 1046.3,597.641 C 1046.06,598.103 1045.6,598.334 1044.92,598.334 C 1044.61,598.334 1044.29,598.274 1043.97,598.154 C 1043.65,598.034 1043.35,597.857 1043.05,597.623 C 1042.75,597.389 1042.47,597.104 1042.22,596.768 C 1041.97,596.432 1041.75,596.048 1041.57,595.616 Z" marker-start="none" marker-end="none"/>
    <path d="M 1048.17,590.54 L 1050.82,599.288 L 1052.05,599.288 L 1051.79,598.028 L 1051.85,598.028 C 1052.36,598.448 1052.88,598.799 1053.42,599.081 C 1053.95,599.363 1054.48,599.504 1055.01,599.504 C 1055.68,599.504 1056.16,599.357 1056.45,599.063 C 1056.74,598.769 1056.9,598.358 1056.92,597.83 C 1057.53,598.334 1058.11,598.739 1058.66,599.045 C 1059.22,599.351 1059.76,599.504 1060.3,599.504 C 1061.2,599.504 1061.79,599.216 1062.05,598.64 C 1062.31,598.064 1062.27,597.212 1061.93,596.084 L 1060.25,590.54 L 1058.78,590.54 L 1060.4,595.886 C 1060.65,596.714 1060.69,597.311 1060.54,597.677 C 1060.39,598.043 1060.04,598.226 1059.48,598.226 C 1058.82,598.226 1057.96,597.776 1056.88,596.876 L 1054.96,590.54 L 1053.48,590.54 L 1055.1,595.886 C 1055.35,596.714 1055.4,597.311 1055.25,597.677 C 1055.1,598.043 1054.74,598.226 1054.17,598.226 C 1053.51,598.226 1052.65,597.776 1051.57,596.876 L 1049.65,590.54 L 1048.17,590.54 Z" marker-start="none" marker-end="none"/>
    <path d="M 1065.32,590.324 C 1064.69,590.324 1064.13,590.438 1063.64,590.666 C 1063.15,590.894 1062.74,591.182 1062.43,591.53 L 1063.46,592.52 C 1063.75,592.208 1064.07,591.956 1064.41,591.764 C 1064.76,591.572 1065.19,591.476 1065.72,591.476 C 1066.3,591.476 1066.77,591.608 1067.14,591.872 C 1067.51,592.136 1067.75,592.46 1067.86,592.844 C 1067.93,593.072 1067.93,593.27 1067.86,593.438 C 1067.79,593.606 1067.69,593.753 1067.54,593.879 C 1067.39,594.005 1067.21,594.116 1067,594.212 C 1066.79,594.308 1066.58,594.404 1066.37,594.5 C 1066.09,594.608 1065.81,594.731 1065.54,594.869 C 1065.27,595.007 1065.05,595.175 1064.86,595.373 C 1064.67,595.571 1064.54,595.802 1064.47,596.066 C 1064.39,596.33 1064.41,596.648 1064.52,597.02 C 1064.63,597.368 1064.8,597.695 1065.03,598.001 C 1065.26,598.307 1065.53,598.571 1065.86,598.793 C 1066.18,599.015 1066.55,599.189 1066.96,599.315 C 1067.37,599.441 1067.81,599.504 1068.28,599.504 C 1068.83,599.504 1069.31,599.408 1069.71,599.216 C 1070.12,599.024 1070.44,598.79 1070.7,598.514 L 1069.71,597.578 C 1069.48,597.806 1069.23,597.992 1068.94,598.136 C 1068.67,598.28 1068.33,598.352 1067.95,598.352 C 1067.4,598.352 1066.95,598.226 1066.62,597.974 C 1066.29,597.722 1066.07,597.428 1065.96,597.092 C 1065.9,596.888 1065.9,596.711 1065.97,596.561 C 1066.03,596.411 1066.13,596.279 1066.28,596.165 C 1066.42,596.051 1066.6,595.949 1066.81,595.859 C 1067.01,595.769 1067.23,595.676 1067.45,595.58 C 1067.73,595.46 1068,595.334 1068.28,595.202 C 1068.56,595.07 1068.79,594.905 1068.99,594.707 C 1069.18,594.509 1069.31,594.266 1069.39,593.978 C 1069.46,593.69 1069.44,593.342 1069.31,592.934 C 1069.2,592.574 1069.03,592.238 1068.8,591.926 C 1068.57,591.614 1068.28,591.338 1067.94,591.098 C 1067.6,590.858 1067.2,590.669 1066.76,590.531 C 1066.31,590.393 1065.83,590.324 1065.32,590.324 Z" marker-start="none" marker-end="none"/>
   </g>
   <g id="Group_6">
    <path d="M 1015.92,563.394 L 1019.12,573.942 L 1015.56,573.942 L 1015.94,575.202 L 1024.58,575.202 L 1024.19,573.942 L 1020.63,573.942 L 1017.44,563.394 L 1015.92,563.394 Z" marker-start="none" marker-end="none"/>
    <path d="M 1025.13,563.178 C 1024.59,563.178 1024.11,563.28 1023.69,563.484 C 1023.26,563.688 1022.92,563.985 1022.67,564.375 C 1022.41,564.765 1022.26,565.245 1022.21,565.815 C 1022.16,566.385 1022.25,567.03 1022.47,567.75 C 1022.69,568.482 1023,569.133 1023.39,569.703 C 1023.79,570.273 1024.23,570.756 1024.72,571.152 C 1025.21,571.548 1025.73,571.848 1026.28,572.052 C 1026.83,572.256 1027.37,572.358 1027.91,572.358 C 1028.45,572.358 1028.93,572.256 1029.36,572.052 C 1029.78,571.848 1030.12,571.548 1030.37,571.152 C 1030.63,570.756 1030.78,570.273 1030.83,569.703 C 1030.88,569.133 1030.79,568.482 1030.57,567.75 C 1030.35,567.03 1030.04,566.385 1029.65,565.815 C 1029.25,565.245 1028.81,564.765 1028.32,564.375 C 1027.83,563.985 1027.31,563.688 1026.76,563.484 C 1026.21,563.28 1025.67,563.178 1025.13,563.178 Z M 1025.5,564.402 C 1025.87,564.402 1026.24,564.483 1026.6,564.645 C 1026.96,564.807 1027.3,565.035 1027.61,565.329 C 1027.92,565.623 1028.2,565.974 1028.44,566.382 C 1028.69,566.79 1028.88,567.246 1029.04,567.75 C 1029.19,568.254 1029.27,568.713 1029.27,569.127 C 1029.28,569.541 1029.22,569.898 1029.09,570.198 C 1028.95,570.498 1028.76,570.729 1028.49,570.891 C 1028.23,571.053 1027.91,571.134 1027.54,571.134 C 1027.17,571.134 1026.8,571.053 1026.44,570.891 C 1026.08,570.729 1025.74,570.498 1025.43,570.198 C 1025.12,569.898 1024.84,569.541 1024.59,569.127 C 1024.35,568.713 1024.15,568.254 1024,567.75 C 1023.84,567.246 1023.77,566.79 1023.76,566.382 C 1023.76,565.974 1023.82,565.623 1023.96,565.329 C 1024.09,565.035 1024.29,564.807 1024.55,564.645 C 1024.81,564.483 1025.13,564.402 1025.5,564.402 Z" marker-start="none" marker-end="none"/>
    <path d="M 1033.93,563.178 C 1033.47,563.178 1033.1,563.25 1032.82,563.394 C 1032.55,563.538 1032.35,563.736 1032.23,563.988 C 1032.11,564.24 1032.06,564.546 1032.08,564.906 C 1032.11,565.266 1032.18,565.662 1032.32,566.094 L 1033.78,570.936 L 1032.49,570.936 L 1032.83,572.052 L 1034.22,572.142 L 1035.14,574.59 L 1036.38,574.59 L 1035.64,572.142 L 1038,572.142 L 1037.64,570.936 L 1035.28,570.936 L 1033.8,566.076 C 1033.64,565.536 1033.61,565.119 1033.72,564.825 C 1033.83,564.531 1034.14,564.384 1034.64,564.384 C 1034.8,564.384 1034.97,564.408 1035.17,564.456 C 1035.36,564.504 1035.54,564.558 1035.7,564.618 L 1035.65,563.502 C 1035.39,563.418 1035.1,563.343 1034.8,563.277 C 1034.5,563.211 1034.21,563.178 1033.93,563.178 Z" marker-start="none" marker-end="none"/>
    <path d="M 1038.9,563.178 C 1038.17,563.178 1037.63,563.394 1037.27,563.826 C 1036.92,564.258 1036.86,564.87 1037.1,565.662 C 1037.39,566.622 1038.04,567.357 1039.04,567.867 C 1040.05,568.377 1041.52,568.734 1043.45,568.938 C 1043.54,569.214 1043.59,569.484 1043.62,569.748 C 1043.65,570.012 1043.62,570.246 1043.55,570.45 C 1043.48,570.654 1043.35,570.819 1043.15,570.945 C 1042.96,571.071 1042.68,571.134 1042.32,571.134 C 1041.82,571.134 1041.31,571.038 1040.81,570.846 C 1040.31,570.654 1039.85,570.438 1039.43,570.198 L 1039.16,571.224 C 1039.65,571.488 1040.22,571.743 1040.89,571.989 C 1041.55,572.235 1042.24,572.358 1042.94,572.358 C 1044.01,572.358 1044.69,572.031 1044.97,571.377 C 1045.25,570.723 1045.22,569.85 1044.89,568.758 L 1043.27,563.394 L 1042.05,563.394 L 1042.24,564.438 L 1042.18,564.438 C 1041.66,564.09 1041.12,563.793 1040.56,563.547 C 1040.01,563.301 1039.45,563.178 1038.9,563.178 Z M 1039.69,564.366 C 1040.11,564.366 1040.54,564.465 1040.97,564.663 C 1041.4,564.861 1041.89,565.152 1042.42,565.536 L 1043.16,567.966 C 1042.4,567.87 1041.75,567.756 1041.21,567.624 C 1040.67,567.492 1040.22,567.336 1039.86,567.156 C 1039.5,566.976 1039.22,566.769 1039.01,566.535 C 1038.8,566.301 1038.65,566.046 1038.57,565.77 C 1038.42,565.266 1038.46,564.906 1038.69,564.69 C 1038.93,564.474 1039.26,564.366 1039.69,564.366 Z" marker-start="none" marker-end="none"/>
    <path d="M 1047.52,563.178 C 1046.96,563.178 1046.61,563.346 1046.47,563.682 C 1046.33,564.018 1046.36,564.51 1046.56,565.158 L 1049.9,576.21 L 1051.38,576.21 L 1048,565.05 C 1047.93,564.81 1047.92,564.642 1047.97,564.546 C 1048.03,564.45 1048.11,564.402 1048.22,564.402 C 1048.26,564.402 1048.31,564.402 1048.35,564.402 C 1048.39,564.402 1048.46,564.414 1048.55,564.438 L 1048.41,563.322 C 1048.3,563.274 1048.18,563.238 1048.04,563.214 C 1047.9,563.19 1047.72,563.178 1047.52,563.178 Z" marker-start="none" marker-end="none"/>
    <path d="M 1054.09,563.178 C 1053.5,563.178 1052.98,563.283 1052.54,563.493 C 1052.09,563.703 1051.74,564.003 1051.48,564.393 C 1051.22,564.783 1051.07,565.26 1051.02,565.824 C 1050.98,566.388 1051.06,567.03 1051.28,567.75 C 1051.5,568.47 1051.81,569.115 1052.2,569.685 C 1052.6,570.255 1053.04,570.738 1053.52,571.134 C 1054.01,571.53 1054.52,571.833 1055.05,572.043 C 1055.58,572.253 1056.1,572.358 1056.6,572.358 C 1057.15,572.358 1057.62,572.262 1058,572.07 C 1058.38,571.878 1058.66,571.602 1058.85,571.242 C 1059.03,570.882 1059.13,570.45 1059.13,569.946 C 1059.13,569.442 1059.04,568.878 1058.85,568.254 C 1058.8,568.098 1058.75,567.945 1058.7,567.795 C 1058.65,567.645 1058.6,567.516 1058.54,567.408 L 1052.64,567.408 C 1052.41,566.472 1052.48,565.731 1052.83,565.185 C 1053.19,564.639 1053.79,564.366 1054.63,564.366 C 1055.05,564.366 1055.45,564.429 1055.85,564.555 C 1056.24,564.681 1056.63,564.846 1057.01,565.05 L 1057.24,564.078 C 1056.79,563.838 1056.3,563.628 1055.77,563.448 C 1055.25,563.268 1054.69,563.178 1054.09,563.178 Z M 1052.94,568.47 L 1057.62,568.47 C 1057.89,569.358 1057.9,570.033 1057.67,570.495 C 1057.43,570.957 1056.97,571.188 1056.28,571.188 C 1055.97,571.188 1055.66,571.128 1055.34,571.008 C 1055.02,570.888 1054.71,570.711 1054.41,570.477 C 1054.11,570.243 1053.84,569.958 1053.59,569.622 C 1053.33,569.286 1053.12,568.902 1052.94,568.47 Z" marker-start="none" marker-end="none"/>
    <path d="M 1062.46,563.178 C 1061.36,563.178 1060.6,563.574 1060.18,564.366 C 1059.77,565.158 1059.79,566.286 1060.23,567.75 C 1060.44,568.458 1060.74,569.097 1061.12,569.667 C 1061.51,570.237 1061.93,570.72 1062.4,571.116 C 1062.87,571.512 1063.36,571.818 1063.89,572.034 C 1064.41,572.25 1064.92,572.358 1065.42,572.358 C 1065.93,572.358 1066.34,572.268 1066.66,572.088 C 1066.97,571.908 1067.28,571.662 1067.57,571.35 L 1067.95,572.844 L 1068.97,576.21 L 1070.46,576.21 L 1066.58,563.394 L 1065.35,563.394 L 1065.54,564.42 L 1065.48,564.42 C 1065.03,564.084 1064.55,563.793 1064.02,563.547 C 1063.5,563.301 1062.98,563.178 1062.46,563.178 Z M 1063.16,564.42 C 1063.57,564.42 1063.98,564.519 1064.4,564.717 C 1064.82,564.915 1065.28,565.218 1065.76,565.626 L 1067.14,570.198 C 1066.87,570.534 1066.59,570.771 1066.29,570.909 C 1065.99,571.047 1065.66,571.116 1065.3,571.116 C 1064.95,571.116 1064.6,571.035 1064.24,570.873 C 1063.89,570.711 1063.55,570.483 1063.24,570.189 C 1062.92,569.895 1062.63,569.544 1062.38,569.136 C 1062.12,568.728 1061.92,568.272 1061.76,567.768 C 1061.44,566.712 1061.41,565.89 1061.65,565.302 C 1061.89,564.714 1062.39,564.42 1063.16,564.42 Z" marker-start="none" marker-end="none"/>
   </g>
  </g>
  <g id="Group_7" fill-rule="nonzero" stroke-linejoin="round" stroke-linecap="round" stroke="none" stroke-width="0.25" fill="#000000">
   <g id="Group_8">
    <path d="M 1213.2,603.861 C 1212.37,603.861 1211.65,604.017 1211.04,604.329 C 1210.42,604.641 1209.94,605.067 1209.59,605.607 L 1210.8,606.651 C 1211.09,606.207 1211.47,605.85 1211.96,605.58 C 1212.45,605.31 1213,605.175 1213.61,605.175 C 1214.39,605.175 1215.05,605.352 1215.59,605.706 C 1216.13,606.06 1216.49,606.525 1216.66,607.101 C 1216.75,607.401 1216.78,607.656 1216.74,607.866 C 1216.7,608.076 1216.62,608.256 1216.49,608.406 C 1216.36,608.556 1216.2,608.691 1215.99,608.811 C 1215.79,608.931 1215.57,609.057 1215.33,609.189 L 1213.87,609.927 C 1213.63,610.047 1213.39,610.191 1213.15,610.359 C 1212.91,610.527 1212.72,610.731 1212.56,610.971 C 1212.41,611.211 1212.31,611.496 1212.26,611.826 C 1212.22,612.156 1212.26,612.537 1212.39,612.969 C 1212.53,613.413 1212.75,613.827 1213.05,614.211 C 1213.35,614.595 1213.71,614.928 1214.13,615.21 C 1214.54,615.492 1215,615.711 1215.49,615.867 C 1215.99,616.023 1216.51,616.101 1217.05,616.101 C 1217.76,616.101 1218.37,615.966 1218.89,615.696 C 1219.41,615.426 1219.81,615.075 1220.1,614.643 L 1219,613.671 C 1218.74,614.019 1218.43,614.292 1218.05,614.49 C 1217.67,614.688 1217.2,614.787 1216.65,614.787 C 1215.99,614.787 1215.41,614.634 1214.92,614.328 C 1214.43,614.022 1214.1,613.599 1213.93,613.059 C 1213.85,612.771 1213.83,612.528 1213.88,612.33 C 1213.94,612.132 1214.04,611.958 1214.18,611.808 C 1214.33,611.658 1214.5,611.526 1214.69,611.412 C 1214.89,611.298 1215.09,611.193 1215.3,611.097 L 1216.76,610.377 C 1217.05,610.233 1217.32,610.068 1217.56,609.882 C 1217.8,609.696 1218,609.48 1218.14,609.234 C 1218.28,608.988 1218.36,608.7 1218.39,608.37 C 1218.41,608.04 1218.36,607.659 1218.23,607.227 C 1218.09,606.759 1217.86,606.321 1217.55,605.913 C 1217.24,605.505 1216.87,605.148 1216.43,604.842 C 1215.99,604.536 1215.5,604.296 1214.95,604.122 C 1214.41,603.948 1213.82,603.861 1213.2,603.861 Z" marker-start="none" marker-end="none"/>
    <path d="M 1221.41,603.861 C 1220.68,603.861 1220.13,604.077 1219.78,604.509 C 1219.42,604.941 1219.36,605.553 1219.6,606.345 C 1219.9,607.305 1220.54,608.04 1221.55,608.55 C 1222.56,609.06 1224.03,609.417 1225.96,609.621 C 1226.05,609.897 1226.1,610.167 1226.13,610.431 C 1226.15,610.695 1226.13,610.929 1226.06,611.133 C 1225.99,611.337 1225.86,611.502 1225.66,611.628 C 1225.46,611.754 1225.19,611.817 1224.83,611.817 C 1224.32,611.817 1223.82,611.721 1223.32,611.529 C 1222.82,611.337 1222.35,611.121 1221.93,610.881 L 1221.67,611.907 C 1222.16,612.171 1222.73,612.426 1223.39,612.672 C 1224.06,612.918 1224.74,613.041 1225.45,613.041 C 1226.52,613.041 1227.19,612.714 1227.47,612.06 C 1227.76,611.406 1227.73,610.533 1227.4,609.441 L 1225.78,604.077 L 1224.55,604.077 L 1224.74,605.121 L 1224.69,605.121 C 1224.16,604.773 1223.62,604.476 1223.07,604.23 C 1222.51,603.984 1221.96,603.861 1221.41,603.861 Z M 1222.2,605.049 C 1222.62,605.049 1223.05,605.148 1223.48,605.346 C 1223.91,605.544 1224.39,605.835 1224.93,606.219 L 1225.67,608.649 C 1224.91,608.553 1224.26,608.439 1223.72,608.307 C 1223.18,608.175 1222.73,608.019 1222.37,607.839 C 1222.01,607.659 1221.73,607.452 1221.52,607.218 C 1221.31,606.984 1221.16,606.729 1221.08,606.453 C 1220.92,605.949 1220.96,605.589 1221.2,605.373 C 1221.43,605.157 1221.77,605.049 1222.2,605.049 Z" marker-start="none" marker-end="none"/>
    <path d="M 1230.03,603.861 C 1229.46,603.861 1229.11,604.029 1228.97,604.365 C 1228.84,604.701 1228.87,605.193 1229.06,605.841 L 1232.41,616.893 L 1233.89,616.893 L 1230.51,605.733 C 1230.43,605.493 1230.42,605.325 1230.48,605.229 C 1230.53,605.133 1230.62,605.085 1230.72,605.085 C 1230.77,605.085 1230.82,605.085 1230.86,605.085 C 1230.9,605.085 1230.97,605.097 1231.06,605.121 L 1230.92,604.005 C 1230.81,603.957 1230.68,603.921 1230.54,603.897 C 1230.4,603.873 1230.23,603.861 1230.03,603.861 Z" marker-start="none" marker-end="none"/>
    <path d="M 1236.6,603.861 C 1236.01,603.861 1235.49,603.966 1235.04,604.176 C 1234.6,604.386 1234.25,604.686 1233.99,605.076 C 1233.73,605.466 1233.57,605.943 1233.53,606.507 C 1233.48,607.071 1233.57,607.713 1233.79,608.433 C 1234.01,609.153 1234.31,609.798 1234.71,610.368 C 1235.1,610.938 1235.54,611.421 1236.03,611.817 C 1236.51,612.213 1237.02,612.516 1237.55,612.726 C 1238.09,612.936 1238.6,613.041 1239.11,613.041 C 1239.66,613.041 1240.13,612.945 1240.51,612.753 C 1240.89,612.561 1241.17,612.285 1241.35,611.925 C 1241.54,611.565 1241.63,611.133 1241.64,610.629 C 1241.64,610.125 1241.55,609.561 1241.36,608.937 C 1241.31,608.781 1241.26,608.628 1241.21,608.478 C 1241.16,608.328 1241.1,608.199 1241.05,608.091 L 1235.14,608.091 C 1234.92,607.155 1234.98,606.414 1235.34,605.868 C 1235.7,605.322 1236.3,605.049 1237.14,605.049 C 1237.56,605.049 1237.96,605.112 1238.35,605.238 C 1238.75,605.364 1239.14,605.529 1239.52,605.733 L 1239.75,604.761 C 1239.29,604.521 1238.8,604.311 1238.28,604.131 C 1237.76,603.951 1237.2,603.861 1236.6,603.861 Z M 1235.44,609.153 L 1240.13,609.153 C 1240.39,610.041 1240.41,610.716 1240.17,611.178 C 1239.93,611.64 1239.47,611.871 1238.79,611.871 C 1238.48,611.871 1238.16,611.811 1237.84,611.691 C 1237.53,611.571 1237.22,611.394 1236.92,611.16 C 1236.62,610.926 1236.34,610.641 1236.09,610.305 C 1235.84,609.969 1235.62,609.585 1235.44,609.153 Z" marker-start="none" marker-end="none"/>
    <path d="M 1244.27,603.861 C 1243.64,603.861 1243.08,603.975 1242.59,604.203 C 1242.09,604.431 1241.69,604.719 1241.37,605.067 L 1242.41,606.057 C 1242.7,605.745 1243.02,605.493 1243.36,605.301 C 1243.7,605.109 1244.14,605.013 1244.67,605.013 C 1245.25,605.013 1245.72,605.145 1246.09,605.409 C 1246.45,605.673 1246.69,605.997 1246.81,606.381 C 1246.88,606.609 1246.88,606.807 1246.81,606.975 C 1246.74,607.143 1246.63,607.29 1246.49,607.416 C 1246.34,607.542 1246.16,607.653 1245.95,607.749 C 1245.74,607.845 1245.53,607.941 1245.32,608.037 C 1245.04,608.145 1244.76,608.268 1244.49,608.406 C 1244.22,608.544 1243.99,608.712 1243.81,608.91 C 1243.62,609.108 1243.49,609.339 1243.41,609.603 C 1243.34,609.867 1243.36,610.185 1243.47,610.557 C 1243.57,610.905 1243.74,611.232 1243.97,611.538 C 1244.2,611.844 1244.48,612.108 1244.81,612.33 C 1245.13,612.552 1245.5,612.726 1245.91,612.852 C 1246.32,612.978 1246.76,613.041 1247.23,613.041 C 1247.78,613.041 1248.26,612.945 1248.66,612.753 C 1249.07,612.561 1249.39,612.327 1249.65,612.051 L 1248.66,611.115 C 1248.43,611.343 1248.17,611.529 1247.89,611.673 C 1247.61,611.817 1247.28,611.889 1246.9,611.889 C 1246.34,611.889 1245.9,611.763 1245.57,611.511 C 1245.23,611.259 1245.01,610.965 1244.91,610.629 C 1244.85,610.425 1244.85,610.248 1244.91,610.098 C 1244.98,609.948 1245.08,609.816 1245.23,609.702 C 1245.37,609.588 1245.55,609.486 1245.75,609.396 C 1245.96,609.306 1246.18,609.213 1246.4,609.117 C 1246.67,608.997 1246.95,608.871 1247.23,608.739 C 1247.51,608.607 1247.74,608.442 1247.93,608.244 C 1248.13,608.046 1248.26,607.803 1248.33,607.515 C 1248.41,607.227 1248.38,606.879 1248.26,606.471 C 1248.15,606.111 1247.98,605.775 1247.75,605.463 C 1247.52,605.151 1247.23,604.875 1246.89,604.635 C 1246.54,604.395 1246.15,604.206 1245.7,604.068 C 1245.26,603.93 1244.78,603.861 1244.27,603.861 Z" marker-start="none" marker-end="none"/>
   </g>
   <g id="Group_9">
    <path d="M 1211.36,576.931 L 1214.56,587.479 L 1211,587.479 L 1211.38,588.739 L 1220.02,588.739 L 1219.64,587.479 L 1216.07,587.479 L 1212.88,576.931 L 1211.36,576.931 Z" marker-start="none" marker-end="none"/>
    <path d="M 1219.06,576.715 C 1218.33,576.715 1217.79,576.931 1217.43,577.363 C 1217.08,577.795 1217.02,578.407 1217.26,579.199 C 1217.55,580.159 1218.2,580.894 1219.2,581.404 C 1220.21,581.914 1221.68,582.271 1223.61,582.475 C 1223.7,582.751 1223.75,583.021 1223.78,583.285 C 1223.81,583.549 1223.78,583.783 1223.71,583.987 C 1223.64,584.191 1223.51,584.356 1223.31,584.482 C 1223.12,584.608 1222.84,584.671 1222.48,584.671 C 1221.98,584.671 1221.47,584.575 1220.97,584.383 C 1220.47,584.191 1220.01,583.975 1219.59,583.735 L 1219.32,584.761 C 1219.81,585.025 1220.38,585.28 1221.05,585.526 C 1221.71,585.772 1222.4,585.895 1223.1,585.895 C 1224.17,585.895 1224.85,585.568 1225.13,584.914 C 1225.41,584.26 1225.39,583.387 1225.05,582.295 L 1223.43,576.931 L 1222.2,576.931 L 1222.4,577.975 L 1222.34,577.975 C 1221.82,577.627 1221.28,577.33 1220.72,577.084 C 1220.17,576.838 1219.61,576.715 1219.06,576.715 Z M 1219.85,577.903 C 1220.27,577.903 1220.7,578.002 1221.13,578.2 C 1221.56,578.398 1222.05,578.689 1222.58,579.073 L 1223.32,581.503 C 1222.56,581.407 1221.91,581.293 1221.37,581.161 C 1220.83,581.029 1220.38,580.873 1220.02,580.693 C 1219.66,580.513 1219.38,580.306 1219.17,580.072 C 1218.96,579.838 1218.81,579.583 1218.73,579.307 C 1218.58,578.803 1218.62,578.443 1218.85,578.227 C 1219.09,578.011 1219.42,577.903 1219.85,577.903 Z" marker-start="none" marker-end="none"/>
    <path d="M 1224.96,576.931 L 1229.2,581.503 L 1227.82,585.679 L 1229.43,585.679 L 1230.01,583.753 C 1230.07,583.513 1230.14,583.27 1230.2,583.024 C 1230.27,582.778 1230.35,582.535 1230.43,582.295 L 1230.51,582.295 C 1230.71,582.535 1230.92,582.778 1231.12,583.024 C 1231.33,583.27 1231.54,583.513 1231.74,583.753 L 1233.39,585.679 L 1234.93,585.679 L 1230.97,581.341 L 1232.48,576.931 L 1230.88,576.931 L 1230.22,578.965 C 1230.14,579.229 1230.07,579.493 1229.99,579.757 C 1229.91,580.021 1229.83,580.279 1229.74,580.531 L 1229.67,580.531 C 1229.43,580.279 1229.21,580.024 1228.98,579.766 C 1228.76,579.508 1228.54,579.241 1228.31,578.965 L 1226.5,576.931 L 1224.96,576.931 Z" marker-start="none" marker-end="none"/>
   </g>
   <g id="Group_10">
    <path d="M 1177.76,549.569 C 1177.01,549.569 1176.37,549.707 1175.83,549.983 C 1175.29,550.259 1174.87,550.658 1174.57,551.18 C 1174.26,551.702 1174.1,552.344 1174.07,553.106 C 1174.04,553.868 1174.17,554.729 1174.46,555.689 C 1174.75,556.637 1175.14,557.489 1175.64,558.245 C 1176.13,559.001 1176.69,559.643 1177.32,560.171 C 1177.94,560.699 1178.62,561.104 1179.34,561.386 C 1180.06,561.668 1180.8,561.809 1181.56,561.809 C 1182.28,561.809 1182.87,561.662 1183.32,561.368 C 1183.78,561.074 1184.12,560.735 1184.36,560.351 L 1183.25,559.379 C 1183.04,559.715 1182.77,559.985 1182.43,560.189 C 1182.1,560.393 1181.68,560.495 1181.18,560.495 C 1180.61,560.495 1180.07,560.384 1179.55,560.162 C 1179.02,559.94 1178.54,559.622 1178.09,559.208 C 1177.64,558.794 1177.24,558.293 1176.88,557.705 C 1176.53,557.117 1176.25,556.457 1176.02,555.725 C 1175.8,554.981 1175.68,554.312 1175.68,553.718 C 1175.67,553.124 1175.76,552.617 1175.94,552.197 C 1176.13,551.777 1176.41,551.453 1176.79,551.225 C 1177.17,550.997 1177.65,550.883 1178.21,550.883 C 1178.79,550.883 1179.33,551 1179.83,551.234 C 1180.33,551.468 1180.84,551.795 1181.35,552.215 L 1181.89,551.279 C 1181.26,550.739 1180.61,550.319 1179.93,550.019 C 1179.25,549.719 1178.53,549.569 1177.76,549.569 Z" marker-start="none" marker-end="none"/>
    <path d="M 1185.44,549.569 C 1184.71,549.569 1184.17,549.785 1183.81,550.217 C 1183.45,550.649 1183.4,551.261 1183.64,552.053 C 1183.93,553.013 1184.58,553.748 1185.58,554.258 C 1186.59,554.768 1188.06,555.125 1189.99,555.329 C 1190.08,555.605 1190.13,555.875 1190.16,556.139 C 1190.18,556.403 1190.16,556.637 1190.09,556.841 C 1190.02,557.045 1189.89,557.21 1189.69,557.336 C 1189.5,557.462 1189.22,557.525 1188.86,557.525 C 1188.36,557.525 1187.85,557.429 1187.35,557.237 C 1186.85,557.045 1186.39,556.829 1185.97,556.589 L 1185.7,557.615 C 1186.19,557.879 1186.76,558.134 1187.43,558.38 C 1188.09,558.626 1188.78,558.749 1189.48,558.749 C 1190.55,558.749 1191.23,558.422 1191.51,557.768 C 1191.79,557.114 1191.77,556.241 1191.43,555.149 L 1189.81,549.785 L 1188.58,549.785 L 1188.78,550.829 L 1188.72,550.829 C 1188.19,550.481 1187.66,550.184 1187.1,549.938 C 1186.55,549.692 1185.99,549.569 1185.44,549.569 Z M 1186.23,550.757 C 1186.65,550.757 1187.08,550.856 1187.51,551.054 C 1187.94,551.252 1188.43,551.543 1188.96,551.927 L 1189.7,554.357 C 1188.94,554.261 1188.29,554.147 1187.75,554.015 C 1187.21,553.883 1186.76,553.727 1186.4,553.547 C 1186.04,553.367 1185.76,553.16 1185.55,552.926 C 1185.34,552.692 1185.19,552.437 1185.11,552.161 C 1184.96,551.657 1185,551.297 1185.23,551.081 C 1185.47,550.865 1185.8,550.757 1186.23,550.757 Z" marker-start="none" marker-end="none"/>
    <path d="M 1194.06,549.569 C 1193.5,549.569 1193.15,549.737 1193.01,550.073 C 1192.87,550.409 1192.9,550.901 1193.1,551.549 L 1196.44,562.601 L 1197.92,562.601 L 1194.54,551.441 C 1194.46,551.201 1194.46,551.033 1194.51,550.937 C 1194.57,550.841 1194.65,550.793 1194.76,550.793 C 1194.8,550.793 1194.85,550.793 1194.89,550.793 C 1194.93,550.793 1195,550.805 1195.09,550.829 L 1194.95,549.713 C 1194.84,549.665 1194.71,549.629 1194.58,549.605 C 1194.44,549.581 1194.27,549.569 1194.06,549.569 Z" marker-start="none" marker-end="none"/>
    <path d="M 1200.54,549.569 C 1199.96,549.569 1199.45,549.671 1199.01,549.875 C 1198.57,550.079 1198.22,550.376 1197.98,550.766 C 1197.73,551.156 1197.59,551.636 1197.55,552.206 C 1197.51,552.776 1197.6,553.421 1197.82,554.141 C 1198.04,554.873 1198.35,555.524 1198.75,556.094 C 1199.16,556.664 1199.61,557.147 1200.11,557.543 C 1200.62,557.939 1201.15,558.239 1201.73,558.443 C 1202.3,558.647 1202.87,558.749 1203.43,558.749 C 1204.01,558.749 1204.47,558.647 1204.81,558.443 C 1205.16,558.239 1205.44,557.999 1205.67,557.723 L 1204.62,556.751 C 1204.44,556.979 1204.23,557.165 1203.99,557.309 C 1203.75,557.453 1203.46,557.525 1203.11,557.525 C 1202.72,557.525 1202.33,557.444 1201.94,557.282 C 1201.56,557.12 1201.2,556.889 1200.87,556.589 C 1200.54,556.289 1200.24,555.932 1199.98,555.518 C 1199.71,555.104 1199.5,554.645 1199.35,554.141 C 1199.2,553.637 1199.13,553.181 1199.13,552.773 C 1199.14,552.365 1199.22,552.014 1199.36,551.72 C 1199.51,551.426 1199.73,551.198 1200.01,551.036 C 1200.3,550.874 1200.64,550.793 1201.04,550.793 C 1201.44,550.793 1201.85,550.88 1202.24,551.054 C 1202.64,551.228 1203.01,551.435 1203.36,551.675 L 1203.7,550.685 C 1203.2,550.337 1202.68,550.064 1202.14,549.866 C 1201.6,549.668 1201.07,549.569 1200.54,549.569 Z" marker-start="none" marker-end="none"/>
    <path d="M 1207.85,549.569 C 1206.91,549.569 1206.32,549.857 1206.07,550.433 C 1205.82,551.009 1205.86,551.861 1206.2,552.989 L 1207.88,558.533 L 1209.38,558.533 L 1207.76,553.187 C 1207.51,552.359 1207.45,551.762 1207.6,551.396 C 1207.75,551.03 1208.11,550.847 1208.68,550.847 C 1209.14,550.847 1209.58,550.964 1210,551.198 C 1210.42,551.432 1210.91,551.807 1211.49,552.323 L 1213.37,558.533 L 1214.85,558.533 L 1212.2,549.785 L 1210.97,549.785 L 1211.26,551.153 L 1211.21,551.153 C 1210.65,550.673 1210.11,550.289 1209.57,550.001 C 1209.04,549.713 1208.46,549.569 1207.85,549.569 Z" marker-start="none" marker-end="none"/>
    <path d="M 1216.65,549.569 C 1216.09,549.569 1215.73,549.737 1215.6,550.073 C 1215.46,550.409 1215.49,550.901 1215.68,551.549 L 1219.03,562.601 L 1220.51,562.601 L 1217.13,551.441 C 1217.05,551.201 1217.05,551.033 1217.1,550.937 C 1217.15,550.841 1217.24,550.793 1217.34,550.793 C 1217.39,550.793 1217.44,550.793 1217.48,550.793 C 1217.52,550.793 1217.59,550.805 1217.68,550.829 L 1217.54,549.713 C 1217.43,549.665 1217.3,549.629 1217.16,549.605 C 1217.03,549.581 1216.85,549.569 1216.65,549.569 Z" marker-start="none" marker-end="none"/>
    <path d="M 1221.69,549.569 C 1220.95,549.569 1220.41,549.785 1220.06,550.217 C 1219.7,550.649 1219.64,551.261 1219.88,552.053 C 1220.18,553.013 1220.82,553.748 1221.83,554.258 C 1222.84,554.768 1224.31,555.125 1226.24,555.329 C 1226.32,555.605 1226.38,555.875 1226.41,556.139 C 1226.43,556.403 1226.41,556.637 1226.34,556.841 C 1226.27,557.045 1226.14,557.21 1225.94,557.336 C 1225.74,557.462 1225.47,557.525 1225.11,557.525 C 1224.6,557.525 1224.1,557.429 1223.6,557.237 C 1223.09,557.045 1222.63,556.829 1222.21,556.589 L 1221.95,557.615 C 1222.43,557.879 1223.01,558.134 1223.67,558.38 C 1224.34,558.626 1225.02,558.749 1225.73,558.749 C 1226.8,558.749 1227.47,558.422 1227.75,557.768 C 1228.04,557.114 1228.01,556.241 1227.68,555.149 L 1226.05,549.785 L 1224.83,549.785 L 1225.02,550.829 L 1224.97,550.829 C 1224.44,550.481 1223.9,550.184 1223.35,549.938 C 1222.79,549.692 1222.24,549.569 1221.69,549.569 Z M 1222.48,550.757 C 1222.9,550.757 1223.33,550.856 1223.76,551.054 C 1224.19,551.252 1224.67,551.543 1225.21,551.927 L 1225.95,554.357 C 1225.18,554.261 1224.54,554.147 1224,554.015 C 1223.46,553.883 1223.01,553.727 1222.65,553.547 C 1222.29,553.367 1222,553.16 1221.8,552.926 C 1221.59,552.692 1221.44,552.437 1221.36,552.161 C 1221.2,551.657 1221.25,551.297 1221.48,551.081 C 1221.71,550.865 1222.05,550.757 1222.48,550.757 Z" marker-start="none" marker-end="none"/>
    <path d="M 1231.24,549.569 C 1230.78,549.569 1230.41,549.641 1230.13,549.785 C 1229.86,549.929 1229.66,550.127 1229.54,550.379 C 1229.42,550.631 1229.37,550.937 1229.39,551.297 C 1229.42,551.657 1229.5,552.053 1229.63,552.485 L 1231.09,557.327 L 1229.8,557.327 L 1230.14,558.443 L 1231.53,558.533 L 1232.45,560.981 L 1233.69,560.981 L 1232.95,558.533 L 1235.31,558.533 L 1234.94,557.327 L 1232.59,557.327 L 1231.11,552.467 C 1230.95,551.927 1230.92,551.51 1231.03,551.216 C 1231.14,550.922 1231.45,550.775 1231.95,550.775 C 1232.11,550.775 1232.28,550.799 1232.48,550.847 C 1232.67,550.895 1232.85,550.949 1233.01,551.009 L 1232.96,549.893 C 1232.7,549.809 1232.41,549.734 1232.11,549.668 C 1231.81,549.602 1231.52,549.569 1231.24,549.569 Z" marker-start="none" marker-end="none"/>
    <path d="M 1237.87,549.569 C 1237.28,549.569 1236.76,549.674 1236.32,549.884 C 1235.87,550.094 1235.52,550.394 1235.26,550.784 C 1235,551.174 1234.84,551.651 1234.8,552.215 C 1234.75,552.779 1234.84,553.421 1235.06,554.141 C 1235.28,554.861 1235.58,555.506 1235.98,556.076 C 1236.37,556.646 1236.81,557.129 1237.3,557.525 C 1237.79,557.921 1238.29,558.224 1238.83,558.434 C 1239.36,558.644 1239.88,558.749 1240.38,558.749 C 1240.93,558.749 1241.4,558.653 1241.78,558.461 C 1242.16,558.269 1242.44,557.993 1242.62,557.633 C 1242.81,557.273 1242.9,556.841 1242.91,556.337 C 1242.91,555.833 1242.82,555.269 1242.63,554.645 C 1242.58,554.489 1242.53,554.336 1242.48,554.186 C 1242.43,554.036 1242.37,553.907 1242.32,553.799 L 1236.41,553.799 C 1236.19,552.863 1236.26,552.122 1236.61,551.576 C 1236.97,551.03 1237.57,550.757 1238.41,550.757 C 1238.83,550.757 1239.23,550.82 1239.63,550.946 C 1240.02,551.072 1240.41,551.237 1240.79,551.441 L 1241.02,550.469 C 1240.56,550.229 1240.07,550.019 1239.55,549.839 C 1239.03,549.659 1238.47,549.569 1237.87,549.569 Z M 1236.72,554.861 L 1241.4,554.861 C 1241.67,555.749 1241.68,556.424 1241.44,556.886 C 1241.2,557.348 1240.74,557.579 1240.06,557.579 C 1239.75,557.579 1239.43,557.519 1239.12,557.399 C 1238.8,557.279 1238.49,557.102 1238.19,556.868 C 1237.89,556.634 1237.61,556.349 1237.36,556.013 C 1237.11,555.677 1236.9,555.293 1236.72,554.861 Z" marker-start="none" marker-end="none"/>
    <path d="M 1246.24,549.569 C 1245.14,549.569 1244.38,549.965 1243.96,550.757 C 1243.55,551.549 1243.56,552.677 1244.01,554.141 C 1244.22,554.849 1244.52,555.488 1244.9,556.058 C 1245.29,556.628 1245.71,557.111 1246.18,557.507 C 1246.65,557.903 1247.14,558.209 1247.66,558.425 C 1248.18,558.641 1248.7,558.749 1249.2,558.749 C 1249.7,558.749 1250.12,558.659 1250.43,558.479 C 1250.75,558.299 1251.05,558.053 1251.34,557.741 L 1251.72,559.235 L 1252.74,562.601 L 1254.24,562.601 L 1250.35,549.785 L 1249.13,549.785 L 1249.32,550.811 L 1249.26,550.811 C 1248.81,550.475 1248.32,550.184 1247.8,549.938 C 1247.28,549.692 1246.76,549.569 1246.24,549.569 Z M 1246.94,550.811 C 1247.35,550.811 1247.76,550.91 1248.18,551.108 C 1248.6,551.306 1249.05,551.609 1249.54,552.017 L 1250.92,556.589 C 1250.65,556.925 1250.37,557.162 1250.07,557.3 C 1249.77,557.438 1249.44,557.507 1249.08,557.507 C 1248.73,557.507 1248.38,557.426 1248.02,557.264 C 1247.67,557.102 1247.33,556.874 1247.01,556.58 C 1246.7,556.286 1246.41,555.935 1246.15,555.527 C 1245.9,555.119 1245.69,554.663 1245.54,554.159 C 1245.22,553.103 1245.18,552.281 1245.43,551.693 C 1245.67,551.105 1246.17,550.811 1246.94,550.811 Z" marker-start="none" marker-end="none"/>
   </g>
  </g>
  <g id="Group_11" fill-rule="nonzero" stroke-linejoin="round" stroke-linecap="round" stroke="none" stroke-width="0.25" fill="#000000">
   <g id="Group_12">
    <path d="M 1386.9,589.784 C 1386.15,589.784 1385.52,589.928 1384.98,590.216 C 1384.45,590.504 1384.05,590.915 1383.77,591.449 C 1383.48,591.983 1383.33,592.631 1383.32,593.393 C 1383.3,594.155 1383.44,595.01 1383.73,595.958 C 1384.01,596.906 1384.39,597.755 1384.87,598.505 C 1385.34,599.255 1385.88,599.891 1386.48,600.413 C 1387.08,600.935 1387.74,601.334 1388.44,601.61 C 1389.14,601.886 1389.86,602.024 1390.61,602.024 C 1391.35,602.024 1391.99,601.883 1392.52,601.601 C 1393.05,601.319 1393.46,600.917 1393.76,600.395 C 1394.05,599.873 1394.2,599.237 1394.22,598.487 C 1394.24,597.737 1394.11,596.894 1393.83,595.958 C 1393.54,595.01 1393.16,594.155 1392.68,593.393 C 1392.2,592.631 1391.66,591.983 1391.05,591.449 C 1390.43,590.915 1389.78,590.504 1389.07,590.216 C 1388.37,589.928 1387.64,589.784 1386.9,589.784 Z M 1387.29,591.098 C 1387.82,591.098 1388.33,591.212 1388.83,591.44 C 1389.32,591.668 1389.79,591.995 1390.22,592.421 C 1390.66,592.847 1391.05,593.357 1391.4,593.951 C 1391.75,594.545 1392.03,595.214 1392.26,595.958 C 1392.48,596.69 1392.6,597.35 1392.61,597.938 C 1392.62,598.526 1392.53,599.024 1392.35,599.432 C 1392.17,599.84 1391.9,600.155 1391.54,600.377 C 1391.18,600.599 1390.74,600.71 1390.21,600.71 C 1389.68,600.71 1389.17,600.599 1388.68,600.377 C 1388.18,600.155 1387.72,599.84 1387.29,599.432 C 1386.86,599.024 1386.47,598.526 1386.13,597.938 C 1385.78,597.35 1385.5,596.69 1385.28,595.958 C 1385.05,595.214 1384.93,594.545 1384.92,593.951 C 1384.91,593.357 1384.99,592.847 1385.17,592.421 C 1385.34,591.995 1385.61,591.668 1385.97,591.44 C 1386.32,591.212 1386.77,591.098 1387.29,591.098 Z" marker-start="none" marker-end="none"/>
    <path d="M 1394.42,590 L 1397.07,598.748 L 1398.29,598.748 L 1397.93,597.164 L 1397.99,597.164 C 1398.46,597.716 1398.95,598.154 1399.48,598.478 C 1400,598.802 1400.52,598.964 1401.02,598.964 C 1401.37,598.964 1401.66,598.904 1401.9,598.784 L 1401.22,597.488 C 1401.09,597.536 1400.97,597.572 1400.86,597.596 C 1400.74,597.62 1400.6,597.632 1400.42,597.632 C 1400.05,597.632 1399.61,597.482 1399.12,597.182 C 1398.63,596.882 1398.12,596.36 1397.59,595.616 L 1395.89,590 L 1394.42,590 Z" marker-start="none" marker-end="none"/>
    <path d="M 1403.41,589.784 C 1402.3,589.784 1401.54,590.18 1401.13,590.972 C 1400.72,591.764 1400.73,592.892 1401.17,594.356 C 1401.39,595.064 1401.69,595.703 1402.07,596.273 C 1402.45,596.843 1402.88,597.326 1403.35,597.722 C 1403.81,598.118 1404.31,598.424 1404.83,598.64 C 1405.35,598.856 1405.87,598.964 1406.37,598.964 C 1406.87,598.964 1407.28,598.874 1407.6,598.694 C 1407.92,598.514 1408.22,598.268 1408.51,597.956 L 1408.89,599.45 L 1409.91,602.816 L 1411.41,602.816 L 1407.52,590 L 1406.3,590 L 1406.48,591.026 L 1406.43,591.026 C 1405.98,590.69 1405.49,590.399 1404.97,590.153 C 1404.44,589.907 1403.92,589.784 1403.41,589.784 Z M 1404.11,591.026 C 1404.52,591.026 1404.93,591.125 1405.35,591.323 C 1405.77,591.521 1406.22,591.824 1406.7,592.232 L 1408.09,596.804 C 1407.82,597.14 1407.54,597.377 1407.24,597.515 C 1406.93,597.653 1406.6,597.722 1406.24,597.722 C 1405.9,597.722 1405.55,597.641 1405.19,597.479 C 1404.84,597.317 1404.5,597.089 1404.18,596.795 C 1403.86,596.501 1403.58,596.15 1403.32,595.742 C 1403.07,595.334 1402.86,594.878 1402.71,594.374 C 1402.39,593.318 1402.35,592.496 1402.59,591.908 C 1402.84,591.32 1403.34,591.026 1404.11,591.026 Z" marker-start="none" marker-end="none"/>
    <path d="M 1413.96,589.784 C 1413.37,589.784 1412.85,589.889 1412.41,590.099 C 1411.96,590.309 1411.61,590.609 1411.35,590.999 C 1411.09,591.389 1410.93,591.866 1410.89,592.43 C 1410.85,592.994 1410.93,593.636 1411.15,594.356 C 1411.37,595.076 1411.67,595.721 1412.07,596.291 C 1412.46,596.861 1412.9,597.344 1413.39,597.74 C 1413.88,598.136 1414.39,598.439 1414.92,598.649 C 1415.45,598.859 1415.97,598.964 1416.47,598.964 C 1417.02,598.964 1417.49,598.868 1417.87,598.676 C 1418.25,598.484 1418.53,598.208 1418.71,597.848 C 1418.9,597.488 1418.99,597.056 1419,596.552 C 1419,596.048 1418.91,595.484 1418.72,594.86 C 1418.67,594.704 1418.62,594.551 1418.57,594.401 C 1418.52,594.251 1418.46,594.122 1418.41,594.014 L 1412.5,594.014 C 1412.28,593.078 1412.35,592.337 1412.7,591.791 C 1413.06,591.245 1413.66,590.972 1414.5,590.972 C 1414.92,590.972 1415.32,591.035 1415.72,591.161 C 1416.11,591.287 1416.5,591.452 1416.88,591.656 L 1417.11,590.684 C 1416.65,590.444 1416.16,590.234 1415.64,590.054 C 1415.12,589.874 1414.56,589.784 1413.96,589.784 Z M 1412.81,595.076 L 1417.49,595.076 C 1417.76,595.964 1417.77,596.639 1417.53,597.101 C 1417.3,597.563 1416.84,597.794 1416.15,597.794 C 1415.84,597.794 1415.52,597.734 1415.21,597.614 C 1414.89,597.494 1414.58,597.317 1414.28,597.083 C 1413.98,596.849 1413.71,596.564 1413.45,596.228 C 1413.2,595.892 1412.99,595.508 1412.81,595.076 Z" marker-start="none" marker-end="none"/>
    <path d="M 1419.41,590 L 1422.06,598.748 L 1423.28,598.748 L 1422.93,597.164 L 1422.98,597.164 C 1423.45,597.716 1423.94,598.154 1424.47,598.478 C 1424.99,598.802 1425.51,598.964 1426.01,598.964 C 1426.36,598.964 1426.65,598.904 1426.89,598.784 L 1426.21,597.488 C 1426.08,597.536 1425.96,597.572 1425.85,597.596 C 1425.74,597.62 1425.59,597.632 1425.41,597.632 C 1425.04,597.632 1424.61,597.482 1424.11,597.182 C 1423.62,596.882 1423.11,596.36 1422.59,595.616 L 1420.88,590 L 1419.41,590 Z" marker-start="none" marker-end="none"/>
   </g>
   <g id="Group_13">
    <path d="M 1370.33,562.854 L 1373.52,573.402 L 1369.96,573.402 L 1370.34,574.662 L 1378.98,574.662 L 1378.6,573.402 L 1375.03,573.402 L 1371.84,562.854 L 1370.33,562.854 Z" marker-start="none" marker-end="none"/>
    <path d="M 1379.53,562.638 C 1378.99,562.638 1378.51,562.74 1378.09,562.944 C 1377.66,563.148 1377.32,563.445 1377.07,563.835 C 1376.82,564.225 1376.67,564.705 1376.62,565.275 C 1376.57,565.845 1376.65,566.49 1376.87,567.21 C 1377.09,567.942 1377.4,568.593 1377.79,569.163 C 1378.19,569.733 1378.63,570.216 1379.12,570.612 C 1379.62,571.008 1380.14,571.308 1380.68,571.512 C 1381.23,571.716 1381.78,571.818 1382.32,571.818 C 1382.86,571.818 1383.34,571.716 1383.76,571.512 C 1384.18,571.308 1384.52,571.008 1384.78,570.612 C 1385.03,570.216 1385.18,569.733 1385.23,569.163 C 1385.28,568.593 1385.19,567.942 1384.97,567.21 C 1384.75,566.49 1384.44,565.845 1384.05,565.275 C 1383.66,564.705 1383.21,564.225 1382.72,563.835 C 1382.23,563.445 1381.71,563.148 1381.17,562.944 C 1380.62,562.74 1380.07,562.638 1379.53,562.638 Z M 1379.9,563.862 C 1380.28,563.862 1380.64,563.943 1381,564.105 C 1381.37,564.267 1381.7,564.495 1382.01,564.789 C 1382.32,565.083 1382.6,565.434 1382.84,565.842 C 1383.09,566.25 1383.29,566.706 1383.44,567.21 C 1383.59,567.714 1383.67,568.173 1383.68,568.587 C 1383.68,569.001 1383.62,569.358 1383.49,569.658 C 1383.36,569.958 1383.16,570.189 1382.9,570.351 C 1382.63,570.513 1382.32,570.594 1381.94,570.594 C 1381.57,570.594 1381.2,570.513 1380.84,570.351 C 1380.48,570.189 1380.15,569.958 1379.83,569.658 C 1379.52,569.358 1379.24,569.001 1379,568.587 C 1378.75,568.173 1378.55,567.714 1378.4,567.21 C 1378.25,566.706 1378.17,566.25 1378.16,565.842 C 1378.16,565.434 1378.23,565.083 1378.36,564.789 C 1378.49,564.495 1378.69,564.267 1378.95,564.105 C 1379.21,563.943 1379.53,563.862 1379.9,563.862 Z" marker-start="none" marker-end="none"/>
    <path d="M 1388.34,562.638 C 1387.87,562.638 1387.5,562.71 1387.22,562.854 C 1386.95,562.998 1386.75,563.196 1386.63,563.448 C 1386.51,563.7 1386.46,564.006 1386.48,564.366 C 1386.51,564.726 1386.59,565.122 1386.72,565.554 L 1388.18,570.396 L 1386.89,570.396 L 1387.23,571.512 L 1388.62,571.602 L 1389.54,574.05 L 1390.79,574.05 L 1390.04,571.602 L 1392.4,571.602 L 1392.04,570.396 L 1389.68,570.396 L 1388.21,565.536 C 1388.04,564.996 1388.02,564.579 1388.12,564.285 C 1388.23,563.991 1388.54,563.844 1389.04,563.844 C 1389.2,563.844 1389.38,563.868 1389.57,563.916 C 1389.76,563.964 1389.94,564.018 1390.11,564.078 L 1390.05,562.962 C 1389.79,562.878 1389.51,562.803 1389.2,562.737 C 1388.9,562.671 1388.61,562.638 1388.34,562.638 Z" marker-start="none" marker-end="none"/>
    <path d="M 1393.3,562.638 C 1392.57,562.638 1392.03,562.854 1391.67,563.286 C 1391.32,563.718 1391.26,564.33 1391.5,565.122 C 1391.79,566.082 1392.44,566.817 1393.45,567.327 C 1394.45,567.837 1395.92,568.194 1397.86,568.398 C 1397.94,568.674 1398,568.944 1398.02,569.208 C 1398.05,569.472 1398.03,569.706 1397.95,569.91 C 1397.89,570.114 1397.75,570.279 1397.56,570.405 C 1397.36,570.531 1397.08,570.594 1396.72,570.594 C 1396.22,570.594 1395.71,570.498 1395.21,570.306 C 1394.71,570.114 1394.25,569.898 1393.83,569.658 L 1393.56,570.684 C 1394.05,570.948 1394.63,571.203 1395.29,571.449 C 1395.95,571.695 1396.64,571.818 1397.35,571.818 C 1398.41,571.818 1399.09,571.491 1399.37,570.837 C 1399.65,570.183 1399.63,569.31 1399.3,568.218 L 1397.67,562.854 L 1396.45,562.854 L 1396.64,563.898 L 1396.58,563.898 C 1396.06,563.55 1395.52,563.253 1394.96,563.007 C 1394.41,562.761 1393.86,562.638 1393.3,562.638 Z M 1394.1,563.826 C 1394.52,563.826 1394.94,563.925 1395.37,564.123 C 1395.81,564.321 1396.29,564.612 1396.83,564.996 L 1397.56,567.426 C 1396.8,567.33 1396.15,567.216 1395.61,567.084 C 1395.08,566.952 1394.63,566.796 1394.27,566.616 C 1393.91,566.436 1393.62,566.229 1393.41,565.995 C 1393.2,565.761 1393.06,565.506 1392.97,565.23 C 1392.82,564.726 1392.86,564.366 1393.1,564.15 C 1393.33,563.934 1393.66,563.826 1394.1,563.826 Z" marker-start="none" marker-end="none"/>
    <path d="M 1401.92,562.638 C 1401.36,562.638 1401.01,562.806 1400.87,563.142 C 1400.73,563.478 1400.76,563.97 1400.96,564.618 L 1404.31,575.67 L 1405.78,575.67 L 1402.4,564.51 C 1402.33,564.27 1402.32,564.102 1402.37,564.006 C 1402.43,563.91 1402.51,563.862 1402.62,563.862 C 1402.67,563.862 1402.71,563.862 1402.75,563.862 C 1402.8,563.862 1402.86,563.874 1402.95,563.898 L 1402.81,562.782 C 1402.7,562.734 1402.58,562.698 1402.44,562.674 C 1402.3,562.65 1402.13,562.638 1401.92,562.638 Z" marker-start="none" marker-end="none"/>
    <path d="M 1408.49,562.638 C 1407.9,562.638 1407.39,562.743 1406.94,562.953 C 1406.49,563.163 1406.14,563.463 1405.88,563.853 C 1405.62,564.243 1405.47,564.72 1405.42,565.284 C 1405.38,565.848 1405.46,566.49 1405.68,567.21 C 1405.9,567.93 1406.21,568.575 1406.6,569.145 C 1407,569.715 1407.44,570.198 1407.92,570.594 C 1408.41,570.99 1408.92,571.293 1409.45,571.503 C 1409.98,571.713 1410.5,571.818 1411,571.818 C 1411.56,571.818 1412.02,571.722 1412.4,571.53 C 1412.78,571.338 1413.06,571.062 1413.25,570.702 C 1413.43,570.342 1413.53,569.91 1413.53,569.406 C 1413.53,568.902 1413.44,568.338 1413.25,567.714 C 1413.2,567.558 1413.16,567.405 1413.1,567.255 C 1413.05,567.105 1413,566.976 1412.94,566.868 L 1407.04,566.868 C 1406.81,565.932 1406.88,565.191 1407.24,564.645 C 1407.59,564.099 1408.19,563.826 1409.03,563.826 C 1409.45,563.826 1409.86,563.889 1410.25,564.015 C 1410.64,564.141 1411.03,564.306 1411.42,564.51 L 1411.64,563.538 C 1411.19,563.298 1410.7,563.088 1410.18,562.908 C 1409.65,562.728 1409.09,562.638 1408.49,562.638 Z M 1407.34,567.93 L 1412.02,567.93 C 1412.29,568.818 1412.31,569.493 1412.07,569.955 C 1411.83,570.417 1411.37,570.648 1410.68,570.648 C 1410.37,570.648 1410.06,570.588 1409.74,570.468 C 1409.42,570.348 1409.11,570.171 1408.81,569.937 C 1408.51,569.703 1408.24,569.418 1407.99,569.082 C 1407.74,568.746 1407.52,568.362 1407.34,567.93 Z" marker-start="none" marker-end="none"/>
    <path d="M 1416.86,562.638 C 1415.76,562.638 1415,563.034 1414.59,563.826 C 1414.17,564.618 1414.19,565.746 1414.63,567.21 C 1414.85,567.918 1415.14,568.557 1415.53,569.127 C 1415.91,569.697 1416.34,570.18 1416.8,570.576 C 1417.27,570.972 1417.77,571.278 1418.29,571.494 C 1418.81,571.71 1419.32,571.818 1419.83,571.818 C 1420.33,571.818 1420.74,571.728 1421.06,571.548 C 1421.38,571.368 1421.68,571.122 1421.97,570.81 L 1422.35,572.304 L 1423.37,575.67 L 1424.86,575.67 L 1420.98,562.854 L 1419.76,562.854 L 1419.94,563.88 L 1419.89,563.88 C 1419.44,563.544 1418.95,563.253 1418.42,563.007 C 1417.9,562.761 1417.38,562.638 1416.86,562.638 Z M 1417.56,563.88 C 1417.97,563.88 1418.39,563.979 1418.81,564.177 C 1419.23,564.375 1419.68,564.678 1420.16,565.086 L 1421.55,569.658 C 1421.28,569.994 1420.99,570.231 1420.69,570.369 C 1420.39,570.507 1420.06,570.576 1419.7,570.576 C 1419.35,570.576 1419,570.495 1418.65,570.333 C 1418.29,570.171 1417.95,569.943 1417.64,569.649 C 1417.32,569.355 1417.03,569.004 1416.78,568.596 C 1416.52,568.188 1416.32,567.732 1416.17,567.228 C 1415.85,566.172 1415.81,565.35 1416.05,564.762 C 1416.29,564.174 1416.8,563.88 1417.56,563.88 Z" marker-start="none" marker-end="none"/>
   </g>
  </g>
  <g id="Group_14" fill-rule="nonzero" stroke-linejoin="round" stroke-linecap="round" stroke="none" stroke-width="0.25" fill="#000000">
   <g id="Group_15">
    <path d="M 1566.97,589.784 C 1566.23,589.784 1565.59,589.928 1565.06,590.216 C 1564.53,590.504 1564.12,590.915 1563.84,591.449 C 1563.56,591.983 1563.41,592.631 1563.39,593.393 C 1563.38,594.155 1563.51,595.01 1563.8,595.958 C 1564.09,596.906 1564.47,597.755 1564.94,598.505 C 1565.42,599.255 1565.95,599.891 1566.56,600.413 C 1567.16,600.935 1567.81,601.334 1568.51,601.61 C 1569.21,601.886 1569.93,602.024 1570.68,602.024 C 1571.42,602.024 1572.06,601.883 1572.59,601.601 C 1573.13,601.319 1573.54,600.917 1573.83,600.395 C 1574.12,599.873 1574.28,599.237 1574.3,598.487 C 1574.32,597.737 1574.18,596.894 1573.9,595.958 C 1573.61,595.01 1573.23,594.155 1572.75,593.393 C 1572.28,592.631 1571.73,591.983 1571.12,591.449 C 1570.51,590.915 1569.85,590.504 1569.14,590.216 C 1568.44,589.928 1567.71,589.784 1566.97,589.784 Z M 1567.37,591.098 C 1567.9,591.098 1568.41,591.212 1568.9,591.44 C 1569.4,591.668 1569.86,591.995 1570.3,592.421 C 1570.73,592.847 1571.13,593.357 1571.47,593.951 C 1571.82,594.545 1572.11,595.214 1572.33,595.958 C 1572.56,596.69 1572.67,597.35 1572.68,597.938 C 1572.69,598.526 1572.61,599.024 1572.42,599.432 C 1572.24,599.84 1571.97,600.155 1571.61,600.377 C 1571.25,600.599 1570.81,600.71 1570.28,600.71 C 1569.75,600.71 1569.24,600.599 1568.75,600.377 C 1568.26,600.155 1567.79,599.84 1567.37,599.432 C 1566.93,599.024 1566.55,598.526 1566.2,597.938 C 1565.86,597.35 1565.57,596.69 1565.35,595.958 C 1565.12,595.214 1565.01,594.545 1564.99,593.951 C 1564.98,593.357 1565.06,592.847 1565.24,592.421 C 1565.42,591.995 1565.68,591.668 1566.04,591.44 C 1566.4,591.212 1566.84,591.098 1567.37,591.098 Z" marker-start="none" marker-end="none"/>
    <path d="M 1574.49,590 L 1577.14,598.748 L 1578.36,598.748 L 1578.01,597.164 L 1578.06,597.164 C 1578.53,597.716 1579.03,598.154 1579.55,598.478 C 1580.08,598.802 1580.59,598.964 1581.09,598.964 C 1581.44,598.964 1581.74,598.904 1581.97,598.784 L 1581.29,597.488 C 1581.16,597.536 1581.04,597.572 1580.93,597.596 C 1580.82,597.62 1580.67,597.632 1580.49,597.632 C 1580.12,597.632 1579.69,597.482 1579.19,597.182 C 1578.7,596.882 1578.19,596.36 1577.67,595.616 L 1575.97,590 L 1574.49,590 Z" marker-start="none" marker-end="none"/>
    <path d="M 1583.48,589.784 C 1582.38,589.784 1581.62,590.18 1581.2,590.972 C 1580.79,591.764 1580.81,592.892 1581.25,594.356 C 1581.46,595.064 1581.76,595.703 1582.14,596.273 C 1582.53,596.843 1582.95,597.326 1583.42,597.722 C 1583.89,598.118 1584.38,598.424 1584.91,598.64 C 1585.43,598.856 1585.94,598.964 1586.44,598.964 C 1586.95,598.964 1587.36,598.874 1587.68,598.694 C 1587.99,598.514 1588.3,598.268 1588.59,597.956 L 1588.97,599.45 L 1589.99,602.816 L 1591.48,602.816 L 1587.6,590 L 1586.37,590 L 1586.56,591.026 L 1586.5,591.026 C 1586.05,590.69 1585.57,590.399 1585.04,590.153 C 1584.52,589.907 1584,589.784 1583.48,589.784 Z M 1584.18,591.026 C 1584.59,591.026 1585,591.125 1585.42,591.323 C 1585.84,591.521 1586.3,591.824 1586.78,592.232 L 1588.16,596.804 C 1587.89,597.14 1587.61,597.377 1587.31,597.515 C 1587.01,597.653 1586.68,597.722 1586.32,597.722 C 1585.97,597.722 1585.62,597.641 1585.26,597.479 C 1584.91,597.317 1584.57,597.089 1584.26,596.795 C 1583.94,596.501 1583.65,596.15 1583.4,595.742 C 1583.14,595.334 1582.94,594.878 1582.78,594.374 C 1582.46,593.318 1582.43,592.496 1582.67,591.908 C 1582.91,591.32 1583.41,591.026 1584.18,591.026 Z" marker-start="none" marker-end="none"/>
    <path d="M 1594.03,589.784 C 1593.44,589.784 1592.93,589.889 1592.48,590.099 C 1592.03,590.309 1591.68,590.609 1591.42,590.999 C 1591.16,591.389 1591.01,591.866 1590.96,592.43 C 1590.92,592.994 1591.01,593.636 1591.22,594.356 C 1591.44,595.076 1591.75,595.721 1592.14,596.291 C 1592.54,596.861 1592.98,597.344 1593.46,597.74 C 1593.95,598.136 1594.46,598.439 1594.99,598.649 C 1595.52,598.859 1596.04,598.964 1596.54,598.964 C 1597.1,598.964 1597.56,598.868 1597.94,598.676 C 1598.32,598.484 1598.6,598.208 1598.79,597.848 C 1598.97,597.488 1599.07,597.056 1599.07,596.552 C 1599.07,596.048 1598.98,595.484 1598.79,594.86 C 1598.75,594.704 1598.7,594.551 1598.64,594.401 C 1598.59,594.251 1598.54,594.122 1598.48,594.014 L 1592.58,594.014 C 1592.35,593.078 1592.42,592.337 1592.78,591.791 C 1593.13,591.245 1593.73,590.972 1594.57,590.972 C 1594.99,590.972 1595.4,591.035 1595.79,591.161 C 1596.18,591.287 1596.57,591.452 1596.96,591.656 L 1597.18,590.684 C 1596.73,590.444 1596.24,590.234 1595.72,590.054 C 1595.19,589.874 1594.63,589.784 1594.03,589.784 Z M 1592.88,595.076 L 1597.56,595.076 C 1597.83,595.964 1597.85,596.639 1597.61,597.101 C 1597.37,597.563 1596.91,597.794 1596.23,597.794 C 1595.91,597.794 1595.6,597.734 1595.28,597.614 C 1594.96,597.494 1594.65,597.317 1594.35,597.083 C 1594.06,596.849 1593.78,596.564 1593.53,596.228 C 1593.28,595.892 1593.06,595.508 1592.88,595.076 Z" marker-start="none" marker-end="none"/>
    <path d="M 1599.48,590 L 1602.13,598.748 L 1603.36,598.748 L 1603,597.164 L 1603.06,597.164 C 1603.52,597.716 1604.02,598.154 1604.54,598.478 C 1605.07,598.802 1605.58,598.964 1606.09,598.964 C 1606.43,598.964 1606.73,598.904 1606.97,598.784 L 1606.29,597.488 C 1606.16,597.536 1606.04,597.572 1605.92,597.596 C 1605.81,597.62 1605.66,597.632 1605.48,597.632 C 1605.11,597.632 1604.68,597.482 1604.19,597.182 C 1603.69,596.882 1603.18,596.36 1602.66,595.616 L 1600.96,590 L 1599.48,590 Z" marker-start="none" marker-end="none"/>
   </g>
   <g id="Group_16">
    <path d="M 1540.62,562.638 C 1539.88,562.638 1539.24,562.776 1538.69,563.052 C 1538.15,563.328 1537.73,563.727 1537.43,564.249 C 1537.13,564.771 1536.96,565.413 1536.93,566.175 C 1536.91,566.937 1537.04,567.798 1537.33,568.758 C 1537.62,569.706 1538.01,570.558 1538.5,571.314 C 1538.99,572.07 1539.55,572.712 1540.18,573.24 C 1540.81,573.768 1541.48,574.173 1542.2,574.455 C 1542.93,574.737 1543.66,574.878 1544.42,574.878 C 1545.14,574.878 1545.73,574.731 1546.19,574.437 C 1546.64,574.143 1546.99,573.804 1547.22,573.42 L 1546.11,572.448 C 1545.9,572.784 1545.63,573.054 1545.3,573.258 C 1544.96,573.462 1544.54,573.564 1544.04,573.564 C 1543.48,573.564 1542.93,573.453 1542.41,573.231 C 1541.89,573.009 1541.4,572.691 1540.95,572.277 C 1540.5,571.863 1540.1,571.362 1539.75,570.774 C 1539.4,570.186 1539.11,569.526 1538.89,568.794 C 1538.66,568.05 1538.55,567.381 1538.54,566.787 C 1538.53,566.193 1538.62,565.686 1538.81,565.266 C 1538.99,564.846 1539.28,564.522 1539.66,564.294 C 1540.04,564.066 1540.51,563.952 1541.07,563.952 C 1541.65,563.952 1542.19,564.069 1542.69,564.303 C 1543.19,564.537 1543.7,564.864 1544.21,565.284 L 1544.76,564.348 C 1544.13,563.808 1543.47,563.388 1542.79,563.088 C 1542.11,562.788 1541.39,562.638 1540.62,562.638 Z" marker-start="none" marker-end="none"/>
    <path d="M 1549.69,562.638 C 1549.15,562.638 1548.67,562.74 1548.24,562.944 C 1547.82,563.148 1547.48,563.445 1547.23,563.835 C 1546.97,564.225 1546.82,564.705 1546.77,565.275 C 1546.72,565.845 1546.81,566.49 1547.03,567.21 C 1547.25,567.942 1547.56,568.593 1547.95,569.163 C 1548.35,569.733 1548.79,570.216 1549.28,570.612 C 1549.77,571.008 1550.29,571.308 1550.84,571.512 C 1551.39,571.716 1551.93,571.818 1552.47,571.818 C 1553.01,571.818 1553.49,571.716 1553.92,571.512 C 1554.34,571.308 1554.68,571.008 1554.93,570.612 C 1555.18,570.216 1555.34,569.733 1555.38,569.163 C 1555.43,568.593 1555.35,567.942 1555.13,567.21 C 1554.91,566.49 1554.6,565.845 1554.21,565.275 C 1553.81,564.705 1553.37,564.225 1552.88,563.835 C 1552.39,563.445 1551.87,563.148 1551.32,562.944 C 1550.77,562.74 1550.23,562.638 1549.69,562.638 Z M 1550.06,563.862 C 1550.43,563.862 1550.8,563.943 1551.16,564.105 C 1551.52,564.267 1551.86,564.495 1552.17,564.789 C 1552.48,565.083 1552.76,565.434 1553,565.842 C 1553.25,566.25 1553.44,566.706 1553.6,567.21 C 1553.75,567.714 1553.83,568.173 1553.83,568.587 C 1553.84,569.001 1553.78,569.358 1553.64,569.658 C 1553.51,569.958 1553.32,570.189 1553.05,570.351 C 1552.79,570.513 1552.47,570.594 1552.1,570.594 C 1551.73,570.594 1551.36,570.513 1551,570.351 C 1550.64,570.189 1550.3,569.958 1549.99,569.658 C 1549.68,569.358 1549.4,569.001 1549.15,568.587 C 1548.91,568.173 1548.71,567.714 1548.56,567.21 C 1548.4,566.706 1548.33,566.25 1548.32,565.842 C 1548.32,565.434 1548.38,565.083 1548.52,564.789 C 1548.65,564.495 1548.85,564.267 1549.11,564.105 C 1549.37,563.943 1549.69,563.862 1550.06,563.862 Z" marker-start="none" marker-end="none"/>
    <path d="M 1556.11,562.854 L 1558.76,571.602 L 1559.98,571.602 L 1559.73,570.342 L 1559.78,570.342 C 1560.33,570.762 1560.88,571.113 1561.43,571.395 C 1561.97,571.677 1562.55,571.818 1563.16,571.818 C 1564.09,571.818 1564.68,571.53 1564.93,570.954 C 1565.18,570.378 1565.13,569.526 1564.79,568.398 L 1563.11,562.854 L 1561.64,562.854 L 1563.26,568.2 C 1563.51,569.028 1563.56,569.625 1563.4,569.991 C 1563.25,570.357 1562.89,570.54 1562.31,570.54 C 1561.85,570.54 1561.42,570.426 1561,570.198 C 1560.58,569.97 1560.08,569.634 1559.51,569.19 L 1557.59,562.854 L 1556.11,562.854 Z" marker-start="none" marker-end="none"/>
    <path d="M 1566.21,562.854 L 1568.49,570.396 L 1567.3,570.396 L 1567.64,571.512 L 1568.86,571.602 L 1569.28,572.988 C 1569.55,573.888 1569.97,574.596 1570.54,575.112 C 1571.11,575.628 1571.84,575.886 1572.71,575.886 C 1572.99,575.886 1573.24,575.859 1573.47,575.805 C 1573.7,575.751 1573.9,575.682 1574.08,575.598 L 1573.41,574.464 C 1573.13,574.608 1572.83,574.68 1572.49,574.68 C 1571.67,574.68 1571.09,574.116 1570.75,572.988 L 1570.33,571.602 L 1572.19,571.602 L 1571.82,570.396 L 1569.97,570.396 L 1567.68,562.854 L 1566.21,562.854 Z" marker-start="none" marker-end="none"/>
    <path d="M 1571.21,562.854 L 1573.86,571.602 L 1575.34,571.602 L 1572.69,562.854 L 1571.21,562.854 Z M 1575.16,573.402 C 1574.87,573.402 1574.66,573.492 1574.52,573.672 C 1574.37,573.852 1574.34,574.08 1574.43,574.356 C 1574.51,574.644 1574.68,574.875 1574.93,575.049 C 1575.18,575.223 1575.45,575.31 1575.74,575.31 C 1576.03,575.31 1576.25,575.223 1576.39,575.049 C 1576.54,574.875 1576.56,574.644 1576.48,574.356 C 1576.39,574.08 1576.23,573.852 1575.97,573.672 C 1575.72,573.492 1575.45,573.402 1575.16,573.402 Z" marker-start="none" marker-end="none"/>
    <path d="M 1575.64,562.854 L 1578.29,571.602 L 1579.51,571.602 L 1579.16,570.018 L 1579.21,570.018 C 1579.68,570.57 1580.18,571.008 1580.7,571.332 C 1581.23,571.656 1581.74,571.818 1582.24,571.818 C 1582.59,571.818 1582.89,571.758 1583.13,571.638 L 1582.44,570.342 C 1582.32,570.39 1582.19,570.426 1582.08,570.45 C 1581.97,570.474 1581.82,570.486 1581.64,570.486 C 1581.27,570.486 1580.84,570.336 1580.35,570.036 C 1579.85,569.736 1579.34,569.214 1578.82,568.47 L 1577.12,562.854 L 1575.64,562.854 Z" marker-start="none" marker-end="none"/>
    <path d="M 1581.89,562.854 L 1584.54,571.602 L 1585.76,571.602 L 1585.51,570.342 L 1585.56,570.342 C 1586.07,570.762 1586.6,571.113 1587.13,571.395 C 1587.67,571.677 1588.2,571.818 1588.73,571.818 C 1589.4,571.818 1589.88,571.671 1590.17,571.377 C 1590.46,571.083 1590.61,570.672 1590.63,570.144 C 1591.24,570.648 1591.82,571.053 1592.38,571.359 C 1592.93,571.665 1593.48,571.818 1594.02,571.818 C 1594.92,571.818 1595.5,571.53 1595.76,570.954 C 1596.03,570.378 1595.99,569.526 1595.65,568.398 L 1593.97,562.854 L 1592.49,562.854 L 1594.11,568.2 C 1594.36,569.028 1594.41,569.625 1594.26,569.991 C 1594.1,570.357 1593.75,570.54 1593.2,570.54 C 1592.54,570.54 1591.67,570.09 1590.6,569.19 L 1588.68,562.854 L 1587.2,562.854 L 1588.82,568.2 C 1589.07,569.028 1589.12,569.625 1588.97,569.991 C 1588.81,570.357 1588.45,570.54 1587.89,570.54 C 1587.23,570.54 1586.36,570.09 1585.29,569.19 L 1583.37,562.854 L 1581.89,562.854 Z" marker-start="none" marker-end="none"/>
    <path d="M 1600.29,562.638 C 1599.7,562.638 1599.19,562.743 1598.74,562.953 C 1598.3,563.163 1597.94,563.463 1597.68,563.853 C 1597.42,564.243 1597.27,564.72 1597.23,565.284 C 1597.18,565.848 1597.27,566.49 1597.49,567.21 C 1597.7,567.93 1598.01,568.575 1598.4,569.145 C 1598.8,569.715 1599.24,570.198 1599.73,570.594 C 1600.21,570.99 1600.72,571.293 1601.25,571.503 C 1601.78,571.713 1602.3,571.818 1602.81,571.818 C 1603.36,571.818 1603.82,571.722 1604.2,571.53 C 1604.58,571.338 1604.87,571.062 1605.05,570.702 C 1605.24,570.342 1605.33,569.91 1605.33,569.406 C 1605.34,568.902 1605.24,568.338 1605.05,567.714 C 1605.01,567.558 1604.96,567.405 1604.91,567.255 C 1604.85,567.105 1604.8,566.976 1604.74,566.868 L 1598.84,566.868 C 1598.62,565.932 1598.68,565.191 1599.04,564.645 C 1599.4,564.099 1599.99,563.826 1600.83,563.826 C 1601.25,563.826 1601.66,563.889 1602.05,564.015 C 1602.44,564.141 1602.83,564.306 1603.22,564.51 L 1603.45,563.538 C 1602.99,563.298 1602.5,563.088 1601.98,562.908 C 1601.45,562.728 1600.89,562.638 1600.29,562.638 Z M 1599.14,567.93 L 1603.82,567.93 C 1604.09,568.818 1604.11,569.493 1603.87,569.955 C 1603.63,570.417 1603.17,570.648 1602.49,570.648 C 1602.17,570.648 1601.86,570.588 1601.54,570.468 C 1601.22,570.348 1600.91,570.171 1600.62,569.937 C 1600.32,569.703 1600.04,569.418 1599.79,569.082 C 1599.54,568.746 1599.32,568.362 1599.14,567.93 Z" marker-start="none" marker-end="none"/>
    <path d="M 1608.67,562.638 C 1607.56,562.638 1606.8,563.034 1606.39,563.826 C 1605.97,564.618 1605.99,565.746 1606.43,567.21 C 1606.65,567.918 1606.95,568.557 1607.33,569.127 C 1607.71,569.697 1608.14,570.18 1608.61,570.576 C 1609.07,570.972 1609.57,571.278 1610.09,571.494 C 1610.61,571.71 1611.12,571.818 1611.63,571.818 C 1612.13,571.818 1612.54,571.728 1612.86,571.548 C 1613.18,571.368 1613.48,571.122 1613.77,570.81 L 1614.15,572.304 L 1615.17,575.67 L 1616.66,575.67 L 1612.78,562.854 L 1611.56,562.854 L 1611.74,563.88 L 1611.69,563.88 C 1611.24,563.544 1610.75,563.253 1610.23,563.007 C 1609.7,562.761 1609.18,562.638 1608.67,562.638 Z M 1609.37,563.88 C 1609.77,563.88 1610.19,563.979 1610.61,564.177 C 1611.03,564.375 1611.48,564.678 1611.96,565.086 L 1613.35,569.658 C 1613.08,569.994 1612.79,570.231 1612.49,570.369 C 1612.19,570.507 1611.86,570.576 1611.5,570.576 C 1611.16,570.576 1610.8,570.495 1610.45,570.333 C 1610.09,570.171 1609.76,569.943 1609.44,569.649 C 1609.12,569.355 1608.84,569.004 1608.58,568.596 C 1608.33,568.188 1608.12,567.732 1607.97,567.228 C 1607.65,566.172 1607.61,565.35 1607.85,564.762 C 1608.09,564.174 1608.6,563.88 1609.37,563.88 Z" marker-start="none" marker-end="none"/>
   </g>
  </g>
  <g id="Group_17" fill-rule="nonzero" stroke-linejoin="round" stroke-linecap="round" stroke="none" stroke-width="0.25" fill="#000000">
   <g id="Group_18">
    <path d="M 1108.19,672.439 L 1108.19,688.183 L 1110.18,688.183 L 1110.18,672.439 L 1108.19,672.439 Z" marker-start="none" marker-end="none"/>
    <path d="M 1118.3,672.151 C 1116.83,672.151 1115.65,672.679 1114.78,673.735 C 1113.91,674.791 1113.47,676.295 1113.47,678.247 C 1113.47,679.191 1113.61,680.043 1113.89,680.803 C 1114.17,681.563 1114.55,682.207 1115.01,682.735 C 1115.47,683.263 1116.01,683.671 1116.62,683.959 C 1117.23,684.247 1117.87,684.391 1118.54,684.391 C 1119.21,684.391 1119.79,684.271 1120.29,684.031 C 1120.79,683.791 1121.29,683.463 1121.8,683.047 L 1121.7,685.039 L 1121.7,689.527 L 1123.7,689.527 L 1123.7,672.439 L 1122.07,672.439 L 1121.9,673.807 L 1121.83,673.807 C 1121.36,673.359 1120.83,672.971 1120.23,672.643 C 1119.63,672.315 1118.99,672.151 1118.3,672.151 Z M 1118.73,673.807 C 1119.27,673.807 1119.79,673.939 1120.27,674.203 C 1120.75,674.467 1121.23,674.871 1121.7,675.415 L 1121.7,681.511 C 1121.21,681.959 1120.73,682.275 1120.28,682.459 C 1119.82,682.643 1119.35,682.735 1118.87,682.735 C 1118.41,682.735 1117.97,682.627 1117.57,682.411 C 1117.16,682.195 1116.8,681.891 1116.5,681.499 C 1116.19,681.107 1115.95,680.639 1115.78,680.095 C 1115.6,679.551 1115.51,678.943 1115.51,678.271 C 1115.51,676.863 1115.79,675.767 1116.35,674.983 C 1116.91,674.199 1117.7,673.807 1118.73,673.807 Z" marker-start="none" marker-end="none"/>
    <path d="M 1132.37,672.151 C 1131.58,672.151 1130.85,672.291 1130.17,672.571 C 1129.49,672.851 1128.9,673.251 1128.39,673.771 C 1127.89,674.291 1127.49,674.927 1127.2,675.679 C 1126.92,676.431 1126.77,677.287 1126.77,678.247 C 1126.77,679.207 1126.92,680.067 1127.22,680.827 C 1127.51,681.587 1127.91,682.231 1128.39,682.759 C 1128.88,683.287 1129.44,683.691 1130.06,683.971 C 1130.68,684.251 1131.33,684.391 1132.01,684.391 C 1132.74,684.391 1133.4,684.263 1133.99,684.007 C 1134.57,683.751 1135.06,683.383 1135.45,682.903 C 1135.84,682.423 1136.14,681.847 1136.35,681.175 C 1136.56,680.503 1136.66,679.751 1136.66,678.919 C 1136.66,678.711 1136.66,678.507 1136.65,678.307 C 1136.64,678.107 1136.62,677.935 1136.59,677.791 L 1128.72,677.791 C 1128.8,676.543 1129.18,675.555 1129.88,674.827 C 1130.58,674.099 1131.49,673.735 1132.61,673.735 C 1133.17,673.735 1133.68,673.819 1134.15,673.987 C 1134.63,674.155 1135.08,674.375 1135.51,674.647 L 1136.2,673.351 C 1135.69,673.031 1135.13,672.751 1134.5,672.511 C 1133.88,672.271 1133.17,672.151 1132.37,672.151 Z M 1128.69,679.207 L 1134.93,679.207 C 1134.93,680.391 1134.68,681.291 1134.18,681.907 C 1133.67,682.523 1132.96,682.831 1132.05,682.831 C 1131.64,682.831 1131.24,682.751 1130.87,682.591 C 1130.49,682.431 1130.15,682.195 1129.85,681.883 C 1129.54,681.571 1129.29,681.191 1129.09,680.743 C 1128.89,680.295 1128.76,679.783 1128.69,679.207 Z" marker-start="none" marker-end="none"/>
    <path d="M 1139.54,672.439 L 1139.54,684.103 L 1141.18,684.103 L 1141.34,682.423 L 1141.42,682.423 C 1141.98,682.983 1142.56,683.451 1143.18,683.827 C 1143.8,684.203 1144.51,684.391 1145.33,684.391 C 1146.56,684.391 1147.46,684.007 1148.03,683.239 C 1148.6,682.471 1148.88,681.335 1148.88,679.831 L 1148.88,672.439 L 1146.91,672.439 L 1146.91,679.567 C 1146.91,680.671 1146.74,681.467 1146.38,681.955 C 1146.03,682.443 1145.47,682.687 1144.7,682.687 C 1144.1,682.687 1143.56,682.535 1143.1,682.231 C 1142.63,681.927 1142.1,681.479 1141.51,680.887 L 1141.51,672.439 L 1139.54,672.439 Z" marker-start="none" marker-end="none"/>
    <path d="M 1156.34,672.151 C 1155.72,672.151 1155.19,672.247 1154.77,672.439 C 1154.34,672.631 1154,672.895 1153.74,673.231 C 1153.47,673.567 1153.28,673.975 1153.17,674.455 C 1153.06,674.935 1153,675.463 1153,676.039 L 1153,682.495 L 1151.28,682.495 L 1151.28,683.983 L 1153.1,684.103 L 1153.34,687.367 L 1155,687.367 L 1155,684.103 L 1158.14,684.103 L 1158.14,682.495 L 1155,682.495 L 1155,676.015 C 1155,675.295 1155.13,674.739 1155.39,674.347 C 1155.66,673.955 1156.12,673.759 1156.8,673.759 C 1157,673.759 1157.23,673.791 1157.47,673.855 C 1157.71,673.919 1157.92,673.991 1158.12,674.071 L 1158.5,672.583 C 1158.18,672.471 1157.83,672.371 1157.46,672.283 C 1157.08,672.195 1156.71,672.151 1156.34,672.151 Z" marker-start="none" marker-end="none"/>
    <path d="M 1160.78,672.439 L 1160.78,684.103 L 1162.75,684.103 L 1162.75,672.439 L 1160.78,672.439 Z M 1161.79,686.503 C 1161.4,686.503 1161.08,686.623 1160.81,686.863 C 1160.55,687.103 1160.42,687.407 1160.42,687.775 C 1160.42,688.159 1160.55,688.467 1160.81,688.699 C 1161.08,688.931 1161.4,689.047 1161.79,689.047 C 1162.17,689.047 1162.49,688.931 1162.76,688.699 C 1163.02,688.467 1163.15,688.159 1163.15,687.775 C 1163.15,687.407 1163.02,687.103 1162.76,686.863 C 1162.49,686.623 1162.17,686.503 1161.79,686.503 Z" marker-start="none" marker-end="none"/>
    <path d="M 1167.02,672.439 L 1167.02,682.495 L 1165.43,682.495 L 1165.43,683.983 L 1167.02,684.103 L 1167.02,685.951 C 1167.02,687.151 1167.3,688.095 1167.85,688.783 C 1168.4,689.471 1169.26,689.815 1170.43,689.815 C 1170.8,689.815 1171.14,689.779 1171.47,689.707 C 1171.8,689.635 1172.1,689.543 1172.37,689.431 L 1171.94,687.919 C 1171.51,688.111 1171.07,688.207 1170.62,688.207 C 1169.53,688.207 1168.99,687.455 1168.99,685.951 L 1168.99,684.103 L 1171.46,684.103 L 1171.46,682.495 L 1168.99,682.495 L 1168.99,672.439 L 1167.02,672.439 Z" marker-start="none" marker-end="none"/>
    <path d="M 1173.88,667.423 C 1173.61,667.423 1173.36,667.443 1173.14,667.483 C 1172.92,667.523 1172.71,667.583 1172.52,667.663 L 1172.9,669.223 C 1173.03,669.191 1173.17,669.155 1173.33,669.115 C 1173.49,669.075 1173.64,669.055 1173.79,669.055 C 1174.46,669.055 1175.01,669.291 1175.43,669.763 C 1175.86,670.235 1176.19,670.831 1176.43,671.551 L 1176.69,672.415 L 1172.01,684.103 L 1174.05,684.103 L 1176.43,677.647 C 1176.6,677.135 1176.79,676.595 1176.99,676.027 C 1177.19,675.459 1177.38,674.903 1177.56,674.359 L 1177.65,674.359 C 1177.83,674.887 1178,675.439 1178.16,676.015 C 1178.32,676.591 1178.48,677.135 1178.64,677.647 L 1180.72,684.103 L 1182.64,684.103 L 1178.25,671.479 C 1178.04,670.903 1177.81,670.367 1177.56,669.871 C 1177.3,669.375 1177,668.947 1176.64,668.587 C 1176.29,668.227 1175.89,667.943 1175.44,667.735 C 1175,667.527 1174.48,667.423 1173.88,667.423 Z" marker-start="none" marker-end="none"/>
    <path d="M 1193.37,672.151 C 1192.75,672.151 1192.22,672.247 1191.8,672.439 C 1191.38,672.631 1191.03,672.895 1190.77,673.231 C 1190.5,673.567 1190.32,673.975 1190.2,674.455 C 1190.09,674.935 1190.04,675.463 1190.04,676.039 L 1190.04,682.495 L 1188.31,682.495 L 1188.31,683.983 L 1190.13,684.103 L 1190.37,687.367 L 1192.03,687.367 L 1192.03,684.103 L 1195.17,684.103 L 1195.17,682.495 L 1192.03,682.495 L 1192.03,676.015 C 1192.03,675.295 1192.16,674.739 1192.42,674.347 C 1192.69,673.955 1193.16,673.759 1193.83,673.759 C 1194.04,673.759 1194.26,673.791 1194.5,673.855 C 1194.74,673.919 1194.95,673.991 1195.15,674.071 L 1195.53,672.583 C 1195.21,672.471 1194.86,672.371 1194.49,672.283 C 1194.11,672.195 1193.74,672.151 1193.37,672.151 Z" marker-start="none" marker-end="none"/>
    <path d="M 1197.81,672.439 L 1197.81,689.527 L 1199.78,689.527 L 1199.78,684.871 L 1199.7,682.471 C 1200.26,682.999 1200.85,683.451 1201.46,683.827 C 1202.06,684.203 1202.78,684.391 1203.59,684.391 C 1204.82,684.391 1205.72,684.007 1206.29,683.239 C 1206.86,682.471 1207.14,681.335 1207.14,679.831 L 1207.14,672.439 L 1205.18,672.439 L 1205.18,679.567 C 1205.18,680.671 1205,681.467 1204.65,681.955 C 1204.3,682.443 1203.74,682.687 1202.97,682.687 C 1202.36,682.687 1201.82,682.535 1201.36,682.231 C 1200.9,681.927 1200.37,681.479 1199.78,680.887 L 1199.78,672.439 L 1197.81,672.439 Z" marker-start="none" marker-end="none"/>
    <path d="M 1215.59,672.151 C 1214.81,672.151 1214.08,672.291 1213.4,672.571 C 1212.71,672.851 1212.12,673.251 1211.62,673.771 C 1211.12,674.291 1210.72,674.927 1210.43,675.679 C 1210.14,676.431 1210,677.287 1210,678.247 C 1210,679.207 1210.15,680.067 1210.44,680.827 C 1210.74,681.587 1211.13,682.231 1211.62,682.759 C 1212.11,683.287 1212.66,683.691 1213.29,683.971 C 1213.91,684.251 1214.56,684.391 1215.23,684.391 C 1215.97,684.391 1216.63,684.263 1217.21,684.007 C 1217.8,683.751 1218.28,683.383 1218.68,682.903 C 1219.07,682.423 1219.37,681.847 1219.58,681.175 C 1219.78,680.503 1219.89,679.751 1219.89,678.919 C 1219.89,678.711 1219.88,678.507 1219.88,678.307 C 1219.87,678.107 1219.85,677.935 1219.82,677.791 L 1211.94,677.791 C 1212.02,676.543 1212.41,675.555 1213.11,674.827 C 1213.8,674.099 1214.71,673.735 1215.83,673.735 C 1216.39,673.735 1216.91,673.819 1217.38,673.987 C 1217.85,674.155 1218.3,674.375 1218.74,674.647 L 1219.43,673.351 C 1218.92,673.031 1218.35,672.751 1217.73,672.511 C 1217.1,672.271 1216.39,672.151 1215.59,672.151 Z M 1211.92,679.207 L 1218.16,679.207 C 1218.16,680.391 1217.91,681.291 1217.4,681.907 C 1216.9,682.523 1216.19,682.831 1215.28,682.831 C 1214.86,682.831 1214.47,682.751 1214.09,682.591 C 1213.71,682.431 1213.38,682.195 1213.07,681.883 C 1212.77,681.571 1212.52,681.191 1212.32,680.743 C 1212.12,680.295 1211.98,679.783 1211.92,679.207 Z" marker-start="none" marker-end="none"/>
    <path d="M 1232.3,672.151 C 1231.52,672.151 1230.79,672.291 1230.11,672.571 C 1229.43,672.851 1228.83,673.251 1228.33,673.771 C 1227.83,674.291 1227.43,674.927 1227.14,675.679 C 1226.85,676.431 1226.71,677.287 1226.71,678.247 C 1226.71,679.207 1226.86,680.067 1227.15,680.827 C 1227.45,681.587 1227.84,682.231 1228.33,682.759 C 1228.82,683.287 1229.37,683.691 1230,683.971 C 1230.62,684.251 1231.27,684.391 1231.94,684.391 C 1232.68,684.391 1233.34,684.263 1233.92,684.007 C 1234.51,683.751 1234.99,683.383 1235.39,682.903 C 1235.78,682.423 1236.08,681.847 1236.29,681.175 C 1236.49,680.503 1236.6,679.751 1236.6,678.919 C 1236.6,678.711 1236.59,678.507 1236.59,678.307 C 1236.58,678.107 1236.56,677.935 1236.53,677.791 L 1228.65,677.791 C 1228.73,676.543 1229.12,675.555 1229.82,674.827 C 1230.51,674.099 1231.42,673.735 1232.54,673.735 C 1233.1,673.735 1233.62,673.819 1234.09,673.987 C 1234.56,674.155 1235.01,674.375 1235.45,674.647 L 1236.14,673.351 C 1235.63,673.031 1235.06,672.751 1234.44,672.511 C 1233.81,672.271 1233.1,672.151 1232.3,672.151 Z M 1228.63,679.207 L 1234.87,679.207 C 1234.87,680.391 1234.62,681.291 1234.11,681.907 C 1233.61,682.523 1232.9,682.831 1231.99,682.831 C 1231.57,682.831 1231.18,682.751 1230.8,682.591 C 1230.43,682.431 1230.09,682.195 1229.78,681.883 C 1229.48,681.571 1229.23,681.191 1229.03,680.743 C 1228.83,680.295 1228.69,679.783 1228.63,679.207 Z" marker-start="none" marker-end="none"/>
    <path d="M 1242.12,672.439 L 1237.92,684.103 L 1239.96,684.103 L 1242.17,677.479 C 1242.34,676.903 1242.52,676.327 1242.71,675.751 C 1242.89,675.175 1243.07,674.607 1243.25,674.047 L 1243.34,674.047 C 1243.52,674.607 1243.7,675.175 1243.87,675.751 C 1244.05,676.327 1244.22,676.903 1244.4,677.479 L 1246.61,684.103 L 1248.55,684.103 L 1244.42,672.439 L 1242.12,672.439 Z" marker-start="none" marker-end="none"/>
    <path d="M 1255.44,672.151 C 1254.65,672.151 1253.92,672.291 1253.24,672.571 C 1252.56,672.851 1251.97,673.251 1251.46,673.771 C 1250.96,674.291 1250.56,674.927 1250.28,675.679 C 1249.99,676.431 1249.84,677.287 1249.84,678.247 C 1249.84,679.207 1249.99,680.067 1250.29,680.827 C 1250.58,681.587 1250.98,682.231 1251.46,682.759 C 1251.95,683.287 1252.51,683.691 1253.13,683.971 C 1253.76,684.251 1254.4,684.391 1255.08,684.391 C 1255.81,684.391 1256.47,684.263 1257.06,684.007 C 1257.64,683.751 1258.13,683.383 1258.52,682.903 C 1258.91,682.423 1259.21,681.847 1259.42,681.175 C 1259.63,680.503 1259.73,679.751 1259.73,678.919 C 1259.73,678.711 1259.73,678.507 1259.72,678.307 C 1259.71,678.107 1259.69,677.935 1259.66,677.791 L 1251.79,677.791 C 1251.87,676.543 1252.26,675.555 1252.95,674.827 C 1253.65,674.099 1254.56,673.735 1255.68,673.735 C 1256.24,673.735 1256.75,673.819 1257.22,673.987 C 1257.7,674.155 1258.15,674.375 1258.58,674.647 L 1259.28,673.351 C 1258.76,673.031 1258.2,672.751 1257.57,672.511 C 1256.95,672.271 1256.24,672.151 1255.44,672.151 Z M 1251.76,679.207 L 1258,679.207 C 1258,680.391 1257.75,681.291 1257.25,681.907 C 1256.74,682.523 1256.04,682.831 1255.12,682.831 C 1254.71,682.831 1254.31,682.751 1253.94,682.591 C 1253.56,682.431 1253.22,682.195 1252.92,681.883 C 1252.61,681.571 1252.36,681.191 1252.16,680.743 C 1251.96,680.295 1251.83,679.783 1251.76,679.207 Z" marker-start="none" marker-end="none"/>
    <path d="M 1262.61,672.439 L 1262.61,684.103 L 1264.25,684.103 L 1264.41,682.423 L 1264.49,682.423 C 1265.05,682.983 1265.63,683.451 1266.25,683.827 C 1266.87,684.203 1267.58,684.391 1268.4,684.391 C 1269.63,684.391 1270.53,684.007 1271.1,683.239 C 1271.67,682.471 1271.95,681.335 1271.95,679.831 L 1271.95,672.439 L 1269.98,672.439 L 1269.98,679.567 C 1269.98,680.671 1269.81,681.467 1269.45,681.955 C 1269.1,682.443 1268.54,682.687 1267.77,682.687 C 1267.17,682.687 1266.63,682.535 1266.17,682.231 C 1265.7,681.927 1265.17,681.479 1264.58,680.887 L 1264.58,672.439 L 1262.61,672.439 Z" marker-start="none" marker-end="none"/>
    <path d="M 1279.41,672.151 C 1278.79,672.151 1278.26,672.247 1277.84,672.439 C 1277.42,672.631 1277.07,672.895 1276.81,673.231 C 1276.54,673.567 1276.36,673.975 1276.24,674.455 C 1276.13,674.935 1276.08,675.463 1276.08,676.039 L 1276.08,682.495 L 1274.35,682.495 L 1274.35,683.983 L 1276.17,684.103 L 1276.41,687.367 L 1278.07,687.367 L 1278.07,684.103 L 1281.21,684.103 L 1281.21,682.495 L 1278.07,682.495 L 1278.07,676.015 C 1278.07,675.295 1278.2,674.739 1278.46,674.347 C 1278.73,673.955 1279.19,673.759 1279.87,673.759 C 1280.08,673.759 1280.3,673.791 1280.54,673.855 C 1280.78,673.919 1281,673.991 1281.19,674.071 L 1281.57,672.583 C 1281.25,672.471 1280.9,672.371 1280.53,672.283 C 1280.15,672.195 1279.78,672.151 1279.41,672.151 Z" marker-start="none" marker-end="none"/>
    <path d="M 1286.66,672.151 C 1285.83,672.151 1285.03,672.303 1284.28,672.607 C 1283.53,672.911 1282.87,673.295 1282.31,673.759 L 1283.3,675.079 C 1283.81,674.663 1284.33,674.327 1284.87,674.071 C 1285.41,673.815 1286.03,673.687 1286.73,673.687 C 1287.5,673.687 1288.07,673.863 1288.46,674.215 C 1288.84,674.567 1289.03,674.999 1289.03,675.511 C 1289.03,675.815 1288.95,676.079 1288.79,676.303 C 1288.63,676.527 1288.43,676.723 1288.18,676.891 C 1287.93,677.059 1287.65,677.207 1287.33,677.335 C 1287.01,677.463 1286.69,677.591 1286.37,677.719 C 1285.95,677.863 1285.54,678.027 1285.12,678.211 C 1284.7,678.395 1284.33,678.619 1284.01,678.883 C 1283.68,679.147 1283.41,679.455 1283.2,679.807 C 1282.99,680.159 1282.89,680.583 1282.89,681.079 C 1282.89,681.543 1282.98,681.979 1283.17,682.387 C 1283.35,682.795 1283.61,683.147 1283.96,683.443 C 1284.3,683.739 1284.72,683.971 1285.22,684.139 C 1285.71,684.307 1286.27,684.391 1286.9,684.391 C 1287.63,684.391 1288.31,684.263 1288.93,684.007 C 1289.54,683.751 1290.07,683.439 1290.52,683.071 L 1289.59,681.823 C 1289.18,682.127 1288.77,682.375 1288.34,682.567 C 1287.91,682.759 1287.43,682.855 1286.92,682.855 C 1286.18,682.855 1285.65,682.687 1285.3,682.351 C 1284.96,682.015 1284.79,681.623 1284.79,681.175 C 1284.79,680.903 1284.86,680.667 1285,680.467 C 1285.15,680.267 1285.34,680.091 1285.58,679.939 C 1285.82,679.787 1286.09,679.651 1286.41,679.531 C 1286.72,679.411 1287.04,679.287 1287.38,679.159 C 1287.79,678.999 1288.21,678.831 1288.64,678.655 C 1289.06,678.479 1289.44,678.259 1289.78,677.995 C 1290.11,677.731 1290.39,677.407 1290.61,677.023 C 1290.82,676.639 1290.93,676.175 1290.93,675.631 C 1290.93,675.151 1290.84,674.703 1290.65,674.287 C 1290.47,673.871 1290.2,673.503 1289.84,673.183 C 1289.48,672.863 1289.03,672.611 1288.49,672.427 C 1287.96,672.243 1287.35,672.151 1286.66,672.151 Z" marker-start="none" marker-end="none"/>
    <path d="M 1298.81,672.439 L 1298.81,682.495 L 1297.22,682.495 L 1297.22,683.983 L 1298.81,684.103 L 1298.81,685.951 C 1298.81,687.151 1299.08,688.095 1299.63,688.783 C 1300.18,689.471 1301.05,689.815 1302.21,689.815 C 1302.58,689.815 1302.93,689.779 1303.26,689.707 C 1303.59,689.635 1303.89,689.543 1304.16,689.431 L 1303.73,687.919 C 1303.29,688.111 1302.85,688.207 1302.41,688.207 C 1301.32,688.207 1300.77,687.455 1300.77,685.951 L 1300.77,684.103 L 1303.25,684.103 L 1303.25,682.495 L 1300.77,682.495 L 1300.77,672.439 L 1298.81,672.439 Z" marker-start="none" marker-end="none"/>
    <path d="M 1305.48,672.439 L 1305.48,684.103 L 1307.44,684.103 L 1307.44,672.439 L 1305.48,672.439 Z M 1306.49,686.503 C 1306.1,686.503 1305.78,686.623 1305.51,686.863 C 1305.25,687.103 1305.12,687.407 1305.12,687.775 C 1305.12,688.159 1305.25,688.467 1305.51,688.699 C 1305.78,688.931 1306.1,689.047 1306.49,689.047 C 1306.87,689.047 1307.19,688.931 1307.46,688.699 C 1307.72,688.467 1307.85,688.159 1307.85,687.775 C 1307.85,687.407 1307.72,687.103 1307.46,686.863 C 1307.19,686.623 1306.87,686.503 1306.49,686.503 Z" marker-start="none" marker-end="none"/>
    <path d="M 1311.38,672.439 L 1311.38,684.103 L 1313.02,684.103 L 1313.18,681.991 L 1313.26,681.991 C 1313.66,682.727 1314.14,683.311 1314.71,683.743 C 1315.28,684.175 1315.9,684.391 1316.57,684.391 C 1317.03,684.391 1317.45,684.311 1317.82,684.151 L 1317.43,682.423 C 1317.24,682.487 1317.06,682.535 1316.9,682.567 C 1316.74,682.599 1316.54,682.615 1316.3,682.615 C 1315.81,682.615 1315.29,682.415 1314.76,682.015 C 1314.22,681.615 1313.75,680.919 1313.35,679.927 L 1313.35,672.439 L 1311.38,672.439 Z" marker-start="none" marker-end="none"/>
    <path d="M 1322.67,672.151 C 1321.84,672.151 1321.04,672.303 1320.29,672.607 C 1319.54,672.911 1318.88,673.295 1318.32,673.759 L 1319.31,675.079 C 1319.82,674.663 1320.34,674.327 1320.88,674.071 C 1321.42,673.815 1322.04,673.687 1322.74,673.687 C 1323.51,673.687 1324.08,673.863 1324.47,674.215 C 1324.85,674.567 1325.04,674.999 1325.04,675.511 C 1325.04,675.815 1324.96,676.079 1324.8,676.303 C 1324.64,676.527 1324.44,676.723 1324.19,676.891 C 1323.94,677.059 1323.66,677.207 1323.34,677.335 C 1323.02,677.463 1322.7,677.591 1322.38,677.719 C 1321.96,677.863 1321.55,678.027 1321.13,678.211 C 1320.72,678.395 1320.34,678.619 1320.02,678.883 C 1319.69,679.147 1319.42,679.455 1319.21,679.807 C 1319,680.159 1318.9,680.583 1318.9,681.079 C 1318.9,681.543 1318.99,681.979 1319.18,682.387 C 1319.36,682.795 1319.62,683.147 1319.97,683.443 C 1320.31,683.739 1320.73,683.971 1321.23,684.139 C 1321.72,684.307 1322.28,684.391 1322.91,684.391 C 1323.64,684.391 1324.32,684.263 1324.94,684.007 C 1325.55,683.751 1326.08,683.439 1326.53,683.071 L 1325.6,681.823 C 1325.2,682.127 1324.78,682.375 1324.35,682.567 C 1323.92,682.759 1323.44,682.855 1322.93,682.855 C 1322.2,682.855 1321.66,682.687 1321.31,682.351 C 1320.97,682.015 1320.8,681.623 1320.8,681.175 C 1320.8,680.903 1320.87,680.667 1321.01,680.467 C 1321.16,680.267 1321.35,680.091 1321.59,679.939 C 1321.83,679.787 1322.1,679.651 1322.42,679.531 C 1322.73,679.411 1323.05,679.287 1323.39,679.159 C 1323.8,678.999 1324.22,678.831 1324.65,678.655 C 1325.07,678.479 1325.45,678.259 1325.79,677.995 C 1326.12,677.731 1326.4,677.407 1326.62,677.023 C 1326.83,676.639 1326.94,676.175 1326.94,675.631 C 1326.94,675.151 1326.85,674.703 1326.66,674.287 C 1326.48,673.871 1326.21,673.503 1325.85,673.183 C 1325.49,672.863 1325.04,672.611 1324.5,672.427 C 1323.97,672.243 1323.36,672.151 1322.67,672.151 Z" marker-start="none" marker-end="none"/>
    <path d="M 1332.87,672.151 C 1332.24,672.151 1331.72,672.247 1331.3,672.439 C 1330.87,672.631 1330.53,672.895 1330.26,673.231 C 1330,673.567 1329.81,673.975 1329.7,674.455 C 1329.59,674.935 1329.53,675.463 1329.53,676.039 L 1329.53,682.495 L 1327.8,682.495 L 1327.8,683.983 L 1329.63,684.103 L 1329.87,687.367 L 1331.52,687.367 L 1331.52,684.103 L 1334.67,684.103 L 1334.67,682.495 L 1331.52,682.495 L 1331.52,676.015 C 1331.52,675.295 1331.66,674.739 1331.92,674.347 C 1332.18,673.955 1332.65,673.759 1333.32,673.759 C 1333.53,673.759 1333.76,673.791 1334,673.855 C 1334.24,673.919 1334.45,673.991 1334.64,674.071 L 1335.03,672.583 C 1334.71,672.471 1334.36,672.371 1333.98,672.283 C 1333.61,672.195 1333.24,672.151 1332.87,672.151 Z" marker-start="none" marker-end="none"/>
   </g>
  </g>
 </g>
</svg>
