<?xml version="1.0" standalone="no"?>
<!DOCTYPE svg PUBLIC "-//W3C//DTD SVG 1.1//EN" "http://www.w3.org/Graphics/SVG/1.1/DTD/svg11.dtd">
<!--Generator: Xara Designer (www.xara.com), SVG filter version: 6.5.0.22-->
<svg fill="none" fill-rule="evenodd" stroke="black" stroke-width="0.501" stroke-linejoin="bevel" stroke-miterlimit="10" font-family="Times New Roman" font-size="16" style="font-variant-ligatures:none" xmlns:xlink="http://www.w3.org/1999/xlink" xmlns="http://www.w3.org/2000/svg" version="1.1" overflow="visible" width="539.868pt" height="178.074pt" viewBox="891.623 -345.855 539.868 178.074">
 <defs>
	</defs>
 <g id="Layer 1" transform="scale(1 -1)">
  <rect x="-67.105" y="-65.491" width="134.21" height="130.983" transform="translate(984.079 231.999) rotate(73.1291) skewX(-16.8709)" fill="#4c4c4c" stroke="none" stroke-linejoin="miter"/>
  <rect x="-67.105" y="-65.491" width="134.21" height="130.983" transform="translate(1163.83 231.999) rotate(73.1291) skewX(-16.8709)" fill="#4c4c4c" stroke="none" stroke-linejoin="miter"/>
  <rect x="-67.105" y="-65.491" width="134.21" height="130.983" transform="translate(1343.58 231.999) rotate(73.1291) skewX(-16.8709)" fill="#4c4c4c" stroke="none" stroke-linejoin="miter"/>
  <rect x="-67.105" y="-65.491" width="134.21" height="130.983" transform="translate(979.536 239.055) rotate(73.1291) skewX(-16.8709)" fill="#2fc9a2" stroke="none" stroke-linejoin="miter"/>
  <rect x="-67.105" y="-65.491" width="134.21" height="130.983" transform="translate(1159.29 239.055) rotate(73.1291) skewX(-16.8709)" fill="#c6b357" stroke="none" stroke-linejoin="miter"/>
  <rect x="-67.105" y="-65.491" width="134.21" height="130.983" transform="translate(1339.04 239.055) rotate(73.1291) skewX(-16.8709)" fill="#c17545" stroke="none" stroke-linejoin="miter"/>
  <g id="Group" fill-rule="nonzero" stroke-linejoin="round" stroke-linecap="round" stroke="none" stroke-width="0.25" fill="#000000">
   <g id="Group_1">
    <path d="M 951.201,252.934 L 950.098,251.134 L 953.644,251.134 L 953.631,252.934 C 953.615,253.594 953.61,254.251 953.616,254.905 C 953.623,255.559 953.633,256.228 953.649,256.912 L 953.577,256.912 C 953.189,256.228 952.801,255.559 952.41,254.905 C 952.02,254.251 951.617,253.594 951.201,252.934 Z M 945.599,246.328 L 953.174,258.136 L 954.866,258.136 L 955.283,246.328 L 953.681,246.328 L 953.656,249.928 L 949.354,249.928 L 947.129,246.328 L 945.599,246.328 Z" marker-start="none" marker-end="none"/>
    <path d="M 958.577,246.328 L 958.078,255.076 L 959.608,255.076 L 959.759,250.108 C 959.76,249.676 959.764,249.244 959.771,248.812 C 959.778,248.38 959.784,247.954 959.789,247.534 L 959.861,247.534 C 960.12,247.954 960.381,248.38 960.644,248.812 C 960.907,249.244 961.17,249.676 961.433,250.108 L 964.594,255.076 L 966.052,255.076 L 960.305,246.328 L 958.577,246.328 Z" marker-start="none" marker-end="none"/>
    <path d="M 966.681,246.112 C 965.949,246.112 965.405,246.328 965.05,246.76 C 964.695,247.192 964.638,247.804 964.878,248.596 C 965.169,249.556 965.817,250.291 966.824,250.801 C 967.83,251.311 969.301,251.668 971.234,251.872 C 971.318,252.148 971.373,252.418 971.399,252.682 C 971.425,252.946 971.403,253.18 971.333,253.384 C 971.262,253.588 971.129,253.753 970.934,253.879 C 970.738,254.005 970.46,254.068 970.1,254.068 C 969.596,254.068 969.093,253.972 968.591,253.78 C 968.088,253.588 967.627,253.372 967.206,253.132 L 966.941,254.158 C 967.429,254.422 968.004,254.677 968.667,254.923 C 969.329,255.169 970.015,255.292 970.723,255.292 C 971.791,255.292 972.466,254.965 972.747,254.311 C 973.029,253.657 973.005,252.784 972.674,251.692 L 971.048,246.328 L 969.824,246.328 L 970.015,247.372 L 969.961,247.372 C 969.435,247.024 968.895,246.727 968.341,246.481 C 967.786,246.235 967.233,246.112 966.681,246.112 Z M 967.473,247.3 C 967.893,247.3 968.319,247.399 968.751,247.597 C 969.183,247.795 969.667,248.086 970.203,248.47 L 970.94,250.9 C 970.179,250.804 969.529,250.69 968.991,250.558 C 968.453,250.426 968.004,250.27 967.643,250.09 C 967.283,249.91 966.998,249.703 966.789,249.469 C 966.58,249.235 966.434,248.98 966.35,248.704 C 966.198,248.2 966.239,247.84 966.473,247.624 C 966.708,247.408 967.041,247.3 967.473,247.3 Z" marker-start="none" marker-end="none"/>
    <path d="M 973.8,246.328 L 976.451,255.076 L 977.927,255.076 L 975.276,246.328 L 973.8,246.328 Z M 977.753,256.876 C 977.465,256.876 977.249,256.966 977.106,257.146 C 976.962,257.326 976.932,257.554 977.016,257.83 C 977.103,258.118 977.272,258.349 977.523,258.523 C 977.774,258.697 978.043,258.784 978.331,258.784 C 978.619,258.784 978.836,258.697 978.981,258.523 C 979.126,258.349 979.155,258.118 979.068,257.83 C 978.984,257.554 978.816,257.326 978.564,257.146 C 978.311,256.966 978.041,256.876 977.753,256.876 Z" marker-start="none" marker-end="none"/>
    <path d="M 979.731,246.112 C 979.167,246.112 978.816,246.28 978.678,246.616 C 978.539,246.952 978.569,247.444 978.765,248.092 L 982.114,259.144 L 983.59,259.144 L 980.208,247.984 C 980.135,247.744 980.127,247.576 980.181,247.48 C 980.236,247.384 980.318,247.336 980.426,247.336 C 980.474,247.336 980.519,247.336 980.561,247.336 C 980.603,247.336 980.669,247.348 980.761,247.372 L 980.621,246.256 C 980.51,246.208 980.385,246.172 980.246,246.148 C 980.107,246.124 979.935,246.112 979.731,246.112 Z" marker-start="none" marker-end="none"/>
    <path d="M 984.769,246.112 C 984.037,246.112 983.493,246.328 983.138,246.76 C 982.783,247.192 982.726,247.804 982.966,248.596 C 983.257,249.556 983.905,250.291 984.912,250.801 C 985.918,251.311 987.389,251.668 989.322,251.872 C 989.406,252.148 989.461,252.418 989.487,252.682 C 989.513,252.946 989.491,253.18 989.421,253.384 C 989.35,253.588 989.217,253.753 989.022,253.879 C 988.826,254.005 988.548,254.068 988.188,254.068 C 987.684,254.068 987.181,253.972 986.679,253.78 C 986.176,253.588 985.715,253.372 985.294,253.132 L 985.029,254.158 C 985.517,254.422 986.092,254.677 986.755,254.923 C 987.417,255.169 988.103,255.292 988.811,255.292 C 989.879,255.292 990.554,254.965 990.835,254.311 C 991.117,253.657 991.093,252.784 990.762,251.692 L 989.136,246.328 L 987.912,246.328 L 988.103,247.372 L 988.049,247.372 C 987.523,247.024 986.983,246.727 986.429,246.481 C 985.874,246.235 985.321,246.112 984.769,246.112 Z M 985.561,247.3 C 985.981,247.3 986.407,247.399 986.839,247.597 C 987.271,247.795 987.755,248.086 988.291,248.47 L 989.028,250.9 C 988.267,250.804 987.617,250.69 987.079,250.558 C 986.541,250.426 986.092,250.27 985.731,250.09 C 985.371,249.91 985.086,249.703 984.877,249.469 C 984.668,249.235 984.522,248.98 984.438,248.704 C 984.286,248.2 984.327,247.84 984.561,247.624 C 984.796,247.408 985.129,247.3 985.561,247.3 Z" marker-start="none" marker-end="none"/>
    <path d="M 995.693,246.112 C 995.285,246.112 994.892,246.211 994.514,246.409 C 994.136,246.607 993.808,246.88 993.529,247.228 L 993.475,247.228 L 993.076,246.328 L 991.888,246.328 L 995.772,259.144 L 997.248,259.144 L 996.19,255.652 L 995.674,254.068 C 996.175,254.416 996.695,254.707 997.234,254.941 C 997.773,255.175 998.289,255.292 998.781,255.292 C 999.345,255.292 999.811,255.187 1000.18,254.977 C 1000.55,254.767 1000.82,254.467 1001,254.077 C 1001.17,253.687 1001.25,253.219 1001.24,252.673 C 1001.22,252.127 1001.11,251.518 1000.91,250.846 C 1000.68,250.102 1000.38,249.436 999.996,248.848 C 999.614,248.26 999.187,247.762 998.715,247.354 C 998.244,246.946 997.748,246.637 997.228,246.427 C 996.709,246.217 996.197,246.112 995.693,246.112 Z M 995.817,247.354 C 996.177,247.354 996.535,247.435 996.89,247.597 C 997.245,247.759 997.578,247.987 997.889,248.281 C 998.2,248.575 998.484,248.938 998.741,249.37 C 998.998,249.802 999.208,250.288 999.372,250.828 C 999.517,251.308 999.608,251.746 999.644,252.142 C 999.68,252.538 999.648,252.877 999.547,253.159 C 999.447,253.441 999.273,253.66 999.026,253.816 C 998.78,253.972 998.452,254.05 998.044,254.05 C 997.336,254.05 996.436,253.654 995.344,252.862 L 993.953,248.272 C 994.236,247.936 994.545,247.699 994.881,247.561 C 995.217,247.423 995.529,247.354 995.817,247.354 Z" marker-start="none" marker-end="none"/>
    <path d="M 1003.35,246.112 C 1002.78,246.112 1002.43,246.28 1002.29,246.616 C 1002.16,246.952 1002.19,247.444 1002.38,248.092 L 1005.73,259.144 L 1007.21,259.144 L 1003.82,247.984 C 1003.75,247.744 1003.74,247.576 1003.8,247.48 C 1003.85,247.384 1003.93,247.336 1004.04,247.336 C 1004.09,247.336 1004.14,247.336 1004.18,247.336 C 1004.22,247.336 1004.29,247.348 1004.38,247.372 L 1004.24,246.256 C 1004.13,246.208 1004,246.172 1003.86,246.148 C 1003.72,246.124 1003.55,246.112 1003.35,246.112 Z" marker-start="none" marker-end="none"/>
    <path d="M 1009.92,246.112 C 1009.33,246.112 1008.81,246.217 1008.36,246.427 C 1007.92,246.637 1007.56,246.937 1007.3,247.327 C 1007.04,247.717 1006.89,248.194 1006.85,248.758 C 1006.8,249.322 1006.89,249.964 1007.11,250.684 C 1007.33,251.404 1007.63,252.049 1008.03,252.619 C 1008.42,253.189 1008.86,253.672 1009.35,254.068 C 1009.83,254.464 1010.34,254.767 1010.87,254.977 C 1011.41,255.187 1011.92,255.292 1012.43,255.292 C 1012.98,255.292 1013.45,255.196 1013.82,255.004 C 1014.2,254.812 1014.49,254.536 1014.67,254.176 C 1014.86,253.816 1014.95,253.384 1014.95,252.88 C 1014.96,252.376 1014.86,251.812 1014.68,251.188 C 1014.63,251.032 1014.58,250.879 1014.53,250.729 C 1014.48,250.579 1014.42,250.45 1014.37,250.342 L 1008.46,250.342 C 1008.24,249.406 1008.3,248.665 1008.66,248.119 C 1009.02,247.573 1009.62,247.3 1010.46,247.3 C 1010.88,247.3 1011.28,247.363 1011.67,247.489 C 1012.07,247.615 1012.45,247.78 1012.84,247.984 L 1013.07,247.012 C 1012.61,246.772 1012.12,246.562 1011.6,246.382 C 1011.08,246.202 1010.52,246.112 1009.92,246.112 Z M 1008.77,251.404 L 1013.45,251.404 C 1013.71,252.292 1013.73,252.967 1013.49,253.429 C 1013.25,253.891 1012.79,254.122 1012.11,254.122 C 1011.8,254.122 1011.48,254.062 1011.16,253.942 C 1010.84,253.822 1010.54,253.645 1010.24,253.411 C 1009.94,253.177 1009.66,252.892 1009.41,252.556 C 1009.16,252.22 1008.94,251.836 1008.77,251.404 Z" marker-start="none" marker-end="none"/>
   </g>
   <g id="Group_2">
    <path d="M 943.153,219.182 L 946.731,230.99 L 950.241,230.99 C 950.841,230.99 951.373,230.936 951.839,230.828 C 952.304,230.72 952.679,230.552 952.964,230.324 C 953.249,230.096 953.435,229.799 953.522,229.433 C 953.609,229.067 953.574,228.626 953.418,228.11 C 953.24,227.522 952.932,226.991 952.494,226.517 C 952.057,226.043 951.528,225.716 950.91,225.536 L 950.888,225.464 C 951.568,225.332 952.059,225.032 952.361,224.564 C 952.664,224.096 952.691,223.454 952.444,222.638 C 952.269,222.062 952.008,221.558 951.662,221.126 C 951.315,220.694 950.9,220.334 950.416,220.046 C 949.933,219.758 949.394,219.542 948.798,219.398 C 948.202,219.254 947.575,219.182 946.915,219.182 L 943.153,219.182 Z M 946.703,225.968 L 948.449,225.968 C 949.457,225.968 950.236,226.142 950.785,226.49 C 951.334,226.838 951.7,227.312 951.882,227.912 C 952.089,228.596 952.005,229.082 951.631,229.37 C 951.256,229.658 950.607,229.802 949.683,229.802 L 947.865,229.802 L 946.703,225.968 Z M 945.007,220.37 L 947.059,220.37 C 948.079,220.37 948.928,220.559 949.606,220.937 C 950.285,221.315 950.744,221.9 950.984,222.692 C 951.206,223.424 951.093,223.961 950.644,224.303 C 950.196,224.645 949.45,224.816 948.406,224.816 L 946.354,224.816 L 945.007,220.37 Z" marker-start="none" marker-end="none"/>
    <path d="M 955.541,218.966 C 954.809,218.966 954.266,219.182 953.91,219.614 C 953.555,220.046 953.498,220.658 953.738,221.45 C 954.029,222.41 954.677,223.145 955.684,223.655 C 956.69,224.165 958.161,224.522 960.094,224.726 C 960.178,225.002 960.233,225.272 960.259,225.536 C 960.285,225.8 960.263,226.034 960.193,226.238 C 960.122,226.442 959.989,226.607 959.794,226.733 C 959.598,226.859 959.32,226.922 958.96,226.922 C 958.456,226.922 957.953,226.826 957.451,226.634 C 956.948,226.442 956.487,226.226 956.066,225.986 L 955.801,227.012 C 956.289,227.276 956.864,227.531 957.527,227.777 C 958.19,228.023 958.875,228.146 959.583,228.146 C 960.651,228.146 961.326,227.819 961.608,227.165 C 961.889,226.511 961.865,225.638 961.534,224.546 L 959.909,219.182 L 958.685,219.182 L 958.875,220.226 L 958.821,220.226 C 958.295,219.878 957.755,219.581 957.201,219.335 C 956.646,219.089 956.093,218.966 955.541,218.966 Z M 956.333,220.154 C 956.753,220.154 957.179,220.253 957.611,220.451 C 958.043,220.649 958.527,220.94 959.064,221.324 L 959.8,223.754 C 959.039,223.658 958.389,223.544 957.851,223.412 C 957.313,223.28 956.864,223.124 956.503,222.944 C 956.143,222.764 955.858,222.557 955.649,222.323 C 955.44,222.089 955.294,221.834 955.21,221.558 C 955.058,221.054 955.099,220.694 955.333,220.478 C 955.568,220.262 955.901,220.154 956.333,220.154 Z" marker-start="none" marker-end="none"/>
    <path d="M 964.161,218.966 C 963.597,218.966 963.246,219.134 963.108,219.47 C 962.97,219.806 962.999,220.298 963.195,220.946 L 966.544,231.998 L 968.02,231.998 L 964.638,220.838 C 964.566,220.598 964.557,220.43 964.612,220.334 C 964.667,220.238 964.748,220.19 964.856,220.19 C 964.904,220.19 964.949,220.19 964.991,220.19 C 965.033,220.19 965.1,220.202 965.191,220.226 L 965.051,219.11 C 964.94,219.062 964.815,219.026 964.676,219.002 C 964.537,218.978 964.365,218.966 964.161,218.966 Z" marker-start="none" marker-end="none"/>
    <path d="M 969.199,218.966 C 968.467,218.966 967.924,219.182 967.568,219.614 C 967.213,220.046 967.156,220.658 967.396,221.45 C 967.687,222.41 968.335,223.145 969.342,223.655 C 970.348,224.165 971.819,224.522 973.752,224.726 C 973.836,225.002 973.891,225.272 973.917,225.536 C 973.943,225.8 973.921,226.034 973.851,226.238 C 973.78,226.442 973.647,226.607 973.452,226.733 C 973.256,226.859 972.978,226.922 972.618,226.922 C 972.114,226.922 971.611,226.826 971.109,226.634 C 970.606,226.442 970.145,226.226 969.724,225.986 L 969.459,227.012 C 969.947,227.276 970.522,227.531 971.185,227.777 C 971.848,228.023 972.533,228.146 973.241,228.146 C 974.309,228.146 974.984,227.819 975.266,227.165 C 975.547,226.511 975.523,225.638 975.192,224.546 L 973.567,219.182 L 972.343,219.182 L 972.533,220.226 L 972.479,220.226 C 971.953,219.878 971.413,219.581 970.859,219.335 C 970.304,219.089 969.751,218.966 969.199,218.966 Z M 969.991,220.154 C 970.411,220.154 970.837,220.253 971.269,220.451 C 971.701,220.649 972.185,220.94 972.722,221.324 L 973.458,223.754 C 972.697,223.658 972.047,223.544 971.509,223.412 C 970.971,223.28 970.522,223.124 970.161,222.944 C 969.801,222.764 969.516,222.557 969.307,222.323 C 969.098,222.089 968.952,221.834 968.868,221.558 C 968.716,221.054 968.757,220.694 968.991,220.478 C 969.226,220.262 969.559,220.154 969.991,220.154 Z" marker-start="none" marker-end="none"/>
    <path d="M 976.319,219.182 L 978.969,227.93 L 980.193,227.93 L 979.938,226.67 L 979.992,226.67 C 980.539,227.09 981.086,227.441 981.634,227.723 C 982.181,228.005 982.761,228.146 983.373,228.146 C 984.297,228.146 984.885,227.858 985.136,227.282 C 985.387,226.706 985.342,225.854 985,224.726 L 983.321,219.182 L 981.845,219.182 L 983.464,224.528 C 983.715,225.356 983.764,225.953 983.611,226.319 C 983.458,226.685 983.094,226.868 982.518,226.868 C 982.062,226.868 981.625,226.754 981.208,226.526 C 980.791,226.298 980.293,225.962 979.714,225.518 L 977.795,219.182 L 976.319,219.182 Z" marker-start="none" marker-end="none"/>
    <path d="M 989.553,218.966 C 988.977,218.966 988.468,219.068 988.026,219.272 C 987.584,219.476 987.239,219.773 986.991,220.163 C 986.743,220.553 986.6,221.033 986.563,221.603 C 986.526,222.173 986.616,222.818 986.834,223.538 C 987.056,224.27 987.368,224.921 987.768,225.491 C 988.169,226.061 988.621,226.544 989.125,226.94 C 989.629,227.336 990.167,227.636 990.739,227.84 C 991.311,228.044 991.879,228.146 992.443,228.146 C 993.019,228.146 993.48,228.044 993.826,227.84 C 994.172,227.636 994.46,227.396 994.688,227.12 L 993.637,226.148 C 993.454,226.376 993.244,226.562 993.005,226.706 C 992.767,226.85 992.474,226.922 992.126,226.922 C 991.73,226.922 991.339,226.841 990.954,226.679 C 990.569,226.517 990.211,226.286 989.88,225.986 C 989.549,225.686 989.252,225.329 988.989,224.915 C 988.725,224.501 988.517,224.042 988.364,223.538 C 988.212,223.034 988.14,222.578 988.148,222.17 C 988.156,221.762 988.233,221.411 988.378,221.117 C 988.523,220.823 988.739,220.595 989.026,220.433 C 989.313,220.271 989.654,220.19 990.05,220.19 C 990.458,220.19 990.859,220.277 991.254,220.451 C 991.649,220.625 992.02,220.832 992.369,221.072 L 992.717,220.082 C 992.216,219.734 991.695,219.461 991.155,219.263 C 990.615,219.065 990.081,218.966 989.553,218.966 Z" marker-start="none" marker-end="none"/>
    <path d="M 997.475,218.966 C 996.887,218.966 996.37,219.071 995.924,219.281 C 995.477,219.491 995.124,219.791 994.864,220.181 C 994.604,220.571 994.452,221.048 994.407,221.612 C 994.362,222.176 994.448,222.818 994.666,223.538 C 994.885,224.258 995.191,224.903 995.586,225.473 C 995.981,226.043 996.421,226.526 996.907,226.922 C 997.393,227.318 997.902,227.621 998.433,227.831 C 998.965,228.041 999.483,228.146 999.987,228.146 C 1000.54,228.146 1001.01,228.05 1001.39,227.858 C 1001.76,227.666 1002.05,227.39 1002.23,227.03 C 1002.42,226.67 1002.51,226.238 1002.51,225.734 C 1002.52,225.23 1002.42,224.666 1002.24,224.042 C 1002.19,223.886 1002.14,223.733 1002.09,223.583 C 1002.04,223.433 1001.98,223.304 1001.93,223.196 L 996.021,223.196 C 995.797,222.26 995.864,221.519 996.22,220.973 C 996.577,220.427 997.175,220.154 998.015,220.154 C 998.435,220.154 998.841,220.217 999.233,220.343 C 999.626,220.469 1000.01,220.634 1000.4,220.838 L 1000.63,219.866 C 1000.17,219.626 999.681,219.416 999.159,219.236 C 998.636,219.056 998.075,218.966 997.475,218.966 Z M 996.325,224.258 L 1001.01,224.258 C 1001.27,225.146 1001.29,225.821 1001.05,226.283 C 1000.81,226.745 1000.35,226.976 999.668,226.976 C 999.356,226.976 999.041,226.916 998.723,226.796 C 998.404,226.676 998.096,226.499 997.797,226.265 C 997.498,226.031 997.223,225.746 996.971,225.41 C 996.719,225.074 996.504,224.69 996.325,224.258 Z" marker-start="none" marker-end="none"/>
   </g>
  </g>
  <g id="Group_3" fill-rule="nonzero" stroke-linejoin="round" stroke-linecap="round" stroke="none" stroke-width="0.25" fill="#000000">
   <g id="Group_4">
    <path d="M 1124.76,243.605 L 1125.83,255.413 L 1127.38,255.413 L 1126.68,248.987 C 1126.59,248.339 1126.51,247.703 1126.44,247.079 C 1126.37,246.455 1126.29,245.819 1126.2,245.171 L 1126.28,245.171 C 1126.6,245.819 1126.93,246.458 1127.27,247.088 C 1127.61,247.718 1127.93,248.351 1128.26,248.987 L 1131.84,255.413 L 1133.21,255.413 L 1132.9,248.987 C 1132.86,248.363 1132.81,247.733 1132.76,247.097 C 1132.71,246.461 1132.66,245.819 1132.61,245.171 L 1132.68,245.171 C 1132.99,245.819 1133.29,246.458 1133.59,247.088 C 1133.89,247.718 1134.19,248.351 1134.51,248.987 L 1137.69,255.413 L 1139.13,255.413 L 1133.11,243.605 L 1131.31,243.605 L 1131.68,250.715 C 1131.71,251.171 1131.75,251.618 1131.79,252.056 C 1131.83,252.494 1131.88,252.941 1131.92,253.397 L 1131.85,253.397 C 1131.61,252.941 1131.38,252.494 1131.14,252.056 C 1130.91,251.618 1130.67,251.171 1130.44,250.715 L 1126.54,243.605 L 1124.76,243.605 Z" marker-start="none" marker-end="none"/>
    <path d="M 1137.47,243.605 L 1140.12,252.353 L 1141.59,252.353 L 1138.94,243.605 L 1137.47,243.605 Z M 1141.42,254.153 C 1141.13,254.153 1140.92,254.243 1140.77,254.423 C 1140.63,254.603 1140.6,254.831 1140.68,255.107 C 1140.77,255.395 1140.94,255.626 1141.19,255.8 C 1141.44,255.974 1141.71,256.061 1142,256.061 C 1142.29,256.061 1142.5,255.974 1142.65,255.8 C 1142.79,255.626 1142.82,255.395 1142.74,255.107 C 1142.65,254.831 1142.48,254.603 1142.23,254.423 C 1141.98,254.243 1141.71,254.153 1141.42,254.153 Z" marker-start="none" marker-end="none"/>
    <path d="M 1144.59,243.389 C 1144.12,243.389 1143.75,243.461 1143.47,243.605 C 1143.2,243.749 1143,243.947 1142.88,244.199 C 1142.76,244.451 1142.71,244.757 1142.73,245.117 C 1142.76,245.477 1142.84,245.873 1142.97,246.305 L 1144.43,251.147 L 1143.14,251.147 L 1143.48,252.263 L 1144.87,252.353 L 1145.79,254.801 L 1147.04,254.801 L 1146.29,252.353 L 1148.65,252.353 L 1148.29,251.147 L 1145.93,251.147 L 1144.46,246.287 C 1144.29,245.747 1144.27,245.33 1144.37,245.036 C 1144.48,244.742 1144.79,244.595 1145.29,244.595 C 1145.45,244.595 1145.62,244.619 1145.82,244.667 C 1146.01,244.715 1146.19,244.769 1146.35,244.829 L 1146.3,243.713 C 1146.04,243.629 1145.76,243.554 1145.45,243.488 C 1145.15,243.422 1144.86,243.389 1144.59,243.389 Z" marker-start="none" marker-end="none"/>
    <path d="M 1147.98,243.605 L 1151.86,256.421 L 1153.34,256.421 L 1152.28,252.929 L 1151.68,251.129 C 1152.22,251.525 1152.76,251.864 1153.3,252.146 C 1153.85,252.428 1154.42,252.569 1155.03,252.569 C 1155.96,252.569 1156.55,252.281 1156.8,251.705 C 1157.05,251.129 1157,250.277 1156.66,249.149 L 1154.98,243.605 L 1153.51,243.605 L 1155.13,248.951 C 1155.38,249.779 1155.43,250.376 1155.27,250.742 C 1155.12,251.108 1154.75,251.291 1154.18,251.291 C 1153.72,251.291 1153.29,251.177 1152.87,250.949 C 1152.45,250.721 1151.95,250.385 1151.38,249.941 L 1149.45,243.605 L 1147.98,243.605 Z" marker-start="none" marker-end="none"/>
    <path d="M 1160.69,243.389 C 1159.59,243.389 1158.83,243.785 1158.42,244.577 C 1158,245.369 1158.02,246.497 1158.46,247.961 C 1158.68,248.669 1158.97,249.308 1159.36,249.878 C 1159.74,250.448 1160.16,250.931 1160.63,251.327 C 1161.1,251.723 1161.6,252.029 1162.12,252.245 C 1162.64,252.461 1163.15,252.569 1163.65,252.569 C 1164.16,252.569 1164.57,252.479 1164.89,252.299 C 1165.2,252.119 1165.51,251.873 1165.8,251.561 L 1166.18,253.055 L 1167.2,256.421 L 1168.69,256.421 L 1164.81,243.605 L 1163.58,243.605 L 1163.77,244.631 L 1163.71,244.631 C 1163.27,244.295 1162.78,244.004 1162.25,243.758 C 1161.73,243.512 1161.21,243.389 1160.69,243.389 Z M 1161.39,244.631 C 1161.8,244.631 1162.21,244.73 1162.64,244.928 C 1163.06,245.126 1163.51,245.429 1163.99,245.837 L 1165.38,250.409 C 1165.11,250.745 1164.82,250.982 1164.52,251.12 C 1164.22,251.258 1163.89,251.327 1163.53,251.327 C 1163.18,251.327 1162.83,251.246 1162.48,251.084 C 1162.12,250.922 1161.78,250.694 1161.47,250.4 C 1161.15,250.106 1160.86,249.755 1160.61,249.347 C 1160.35,248.939 1160.15,248.483 1160,247.979 C 1159.68,246.923 1159.64,246.101 1159.88,245.513 C 1160.12,244.925 1160.63,244.631 1161.39,244.631 Z" marker-start="none" marker-end="none"/>
    <path d="M 1167.76,243.605 L 1170.41,252.353 L 1171.64,252.353 L 1171.28,250.769 L 1171.34,250.769 C 1171.81,251.321 1172.3,251.759 1172.83,252.083 C 1173.35,252.407 1173.86,252.569 1174.37,252.569 C 1174.71,252.569 1175.01,252.509 1175.25,252.389 L 1174.57,251.093 C 1174.44,251.141 1174.32,251.177 1174.2,251.201 C 1174.09,251.225 1173.95,251.237 1173.77,251.237 C 1173.39,251.237 1172.96,251.087 1172.47,250.787 C 1171.98,250.487 1171.47,249.965 1170.94,249.221 L 1169.24,243.605 L 1167.76,243.605 Z" marker-start="none" marker-end="none"/>
    <path d="M 1175.53,243.389 C 1174.8,243.389 1174.26,243.605 1173.9,244.037 C 1173.55,244.469 1173.49,245.081 1173.73,245.873 C 1174.02,246.833 1174.67,247.568 1175.68,248.078 C 1176.68,248.588 1178.15,248.945 1180.09,249.149 C 1180.17,249.425 1180.22,249.695 1180.25,249.959 C 1180.28,250.223 1180.25,250.457 1180.18,250.661 C 1180.11,250.865 1179.98,251.03 1179.78,251.156 C 1179.59,251.282 1179.31,251.345 1178.95,251.345 C 1178.45,251.345 1177.94,251.249 1177.44,251.057 C 1176.94,250.865 1176.48,250.649 1176.06,250.409 L 1175.79,251.435 C 1176.28,251.699 1176.86,251.954 1177.52,252.2 C 1178.18,252.446 1178.87,252.569 1179.57,252.569 C 1180.64,252.569 1181.32,252.242 1181.6,251.588 C 1181.88,250.934 1181.86,250.061 1181.53,248.969 L 1179.9,243.605 L 1178.68,243.605 L 1178.87,244.649 L 1178.81,244.649 C 1178.29,244.301 1177.75,244.004 1177.19,243.758 C 1176.64,243.512 1176.08,243.389 1175.53,243.389 Z M 1176.32,244.577 C 1176.74,244.577 1177.17,244.676 1177.6,244.874 C 1178.03,245.072 1178.52,245.363 1179.05,245.747 L 1179.79,248.177 C 1179.03,248.081 1178.38,247.967 1177.84,247.835 C 1177.3,247.703 1176.86,247.547 1176.49,247.367 C 1176.13,247.187 1175.85,246.98 1175.64,246.746 C 1175.43,246.512 1175.29,246.257 1175.2,245.981 C 1175.05,245.477 1175.09,245.117 1175.32,244.901 C 1175.56,244.685 1175.89,244.577 1176.32,244.577 Z" marker-start="none" marker-end="none"/>
    <path d="M 1184.04,243.605 L 1184.26,252.353 L 1185.77,252.353 L 1185.53,247.295 C 1185.5,246.875 1185.47,246.467 1185.43,246.071 C 1185.4,245.675 1185.36,245.273 1185.32,244.865 L 1185.39,244.865 C 1185.61,245.273 1185.83,245.678 1186.05,246.08 C 1186.27,246.482 1186.49,246.887 1186.72,247.295 L 1189.6,252.353 L 1191.04,252.353 L 1190.88,247.295 C 1190.86,246.875 1190.84,246.467 1190.82,246.071 C 1190.81,245.675 1190.78,245.273 1190.76,244.865 L 1190.83,244.865 C 1191.05,245.273 1191.26,245.675 1191.46,246.071 C 1191.67,246.467 1191.88,246.875 1192.1,247.295 L 1194.91,252.353 L 1196.32,252.353 L 1191.33,243.605 L 1189.53,243.605 L 1189.69,248.303 C 1189.71,248.723 1189.74,249.137 1189.77,249.545 C 1189.8,249.953 1189.83,250.379 1189.86,250.823 L 1189.79,250.823 C 1189.56,250.379 1189.33,249.95 1189.11,249.536 C 1188.89,249.122 1188.66,248.705 1188.41,248.285 L 1185.77,243.605 L 1184.04,243.605 Z" marker-start="none" marker-end="none"/>
   </g>
   <g id="Group_5">
    <path d="M 1135.24,214.479 L 1135.78,216.261 C 1135.23,216.321 1134.72,216.48 1134.25,216.738 C 1133.79,216.996 1133.42,217.299 1133.14,217.647 L 1134.14,218.673 C 1134.42,218.337 1134.76,218.052 1135.15,217.818 C 1135.54,217.584 1136.01,217.467 1136.56,217.467 C 1137.24,217.467 1137.79,217.635 1138.22,217.971 C 1138.65,218.307 1138.95,218.757 1139.12,219.321 C 1139.27,219.801 1139.27,220.2 1139.12,220.518 C 1138.97,220.836 1138.74,221.112 1138.44,221.346 C 1138.14,221.58 1137.8,221.799 1137.42,222.003 C 1137.05,222.207 1136.71,222.441 1136.42,222.705 C 1136.13,222.969 1135.92,223.29 1135.79,223.668 C 1135.66,224.046 1135.68,224.529 1135.86,225.117 C 1136.1,225.921 1136.54,226.59 1137.18,227.124 C 1137.81,227.658 1138.54,227.985 1139.37,228.105 L 1139.92,229.923 L 1141,229.923 L 1140.46,228.141 C 1141.02,228.081 1141.46,227.925 1141.79,227.673 C 1142.11,227.421 1142.39,227.121 1142.61,226.773 L 1141.55,225.891 C 1141.31,226.215 1141.06,226.467 1140.79,226.647 C 1140.53,226.827 1140.15,226.917 1139.66,226.917 C 1139.11,226.917 1138.62,226.761 1138.2,226.449 C 1137.79,226.137 1137.5,225.717 1137.34,225.189 C 1137.21,224.757 1137.22,224.403 1137.38,224.127 C 1137.55,223.851 1137.78,223.608 1138.09,223.398 C 1138.4,223.188 1138.74,222.984 1139.12,222.786 C 1139.5,222.588 1139.83,222.348 1140.12,222.066 C 1140.4,221.784 1140.61,221.436 1140.73,221.022 C 1140.85,220.608 1140.81,220.077 1140.61,219.429 C 1140.35,218.565 1139.89,217.857 1139.22,217.305 C 1138.56,216.753 1137.78,216.417 1136.87,216.297 L 1136.32,214.479 L 1135.24,214.479 Z" marker-start="none" marker-end="none"/>
    <path d="M 1142.22,216.459 L 1142.59,217.683 L 1145.21,217.683 L 1147.78,226.143 L 1145.69,226.143 L 1145.98,227.097 C 1146.54,227.193 1147.03,227.31 1147.46,227.448 C 1147.9,227.586 1148.3,227.751 1148.67,227.943 L 1149.8,227.943 L 1146.69,217.683 L 1149.07,217.683 L 1148.7,216.459 L 1142.22,216.459 Z" marker-start="none" marker-end="none"/>
    <path d="M 1154.16,216.243 C 1152.99,216.243 1152.24,216.759 1151.91,217.791 C 1151.57,218.823 1151.7,220.305 1152.28,222.237 C 1152.87,224.169 1153.64,225.639 1154.59,226.647 C 1155.55,227.655 1156.61,228.159 1157.77,228.159 C 1158.92,228.159 1159.67,227.655 1160.01,226.647 C 1160.35,225.639 1160.23,224.169 1159.65,222.237 C 1159.06,220.305 1158.29,218.823 1157.33,217.791 C 1156.37,216.759 1155.31,216.243 1154.16,216.243 Z M 1154.52,217.431 C 1154.85,217.431 1155.18,217.524 1155.51,217.71 C 1155.84,217.896 1156.16,218.184 1156.48,218.574 C 1156.79,218.964 1157.1,219.462 1157.39,220.068 C 1157.68,220.674 1157.95,221.397 1158.21,222.237 C 1158.46,223.077 1158.63,223.797 1158.7,224.397 C 1158.77,224.997 1158.77,225.486 1158.68,225.864 C 1158.6,226.242 1158.45,226.521 1158.24,226.701 C 1158.02,226.881 1157.75,226.971 1157.41,226.971 C 1157.07,226.971 1156.74,226.881 1156.41,226.701 C 1156.08,226.521 1155.76,226.242 1155.44,225.864 C 1155.13,225.486 1154.83,224.997 1154.54,224.397 C 1154.25,223.797 1153.98,223.077 1153.72,222.237 C 1153.21,220.557 1153.05,219.336 1153.24,218.574 C 1153.42,217.812 1153.85,217.431 1154.52,217.431 Z" marker-start="none" marker-end="none"/>
    <path d="M 1163.11,216.243 C 1161.94,216.243 1161.19,216.759 1160.86,217.791 C 1160.52,218.823 1160.65,220.305 1161.23,222.237 C 1161.82,224.169 1162.59,225.639 1163.54,226.647 C 1164.49,227.655 1165.55,228.159 1166.72,228.159 C 1167.87,228.159 1168.62,227.655 1168.96,226.647 C 1169.3,225.639 1169.18,224.169 1168.59,222.237 C 1168.01,220.305 1167.24,218.823 1166.27,217.791 C 1165.31,216.759 1164.26,216.243 1163.11,216.243 Z M 1163.46,217.431 C 1163.8,217.431 1164.13,217.524 1164.46,217.71 C 1164.79,217.896 1165.11,218.184 1165.42,218.574 C 1165.74,218.964 1166.04,219.462 1166.33,220.068 C 1166.63,220.674 1166.9,221.397 1167.15,222.237 C 1167.41,223.077 1167.57,223.797 1167.65,224.397 C 1167.72,224.997 1167.71,225.486 1167.63,225.864 C 1167.55,226.242 1167.4,226.521 1167.18,226.701 C 1166.97,226.881 1166.69,226.971 1166.36,226.971 C 1166.02,226.971 1165.69,226.881 1165.36,226.701 C 1165.03,226.521 1164.7,226.242 1164.39,225.864 C 1164.08,225.486 1163.78,224.997 1163.49,224.397 C 1163.2,223.797 1162.93,223.077 1162.67,222.237 C 1162.16,220.557 1162,219.336 1162.18,218.574 C 1162.37,217.812 1162.79,217.431 1163.46,217.431 Z" marker-start="none" marker-end="none"/>
   </g>
  </g>
  <g id="Group_6" fill-rule="nonzero" stroke-linejoin="round" stroke-linecap="round" stroke="none" stroke-width="0.25" fill="#000000">
   <g id="Group_7">
    <path d="M 1325.76,240.977 L 1326.3,242.759 C 1325.75,242.819 1325.24,242.978 1324.77,243.236 C 1324.31,243.494 1323.94,243.797 1323.66,244.145 L 1324.66,245.171 C 1324.94,244.835 1325.28,244.55 1325.67,244.316 C 1326.06,244.082 1326.53,243.965 1327.08,243.965 C 1327.75,243.965 1328.31,244.133 1328.74,244.469 C 1329.17,244.805 1329.47,245.255 1329.64,245.819 C 1329.79,246.299 1329.79,246.698 1329.64,247.016 C 1329.49,247.334 1329.26,247.61 1328.96,247.844 C 1328.66,248.078 1328.32,248.297 1327.94,248.501 C 1327.57,248.705 1327.23,248.939 1326.94,249.203 C 1326.65,249.467 1326.44,249.788 1326.31,250.166 C 1326.18,250.544 1326.2,251.027 1326.38,251.615 C 1326.62,252.419 1327.06,253.088 1327.69,253.622 C 1328.33,254.156 1329.06,254.483 1329.89,254.603 L 1330.44,256.421 L 1331.52,256.421 L 1330.98,254.639 C 1331.54,254.579 1331.98,254.423 1332.31,254.171 C 1332.63,253.919 1332.91,253.619 1333.12,253.271 L 1332.07,252.389 C 1331.83,252.713 1331.58,252.965 1331.31,253.145 C 1331.05,253.325 1330.67,253.415 1330.18,253.415 C 1329.63,253.415 1329.14,253.259 1328.72,252.947 C 1328.31,252.635 1328.02,252.215 1327.86,251.687 C 1327.73,251.255 1327.74,250.901 1327.9,250.625 C 1328.07,250.349 1328.3,250.106 1328.61,249.896 C 1328.92,249.686 1329.26,249.482 1329.64,249.284 C 1330.02,249.086 1330.35,248.846 1330.64,248.564 C 1330.92,248.282 1331.13,247.934 1331.25,247.52 C 1331.37,247.106 1331.33,246.575 1331.13,245.927 C 1330.87,245.063 1330.41,244.355 1329.74,243.803 C 1329.08,243.251 1328.29,242.915 1327.39,242.795 L 1326.84,240.977 L 1325.76,240.977 Z" marker-start="none" marker-end="none"/>
    <path d="M 1332.74,242.957 L 1333.11,244.181 L 1335.73,244.181 L 1338.3,252.641 L 1336.21,252.641 L 1336.5,253.595 C 1337.06,253.691 1337.55,253.808 1337.98,253.946 C 1338.41,254.084 1338.82,254.249 1339.18,254.441 L 1340.32,254.441 L 1337.21,244.181 L 1339.59,244.181 L 1339.22,242.957 L 1332.74,242.957 Z" marker-start="none" marker-end="none"/>
    <path d="M 1344.68,242.741 C 1343.51,242.741 1342.76,243.257 1342.43,244.289 C 1342.09,245.321 1342.22,246.803 1342.8,248.735 C 1343.39,250.667 1344.16,252.137 1345.11,253.145 C 1346.07,254.153 1347.12,254.657 1348.29,254.657 C 1349.44,254.657 1350.19,254.153 1350.53,253.145 C 1350.87,252.137 1350.75,250.667 1350.17,248.735 C 1349.58,246.803 1348.81,245.321 1347.85,244.289 C 1346.89,243.257 1345.83,242.741 1344.68,242.741 Z M 1345.04,243.929 C 1345.37,243.929 1345.7,244.022 1346.03,244.208 C 1346.36,244.394 1346.68,244.682 1346.99,245.072 C 1347.31,245.462 1347.61,245.96 1347.91,246.566 C 1348.2,247.172 1348.47,247.895 1348.73,248.735 C 1348.98,249.575 1349.14,250.295 1349.22,250.895 C 1349.29,251.495 1349.29,251.984 1349.2,252.362 C 1349.12,252.74 1348.97,253.019 1348.76,253.199 C 1348.54,253.379 1348.26,253.469 1347.93,253.469 C 1347.59,253.469 1347.26,253.379 1346.93,253.199 C 1346.6,253.019 1346.28,252.74 1345.96,252.362 C 1345.65,251.984 1345.35,251.495 1345.06,250.895 C 1344.77,250.295 1344.5,249.575 1344.24,248.735 C 1343.73,247.055 1343.57,245.834 1343.75,245.072 C 1343.94,244.31 1344.37,243.929 1345.04,243.929 Z" marker-start="none" marker-end="none"/>
    <path d="M 1353.62,242.741 C 1352.46,242.741 1351.71,243.257 1351.38,244.289 C 1351.04,245.321 1351.17,246.803 1351.75,248.735 C 1352.34,250.667 1353.11,252.137 1354.06,253.145 C 1355.01,254.153 1356.07,254.657 1357.24,254.657 C 1358.39,254.657 1359.13,254.153 1359.48,253.145 C 1359.82,252.137 1359.7,250.667 1359.11,248.735 C 1358.53,246.803 1357.75,245.321 1356.79,244.289 C 1355.83,243.257 1354.78,242.741 1353.62,242.741 Z M 1353.98,243.929 C 1354.32,243.929 1354.65,244.022 1354.98,244.208 C 1355.3,244.394 1355.63,244.682 1355.94,245.072 C 1356.26,245.462 1356.56,245.96 1356.85,246.566 C 1357.15,247.172 1357.42,247.895 1357.67,248.735 C 1357.93,249.575 1358.09,250.295 1358.17,250.895 C 1358.24,251.495 1358.23,251.984 1358.15,252.362 C 1358.07,252.74 1357.92,253.019 1357.7,253.199 C 1357.49,253.379 1357.21,253.469 1356.88,253.469 C 1356.54,253.469 1356.21,253.379 1355.88,253.199 C 1355.55,253.019 1355.22,252.74 1354.91,252.362 C 1354.6,251.984 1354.3,251.495 1354.01,250.895 C 1353.72,250.295 1353.44,249.575 1353.19,248.735 C 1352.68,247.055 1352.52,245.834 1352.7,245.072 C 1352.89,244.31 1353.31,243.929 1353.98,243.929 Z" marker-start="none" marker-end="none"/>
   </g>
   <g id="Group_8">
    <path d="M 1293.9,215.811 L 1294.98,227.619 L 1296.53,227.619 L 1295.82,221.193 C 1295.73,220.545 1295.65,219.909 1295.58,219.285 C 1295.52,218.661 1295.44,218.025 1295.35,217.377 L 1295.42,217.377 C 1295.75,218.025 1296.08,218.664 1296.42,219.294 C 1296.75,219.924 1297.08,220.557 1297.4,221.193 L 1300.99,227.619 L 1302.36,227.619 L 1302.05,221.193 C 1302,220.569 1301.96,219.939 1301.91,219.303 C 1301.86,218.667 1301.81,218.025 1301.76,217.377 L 1301.83,217.377 C 1302.13,218.025 1302.43,218.664 1302.73,219.294 C 1303.03,219.924 1303.34,220.557 1303.65,221.193 L 1306.84,227.619 L 1308.28,227.619 L 1302.25,215.811 L 1300.45,215.811 L 1300.83,222.921 C 1300.86,223.377 1300.89,223.824 1300.93,224.262 C 1300.98,224.7 1301.02,225.147 1301.06,225.603 L 1300.99,225.603 C 1300.76,225.147 1300.52,224.7 1300.29,224.262 C 1300.05,223.824 1299.82,223.377 1299.58,222.921 L 1295.68,215.811 L 1293.9,215.811 Z" marker-start="none" marker-end="none"/>
    <path d="M 1306.61,215.811 L 1309.26,224.559 L 1310.74,224.559 L 1308.09,215.811 L 1306.61,215.811 Z M 1310.57,226.359 C 1310.28,226.359 1310.06,226.449 1309.92,226.629 C 1309.77,226.809 1309.74,227.037 1309.83,227.313 C 1309.92,227.601 1310.08,227.832 1310.34,228.006 C 1310.59,228.18 1310.86,228.267 1311.14,228.267 C 1311.43,228.267 1311.65,228.18 1311.79,228.006 C 1311.94,227.832 1311.97,227.601 1311.88,227.313 C 1311.8,227.037 1311.63,226.809 1311.38,226.629 C 1311.12,226.449 1310.85,226.359 1310.57,226.359 Z" marker-start="none" marker-end="none"/>
    <path d="M 1313.73,215.595 C 1313.26,215.595 1312.89,215.667 1312.62,215.811 C 1312.34,215.955 1312.15,216.153 1312.02,216.405 C 1311.9,216.657 1311.85,216.963 1311.88,217.323 C 1311.9,217.683 1311.98,218.079 1312.11,218.511 L 1313.58,223.353 L 1312.28,223.353 L 1312.62,224.469 L 1314.02,224.559 L 1314.94,227.007 L 1316.18,227.007 L 1315.44,224.559 L 1317.8,224.559 L 1317.43,223.353 L 1315.07,223.353 L 1313.6,218.493 C 1313.44,217.953 1313.41,217.536 1313.52,217.242 C 1313.63,216.948 1313.93,216.801 1314.44,216.801 C 1314.6,216.801 1314.77,216.825 1314.96,216.873 C 1315.16,216.921 1315.34,216.975 1315.5,217.035 L 1315.45,215.919 C 1315.18,215.835 1314.9,215.76 1314.6,215.694 C 1314.3,215.628 1314.01,215.595 1313.73,215.595 Z" marker-start="none" marker-end="none"/>
    <path d="M 1317.13,215.811 L 1321.01,228.627 L 1322.48,228.627 L 1321.43,225.135 L 1320.83,223.335 C 1321.37,223.731 1321.91,224.07 1322.45,224.352 C 1322.99,224.634 1323.57,224.775 1324.18,224.775 C 1325.1,224.775 1325.69,224.487 1325.94,223.911 C 1326.19,223.335 1326.15,222.483 1325.81,221.355 L 1324.13,215.811 L 1322.65,215.811 L 1324.27,221.157 C 1324.52,221.985 1324.57,222.582 1324.42,222.948 C 1324.26,223.314 1323.9,223.497 1323.32,223.497 C 1322.87,223.497 1322.43,223.383 1322.01,223.155 C 1321.6,222.927 1321.1,222.591 1320.52,222.147 L 1318.6,215.811 L 1317.13,215.811 Z" marker-start="none" marker-end="none"/>
    <path d="M 1329.84,215.595 C 1328.73,215.595 1327.98,215.991 1327.56,216.783 C 1327.15,217.575 1327.16,218.703 1327.61,220.167 C 1327.82,220.875 1328.12,221.514 1328.5,222.084 C 1328.88,222.654 1329.31,223.137 1329.78,223.533 C 1330.25,223.929 1330.74,224.235 1331.26,224.451 C 1331.78,224.667 1332.3,224.775 1332.8,224.775 C 1333.3,224.775 1333.71,224.685 1334.03,224.505 C 1334.35,224.325 1334.65,224.079 1334.94,223.767 L 1335.32,225.261 L 1336.34,228.627 L 1337.84,228.627 L 1333.95,215.811 L 1332.73,215.811 L 1332.92,216.837 L 1332.86,216.837 C 1332.41,216.501 1331.92,216.21 1331.4,215.964 C 1330.87,215.718 1330.35,215.595 1329.84,215.595 Z M 1330.54,216.837 C 1330.95,216.837 1331.36,216.936 1331.78,217.134 C 1332.2,217.332 1332.65,217.635 1333.14,218.043 L 1334.52,222.615 C 1334.25,222.951 1333.97,223.188 1333.67,223.326 C 1333.37,223.464 1333.04,223.533 1332.68,223.533 C 1332.33,223.533 1331.98,223.452 1331.62,223.29 C 1331.27,223.128 1330.93,222.9 1330.61,222.606 C 1330.3,222.312 1330.01,221.961 1329.75,221.553 C 1329.5,221.145 1329.29,220.689 1329.14,220.185 C 1328.82,219.129 1328.78,218.307 1329.02,217.719 C 1329.27,217.131 1329.77,216.837 1330.54,216.837 Z" marker-start="none" marker-end="none"/>
    <path d="M 1336.91,215.811 L 1339.56,224.559 L 1340.78,224.559 L 1340.43,222.975 L 1340.48,222.975 C 1340.95,223.527 1341.45,223.965 1341.97,224.289 C 1342.5,224.613 1343.01,224.775 1343.51,224.775 C 1343.86,224.775 1344.16,224.715 1344.39,224.595 L 1343.71,223.299 C 1343.58,223.347 1343.46,223.383 1343.35,223.407 C 1343.24,223.431 1343.09,223.443 1342.91,223.443 C 1342.54,223.443 1342.11,223.293 1341.61,222.993 C 1341.12,222.693 1340.61,222.171 1340.09,221.427 L 1338.39,215.811 L 1336.91,215.811 Z" marker-start="none" marker-end="none"/>
    <path d="M 1344.68,215.595 C 1343.94,215.595 1343.4,215.811 1343.05,216.243 C 1342.69,216.675 1342.63,217.287 1342.87,218.079 C 1343.17,219.039 1343.81,219.774 1344.82,220.284 C 1345.83,220.794 1347.3,221.151 1349.23,221.355 C 1349.31,221.631 1349.37,221.901 1349.4,222.165 C 1349.42,222.429 1349.4,222.663 1349.33,222.867 C 1349.26,223.071 1349.13,223.236 1348.93,223.362 C 1348.73,223.488 1348.46,223.551 1348.1,223.551 C 1347.59,223.551 1347.09,223.455 1346.59,223.263 C 1346.09,223.071 1345.62,222.855 1345.2,222.615 L 1344.94,223.641 C 1345.43,223.905 1346,224.16 1346.66,224.406 C 1347.33,224.652 1348.01,224.775 1348.72,224.775 C 1349.79,224.775 1350.46,224.448 1350.74,223.794 C 1351.03,223.14 1351,222.267 1350.67,221.175 L 1349.05,215.811 L 1347.82,215.811 L 1348.01,216.855 L 1347.96,216.855 C 1347.43,216.507 1346.89,216.21 1346.34,215.964 C 1345.78,215.718 1345.23,215.595 1344.68,215.595 Z M 1345.47,216.783 C 1345.89,216.783 1346.32,216.882 1346.75,217.08 C 1347.18,217.278 1347.66,217.569 1348.2,217.953 L 1348.94,220.383 C 1348.18,220.287 1347.53,220.173 1346.99,220.041 C 1346.45,219.909 1346,219.753 1345.64,219.573 C 1345.28,219.393 1344.99,219.186 1344.79,218.952 C 1344.58,218.718 1344.43,218.463 1344.35,218.187 C 1344.19,217.683 1344.24,217.323 1344.47,217.107 C 1344.7,216.891 1345.04,216.783 1345.47,216.783 Z" marker-start="none" marker-end="none"/>
    <path d="M 1353.18,215.811 L 1353.4,224.559 L 1354.92,224.559 L 1354.68,219.501 C 1354.65,219.081 1354.61,218.673 1354.58,218.277 C 1354.54,217.881 1354.5,217.479 1354.46,217.071 L 1354.54,217.071 C 1354.76,217.479 1354.98,217.884 1355.19,218.286 C 1355.41,218.688 1355.64,219.093 1355.87,219.501 L 1358.75,224.559 L 1360.19,224.559 L 1360.03,219.501 C 1360.01,219.081 1359.99,218.673 1359.97,218.277 C 1359.95,217.881 1359.93,217.479 1359.9,217.071 L 1359.97,217.071 C 1360.19,217.479 1360.4,217.881 1360.61,218.277 C 1360.81,218.673 1361.03,219.081 1361.25,219.501 L 1364.06,224.559 L 1365.46,224.559 L 1360.47,215.811 L 1358.67,215.811 L 1358.84,220.509 C 1358.86,220.929 1358.88,221.343 1358.92,221.751 C 1358.95,222.159 1358.98,222.585 1359.01,223.029 L 1358.93,223.029 C 1358.7,222.585 1358.48,222.156 1358.26,221.742 C 1358.03,221.328 1357.8,220.911 1357.55,220.491 L 1354.91,215.811 L 1353.18,215.811 Z" marker-start="none" marker-end="none"/>
    <path d="M 1364.72,215.811 L 1367.37,224.559 L 1368.59,224.559 L 1368.34,223.299 L 1368.39,223.299 C 1368.94,223.719 1369.48,224.07 1370.03,224.352 C 1370.58,224.634 1371.16,224.775 1371.77,224.775 C 1372.69,224.775 1373.28,224.487 1373.53,223.911 C 1373.79,223.335 1373.74,222.483 1373.4,221.355 L 1371.72,215.811 L 1370.24,215.811 L 1371.86,221.157 C 1372.11,221.985 1372.16,222.582 1372.01,222.948 C 1371.86,223.314 1371.49,223.497 1370.92,223.497 C 1370.46,223.497 1370.02,223.383 1369.61,223.155 C 1369.19,222.927 1368.69,222.591 1368.11,222.147 L 1366.19,215.811 L 1364.72,215.811 Z" marker-start="none" marker-end="none"/>
   </g>
  </g>
  <g id="Group_9" fill-rule="nonzero" stroke-linejoin="round" stroke-linecap="round" stroke="none" stroke-width="0.25" fill="#000000">
   <g id="Group_10">
    <path d="M 1044.6,330.135 C 1045.3,330.135 1045.94,330.287 1046.51,330.591 C 1047.08,330.895 1047.56,331.335 1047.97,331.911 C 1048.38,332.487 1048.7,333.179 1048.92,333.987 C 1049.14,334.795 1049.26,335.703 1049.26,336.711 C 1049.26,337.687 1049.14,338.567 1048.92,339.351 C 1048.7,340.135 1048.38,340.799 1047.97,341.343 C 1047.56,341.887 1047.08,342.307 1046.51,342.603 C 1045.94,342.899 1045.3,343.047 1044.6,343.047 C 1043.9,343.047 1043.26,342.899 1042.69,342.603 C 1042.12,342.307 1041.64,341.887 1041.23,341.343 C 1040.82,340.799 1040.5,340.135 1040.28,339.351 C 1040.06,338.567 1039.94,337.687 1039.94,336.711 C 1039.94,335.703 1040.06,334.795 1040.28,333.987 C 1040.5,333.179 1040.82,332.487 1041.23,331.911 C 1041.64,331.335 1042.12,330.895 1042.69,330.591 C 1043.26,330.287 1043.9,330.135 1044.6,330.135 Z M 1049.42,324.807 C 1048.7,324.807 1048.04,324.899 1047.42,325.083 C 1046.8,325.267 1046.25,325.527 1045.76,325.863 C 1045.28,326.199 1044.85,326.595 1044.49,327.051 C 1044.13,327.507 1043.84,328.007 1043.62,328.551 C 1042.75,328.663 1041.97,328.935 1041.26,329.367 C 1040.56,329.799 1039.96,330.367 1039.45,331.071 C 1038.95,331.775 1038.56,332.603 1038.29,333.555 C 1038.02,334.507 1037.88,335.559 1037.88,336.711 C 1037.88,337.975 1038.04,339.107 1038.37,340.107 C 1038.7,341.107 1039.16,341.955 1039.75,342.651 C 1040.34,343.347 1041.05,343.879 1041.88,344.247 C 1042.7,344.615 1043.61,344.799 1044.6,344.799 C 1045.59,344.799 1046.5,344.611 1047.32,344.235 C 1048.15,343.859 1048.86,343.323 1049.46,342.627 C 1050.06,341.931 1050.52,341.083 1050.85,340.083 C 1051.18,339.083 1051.34,337.959 1051.34,336.711 C 1051.34,335.575 1051.21,334.539 1050.95,333.603 C 1050.68,332.667 1050.31,331.851 1049.82,331.155 C 1049.33,330.459 1048.74,329.891 1048.06,329.451 C 1047.37,329.011 1046.61,328.719 1045.78,328.575 C 1046.14,327.871 1046.66,327.347 1047.34,327.003 C 1048.01,326.659 1048.78,326.487 1049.64,326.487 C 1049.99,326.487 1050.3,326.507 1050.56,326.547 C 1050.83,326.587 1051.07,326.639 1051.3,326.703 L 1051.68,325.167 C 1051.44,325.071 1051.12,324.987 1050.72,324.915 C 1050.32,324.843 1049.89,324.807 1049.42,324.807 Z" marker-start="none" marker-end="none"/>
    <path d="M 1057.95,328.479 C 1056.7,328.479 1055.79,328.863 1055.22,329.631 C 1054.65,330.399 1054.37,331.535 1054.37,333.039 L 1054.37,340.431 L 1056.36,340.431 L 1056.36,333.303 C 1056.36,332.199 1056.53,331.403 1056.88,330.915 C 1057.22,330.427 1057.78,330.183 1058.55,330.183 C 1059.15,330.183 1059.69,330.339 1060.15,330.651 C 1060.62,330.963 1061.13,331.463 1061.69,332.151 L 1061.69,340.431 L 1063.66,340.431 L 1063.66,328.767 L 1062.03,328.767 L 1061.86,330.591 L 1061.79,330.591 C 1061.24,329.951 1060.67,329.439 1060.07,329.055 C 1059.47,328.671 1058.76,328.479 1057.95,328.479 Z" marker-start="none" marker-end="none"/>
    <path d="M 1072.32,328.479 C 1071.54,328.479 1070.81,328.619 1070.13,328.899 C 1069.44,329.179 1068.85,329.579 1068.35,330.099 C 1067.85,330.619 1067.45,331.255 1067.16,332.007 C 1066.87,332.759 1066.73,333.615 1066.73,334.575 C 1066.73,335.535 1066.88,336.395 1067.17,337.155 C 1067.47,337.915 1067.86,338.559 1068.35,339.087 C 1068.84,339.615 1069.39,340.019 1070.02,340.299 C 1070.64,340.579 1071.29,340.719 1071.96,340.719 C 1072.7,340.719 1073.36,340.591 1073.94,340.335 C 1074.53,340.079 1075.01,339.711 1075.41,339.231 C 1075.8,338.751 1076.1,338.175 1076.31,337.503 C 1076.51,336.831 1076.62,336.079 1076.62,335.247 C 1076.62,335.039 1076.61,334.835 1076.61,334.635 C 1076.6,334.435 1076.58,334.263 1076.55,334.119 L 1068.67,334.119 C 1068.75,332.871 1069.14,331.883 1069.84,331.155 C 1070.53,330.427 1071.44,330.063 1072.56,330.063 C 1073.12,330.063 1073.64,330.147 1074.11,330.315 C 1074.58,330.483 1075.03,330.703 1075.46,330.975 L 1076.16,329.679 C 1075.65,329.359 1075.08,329.079 1074.46,328.839 C 1073.83,328.599 1073.12,328.479 1072.32,328.479 Z M 1068.65,335.535 L 1074.89,335.535 C 1074.89,336.719 1074.64,337.619 1074.13,338.235 C 1073.63,338.851 1072.92,339.159 1072.01,339.159 C 1071.59,339.159 1071.2,339.079 1070.82,338.919 C 1070.44,338.759 1070.11,338.523 1069.8,338.211 C 1069.5,337.899 1069.25,337.519 1069.05,337.071 C 1068.85,336.623 1068.71,336.111 1068.65,335.535 Z" marker-start="none" marker-end="none"/>
    <path d="M 1079.5,328.767 L 1079.5,340.431 L 1081.13,340.431 L 1081.3,338.319 L 1081.37,338.319 C 1081.77,339.055 1082.26,339.639 1082.82,340.071 C 1083.39,340.503 1084.01,340.719 1084.68,340.719 C 1085.15,340.719 1085.56,340.639 1085.93,340.479 L 1085.55,338.751 C 1085.36,338.815 1085.18,338.863 1085.02,338.895 C 1084.86,338.927 1084.66,338.943 1084.42,338.943 C 1083.92,338.943 1083.41,338.743 1082.87,338.343 C 1082.34,337.943 1081.87,337.247 1081.47,336.255 L 1081.47,328.767 L 1079.5,328.767 Z" marker-start="none" marker-end="none"/>
    <path d="M 1088.62,323.751 C 1088.35,323.751 1088.1,323.771 1087.88,323.811 C 1087.66,323.851 1087.45,323.911 1087.26,323.991 L 1087.64,325.551 C 1087.77,325.519 1087.91,325.483 1088.07,325.443 C 1088.23,325.403 1088.38,325.383 1088.53,325.383 C 1089.2,325.383 1089.75,325.619 1090.17,326.091 C 1090.6,326.563 1090.93,327.159 1091.17,327.879 L 1091.43,328.743 L 1086.75,340.431 L 1088.79,340.431 L 1091.17,333.975 C 1091.34,333.463 1091.53,332.923 1091.73,332.355 C 1091.93,331.787 1092.12,331.231 1092.3,330.687 L 1092.39,330.687 C 1092.57,331.215 1092.74,331.767 1092.9,332.343 C 1093.06,332.919 1093.21,333.463 1093.38,333.975 L 1095.46,340.431 L 1097.38,340.431 L 1092.99,327.807 C 1092.78,327.231 1092.55,326.695 1092.3,326.199 C 1092.04,325.703 1091.74,325.275 1091.38,324.915 C 1091.03,324.555 1090.63,324.271 1090.18,324.063 C 1089.74,323.855 1089.21,323.751 1088.62,323.751 Z" marker-start="none" marker-end="none"/>
    <path d="M 1098.43,324.687 L 1097.95,325.839 C 1098.64,326.143 1099.18,326.547 1099.56,327.051 C 1099.95,327.555 1100.13,328.127 1100.12,328.767 C 1100.07,328.751 1099.99,328.743 1099.88,328.743 C 1099.49,328.743 1099.16,328.859 1098.88,329.091 C 1098.6,329.323 1098.46,329.663 1098.46,330.111 C 1098.46,330.543 1098.6,330.883 1098.89,331.131 C 1099.18,331.379 1099.52,331.503 1099.92,331.503 C 1100.43,331.503 1100.84,331.295 1101.14,330.879 C 1101.43,330.463 1101.58,329.895 1101.58,329.175 C 1101.58,328.135 1101.3,327.231 1100.74,326.463 C 1100.18,325.695 1099.41,325.103 1098.43,324.687 Z" marker-start="none" marker-end="none"/>
    <path d="M 1115.72,328.479 C 1114.73,328.479 1113.82,328.663 1112.99,329.031 C 1112.15,329.399 1111.43,329.931 1110.81,330.627 C 1110.2,331.323 1109.72,332.179 1109.37,333.195 C 1109.03,334.211 1108.86,335.359 1108.86,336.639 C 1108.86,337.903 1109.03,339.039 1109.39,340.047 C 1109.74,341.055 1110.23,341.911 1110.85,342.615 C 1111.47,343.319 1112.21,343.859 1113.06,344.235 C 1113.91,344.611 1114.83,344.799 1115.84,344.799 C 1116.8,344.799 1117.65,344.603 1118.37,344.211 C 1119.1,343.819 1119.7,343.367 1120.16,342.855 L 1119.08,341.559 C 1118.67,342.007 1118.19,342.367 1117.67,342.639 C 1117.14,342.911 1116.54,343.047 1115.87,343.047 C 1115.11,343.047 1114.43,342.899 1113.83,342.603 C 1113.22,342.307 1112.7,341.883 1112.27,341.331 C 1111.83,340.779 1111.5,340.111 1111.27,339.327 C 1111.04,338.543 1110.92,337.663 1110.92,336.687 C 1110.92,335.695 1111.04,334.803 1111.27,334.011 C 1111.5,333.219 1111.83,332.543 1112.24,331.983 C 1112.66,331.423 1113.17,330.991 1113.77,330.687 C 1114.37,330.383 1115.04,330.231 1115.79,330.231 C 1116.56,330.231 1117.23,330.387 1117.81,330.699 C 1118.39,331.011 1118.93,331.447 1119.44,332.007 L 1120.55,330.759 C 1119.92,330.039 1119.22,329.479 1118.43,329.079 C 1117.65,328.679 1116.75,328.479 1115.72,328.479 Z" marker-start="none" marker-end="none"/>
    <path d="M 1127.81,328.479 C 1127.09,328.479 1126.41,328.615 1125.76,328.887 C 1125.11,329.159 1124.54,329.555 1124.04,330.075 C 1123.55,330.595 1123.15,331.235 1122.86,331.995 C 1122.56,332.755 1122.41,333.615 1122.41,334.575 C 1122.41,335.551 1122.56,336.419 1122.86,337.179 C 1123.15,337.939 1123.55,338.583 1124.04,339.111 C 1124.54,339.639 1125.11,340.039 1125.76,340.311 C 1126.41,340.583 1127.09,340.719 1127.81,340.719 C 1128.53,340.719 1129.22,340.583 1129.86,340.311 C 1130.51,340.039 1131.08,339.639 1131.58,339.111 C 1132.08,338.583 1132.47,337.939 1132.77,337.179 C 1133.06,336.419 1133.21,335.551 1133.21,334.575 C 1133.21,333.615 1133.06,332.755 1132.77,331.995 C 1132.47,331.235 1132.08,330.595 1131.58,330.075 C 1131.08,329.555 1130.51,329.159 1129.86,328.887 C 1129.22,328.615 1128.53,328.479 1127.81,328.479 Z M 1127.81,330.111 C 1128.31,330.111 1128.76,330.219 1129.18,330.435 C 1129.6,330.651 1129.95,330.955 1130.25,331.347 C 1130.54,331.739 1130.77,332.207 1130.93,332.751 C 1131.09,333.295 1131.17,333.903 1131.17,334.575 C 1131.17,335.247 1131.09,335.859 1130.93,336.411 C 1130.77,336.963 1130.54,337.439 1130.25,337.839 C 1129.95,338.239 1129.6,338.547 1129.18,338.763 C 1128.76,338.979 1128.31,339.087 1127.81,339.087 C 1127.32,339.087 1126.86,338.979 1126.44,338.763 C 1126.03,338.547 1125.67,338.239 1125.38,337.839 C 1125.08,337.439 1124.85,336.963 1124.69,336.411 C 1124.53,335.859 1124.45,335.247 1124.45,334.575 C 1124.45,333.903 1124.53,333.295 1124.69,332.751 C 1124.85,332.207 1125.08,331.739 1125.38,331.347 C 1125.67,330.955 1126.03,330.651 1126.44,330.435 C 1126.86,330.219 1127.32,330.111 1127.81,330.111 Z" marker-start="none" marker-end="none"/>
    <path d="M 1136.28,328.767 L 1136.28,340.431 L 1137.92,340.431 L 1138.08,338.751 L 1138.16,338.751 C 1138.67,339.311 1139.22,339.779 1139.82,340.155 C 1140.42,340.531 1141.08,340.719 1141.78,340.719 C 1142.68,340.719 1143.38,340.523 1143.88,340.131 C 1144.38,339.739 1144.76,339.191 1145,338.487 C 1145.6,339.159 1146.22,339.699 1146.83,340.107 C 1147.45,340.515 1148.12,340.719 1148.84,340.719 C 1150.04,340.719 1150.93,340.335 1151.51,339.567 C 1152.1,338.799 1152.39,337.663 1152.39,336.159 L 1152.39,328.767 L 1150.42,328.767 L 1150.42,335.895 C 1150.42,336.999 1150.24,337.795 1149.89,338.283 C 1149.54,338.771 1149,339.015 1148.26,339.015 C 1147.38,339.015 1146.4,338.415 1145.33,337.215 L 1145.33,328.767 L 1143.36,328.767 L 1143.36,335.895 C 1143.36,336.999 1143.19,337.795 1142.84,338.283 C 1142.48,338.771 1141.93,339.015 1141.18,339.015 C 1140.3,339.015 1139.32,338.415 1138.25,337.215 L 1138.25,328.767 L 1136.28,328.767 Z" marker-start="none" marker-end="none"/>
    <path d="M 1156.18,328.767 L 1156.18,340.431 L 1157.81,340.431 L 1157.98,338.751 L 1158.05,338.751 C 1158.57,339.311 1159.12,339.779 1159.72,340.155 C 1160.32,340.531 1160.97,340.719 1161.68,340.719 C 1162.57,340.719 1163.27,340.523 1163.78,340.131 C 1164.28,339.739 1164.65,339.191 1164.89,338.487 C 1165.5,339.159 1166.11,339.699 1166.73,340.107 C 1167.35,340.515 1168.01,340.719 1168.73,340.719 C 1169.93,340.719 1170.83,340.335 1171.41,339.567 C 1171.99,338.799 1172.29,337.663 1172.29,336.159 L 1172.29,328.767 L 1170.32,328.767 L 1170.32,335.895 C 1170.32,336.999 1170.14,337.795 1169.79,338.283 C 1169.44,338.771 1168.89,339.015 1168.16,339.015 C 1167.28,339.015 1166.3,338.415 1165.23,337.215 L 1165.23,328.767 L 1163.26,328.767 L 1163.26,335.895 C 1163.26,336.999 1163.09,337.795 1162.73,338.283 C 1162.38,338.771 1161.83,339.015 1161.08,339.015 C 1160.2,339.015 1159.22,338.415 1158.15,337.215 L 1158.15,328.767 L 1156.18,328.767 Z" marker-start="none" marker-end="none"/>
    <path d="M 1178.77,328.479 C 1177.79,328.479 1176.98,328.767 1176.33,329.343 C 1175.68,329.919 1175.36,330.735 1175.36,331.791 C 1175.36,333.071 1175.93,334.051 1177.06,334.731 C 1178.2,335.411 1180.02,335.887 1182.51,336.159 C 1182.51,336.527 1182.48,336.887 1182.4,337.239 C 1182.33,337.591 1182.21,337.903 1182.03,338.175 C 1181.86,338.447 1181.61,338.667 1181.3,338.835 C 1180.99,339.003 1180.59,339.087 1180.11,339.087 C 1179.44,339.087 1178.81,338.959 1178.22,338.703 C 1177.62,338.447 1177.1,338.159 1176.63,337.839 L 1175.86,339.207 C 1176.41,339.559 1177.07,339.899 1177.86,340.227 C 1178.64,340.555 1179.5,340.719 1180.45,340.719 C 1181.87,340.719 1182.9,340.283 1183.54,339.411 C 1184.18,338.539 1184.5,337.375 1184.5,335.919 L 1184.5,328.767 L 1182.87,328.767 L 1182.7,330.159 L 1182.63,330.159 C 1182.07,329.695 1181.47,329.299 1180.83,328.971 C 1180.19,328.643 1179.5,328.479 1178.77,328.479 Z M 1179.34,330.063 C 1179.9,330.063 1180.43,330.195 1180.93,330.459 C 1181.42,330.723 1181.95,331.111 1182.51,331.623 L 1182.51,334.863 C 1181.54,334.735 1180.72,334.583 1180.05,334.407 C 1179.39,334.231 1178.85,334.023 1178.44,333.783 C 1178.04,333.543 1177.74,333.267 1177.56,332.955 C 1177.37,332.643 1177.28,332.303 1177.28,331.935 C 1177.28,331.263 1177.48,330.783 1177.88,330.495 C 1178.28,330.207 1178.77,330.063 1179.34,330.063 Z" marker-start="none" marker-end="none"/>
    <path d="M 1188.17,328.767 L 1188.17,340.431 L 1189.81,340.431 L 1189.97,338.751 L 1190.05,338.751 C 1190.61,339.311 1191.19,339.779 1191.81,340.155 C 1192.43,340.531 1193.14,340.719 1193.96,340.719 C 1195.19,340.719 1196.09,340.335 1196.66,339.567 C 1197.23,338.799 1197.51,337.663 1197.51,336.159 L 1197.51,328.767 L 1195.54,328.767 L 1195.54,335.895 C 1195.54,336.999 1195.37,337.795 1195.01,338.283 C 1194.66,338.771 1194.1,339.015 1193.33,339.015 C 1192.73,339.015 1192.19,338.863 1191.73,338.559 C 1191.26,338.255 1190.73,337.807 1190.14,337.215 L 1190.14,328.767 L 1188.17,328.767 Z" marker-start="none" marker-end="none"/>
    <path d="M 1205.28,328.479 C 1203.81,328.479 1202.64,329.007 1201.77,330.063 C 1200.9,331.119 1200.46,332.623 1200.46,334.575 C 1200.46,335.519 1200.6,336.371 1200.88,337.131 C 1201.16,337.891 1201.53,338.535 1202,339.063 C 1202.46,339.591 1203,339.999 1203.6,340.287 C 1204.21,340.575 1204.85,340.719 1205.52,340.719 C 1206.19,340.719 1206.78,340.599 1207.28,340.359 C 1207.77,340.119 1208.28,339.791 1208.79,339.375 L 1208.69,341.367 L 1208.69,345.855 L 1210.68,345.855 L 1210.68,328.767 L 1209.05,328.767 L 1208.88,330.135 L 1208.81,330.135 C 1208.35,329.687 1207.82,329.299 1207.21,328.971 C 1206.62,328.643 1205.97,328.479 1205.28,328.479 Z M 1205.71,330.135 C 1206.26,330.135 1206.77,330.267 1207.25,330.531 C 1207.73,330.795 1208.21,331.199 1208.69,331.743 L 1208.69,337.839 C 1208.19,338.287 1207.72,338.603 1207.26,338.787 C 1206.81,338.971 1206.34,339.063 1205.86,339.063 C 1205.4,339.063 1204.96,338.955 1204.55,338.739 C 1204.14,338.523 1203.79,338.219 1203.48,337.827 C 1203.18,337.435 1202.94,336.967 1202.76,336.423 C 1202.59,335.879 1202.5,335.271 1202.5,334.599 C 1202.5,333.191 1202.78,332.095 1203.34,331.311 C 1203.9,330.527 1204.69,330.135 1205.71,330.135 Z" marker-start="none" marker-end="none"/>
    <path d="M 1214.26,324.687 L 1213.78,325.839 C 1214.47,326.143 1215.01,326.547 1215.39,327.051 C 1215.78,327.555 1215.96,328.127 1215.94,328.767 C 1215.9,328.751 1215.82,328.743 1215.7,328.743 C 1215.32,328.743 1214.99,328.859 1214.71,329.091 C 1214.43,329.323 1214.29,329.663 1214.29,330.111 C 1214.29,330.543 1214.43,330.883 1214.72,331.131 C 1215.01,331.379 1215.35,331.503 1215.75,331.503 C 1216.26,331.503 1216.67,331.295 1216.96,330.879 C 1217.26,330.463 1217.41,329.895 1217.41,329.175 C 1217.41,328.135 1217.13,327.231 1216.57,326.463 C 1216.01,325.695 1215.24,325.103 1214.26,324.687 Z" marker-start="none" marker-end="none"/>
    <path d="M 1225.6,328.767 L 1225.6,344.511 L 1234.67,344.511 L 1234.67,342.831 L 1227.59,342.831 L 1227.59,337.887 L 1233.57,337.887 L 1233.57,336.183 L 1227.59,336.183 L 1227.59,330.471 L 1234.91,330.471 L 1234.91,328.767 L 1225.6,328.767 Z" marker-start="none" marker-end="none"/>
    <path d="M 1240.33,328.767 L 1236.13,340.431 L 1238.17,340.431 L 1240.38,333.807 C 1240.56,333.231 1240.74,332.655 1240.92,332.079 C 1241.1,331.503 1241.28,330.935 1241.46,330.375 L 1241.56,330.375 C 1241.73,330.935 1241.91,331.503 1242.08,332.079 C 1242.26,332.655 1242.43,333.231 1242.61,333.807 L 1244.82,340.431 L 1246.76,340.431 L 1242.64,328.767 L 1240.33,328.767 Z" marker-start="none" marker-end="none"/>
    <path d="M 1253.65,328.479 C 1252.86,328.479 1252.13,328.619 1251.45,328.899 C 1250.77,329.179 1250.18,329.579 1249.68,330.099 C 1249.17,330.619 1248.78,331.255 1248.49,332.007 C 1248.2,332.759 1248.06,333.615 1248.06,334.575 C 1248.06,335.535 1248.2,336.395 1248.5,337.155 C 1248.8,337.915 1249.19,338.559 1249.68,339.087 C 1250.16,339.615 1250.72,340.019 1251.34,340.299 C 1251.97,340.579 1252.62,340.719 1253.29,340.719 C 1254.02,340.719 1254.68,340.591 1255.27,340.335 C 1255.85,340.079 1256.34,339.711 1256.73,339.231 C 1257.12,338.751 1257.42,338.175 1257.63,337.503 C 1257.84,336.831 1257.94,336.079 1257.94,335.247 C 1257.94,335.039 1257.94,334.835 1257.93,334.635 C 1257.92,334.435 1257.9,334.263 1257.87,334.119 L 1250,334.119 C 1250.08,332.871 1250.47,331.883 1251.16,331.155 C 1251.86,330.427 1252.77,330.063 1253.89,330.063 C 1254.45,330.063 1254.96,330.147 1255.43,330.315 C 1255.91,330.483 1256.36,330.703 1256.79,330.975 L 1257.49,329.679 C 1256.98,329.359 1256.41,329.079 1255.78,328.839 C 1255.16,328.599 1254.45,328.479 1253.65,328.479 Z M 1249.98,335.535 L 1256.21,335.535 C 1256.21,336.719 1255.96,337.619 1255.46,338.235 C 1254.95,338.851 1254.25,339.159 1253.34,339.159 C 1252.92,339.159 1252.52,339.079 1252.15,338.919 C 1251.77,338.759 1251.43,338.523 1251.13,338.211 C 1250.82,337.899 1250.57,337.519 1250.37,337.071 C 1250.17,336.623 1250.04,336.111 1249.98,335.535 Z" marker-start="none" marker-end="none"/>
    <path d="M 1260.83,328.767 L 1260.83,340.431 L 1262.46,340.431 L 1262.63,338.751 L 1262.7,338.751 C 1263.26,339.311 1263.85,339.779 1264.46,340.155 C 1265.08,340.531 1265.79,340.719 1266.61,340.719 C 1267.84,340.719 1268.74,340.335 1269.31,339.567 C 1269.88,338.799 1270.16,337.663 1270.16,336.159 L 1270.16,328.767 L 1268.19,328.767 L 1268.19,335.895 C 1268.19,336.999 1268.02,337.795 1267.67,338.283 C 1267.31,338.771 1266.75,339.015 1265.99,339.015 C 1265.38,339.015 1264.84,338.863 1264.38,338.559 C 1263.91,338.255 1263.39,337.807 1262.79,337.215 L 1262.79,328.767 L 1260.83,328.767 Z" marker-start="none" marker-end="none"/>
    <path d="M 1277.62,328.479 C 1277,328.479 1276.47,328.575 1276.05,328.767 C 1275.63,328.959 1275.28,329.223 1275.02,329.559 C 1274.75,329.895 1274.57,330.303 1274.45,330.783 C 1274.34,331.263 1274.29,331.791 1274.29,332.367 L 1274.29,338.823 L 1272.56,338.823 L 1272.56,340.311 L 1274.38,340.431 L 1274.62,343.695 L 1276.28,343.695 L 1276.28,340.431 L 1279.42,340.431 L 1279.42,338.823 L 1276.28,338.823 L 1276.28,332.343 C 1276.28,331.623 1276.41,331.067 1276.67,330.675 C 1276.94,330.283 1277.41,330.087 1278.08,330.087 C 1278.29,330.087 1278.51,330.119 1278.75,330.183 C 1278.99,330.247 1279.21,330.319 1279.4,330.399 L 1279.78,328.911 C 1279.46,328.799 1279.11,328.699 1278.74,328.611 C 1278.36,328.523 1277.99,328.479 1277.62,328.479 Z" marker-start="none" marker-end="none"/>
   </g>
  </g>
 </g>
</svg>
